SplineFontDB: 3.2
FontName: AcariSans-Light
FullName: Acari Sans Light
FamilyName: Acari Sans Light
Weight: Light
Copyright: Copyright (c)2015, HK Grotesk Latin by Alfredo Marco Pradil (ammpradil@gmail.com) and HK Grotesk Cyrillic by Stefan Peev (http://www.contextbg.net/). HK Grotesk is a trademark of Alfredo Marco Pradil. Copyright (c) 2018-2023 The Acari Sans Project Authors (https://github.com/cssobral2013/acari-sans)
Version: 1.063; ttfautohint (v1.8.3)
ItalicAngle: 0
UnderlinePosition: -250
UnderlineWidth: 100
Ascent: 1600
Descent: 400
InvalidEm: 0
sfntRevision: 0x00011020
LayerCount: 2
Layer: 0 1 "Back" 1
Layer: 1 1 "Fore" 0
XUID: [1021 467 -1401554168 5375123]
StyleMap: 0x0040
FSType: 0
OS2Version: 4
OS2_WeightWidthSlopeOnly: 0
OS2_UseTypoMetrics: 1
CreationTime: 1480856841
ModificationTime: 1687306826
PfmFamily: 81
TTFWeight: 300
TTFWidth: 5
LineGap: 26
VLineGap: 0
Panose: 0 0 0 0 0 0 0 0 0 0
OS2TypoAscent: 1900
OS2TypoAOffset: 0
OS2TypoDescent: -487
OS2TypoDOffset: 0
OS2TypoLinegap: 26
OS2WinAscent: 1913
OS2WinAOffset: 0
OS2WinDescent: 500
OS2WinDOffset: 0
HheadAscent: 1900
HheadAOffset: 0
HheadDescent: -487
HheadDOffset: 0
OS2SubXSize: 1331
OS2SubYSize: 1228
OS2SubXOff: 0
OS2SubYOff: 153
OS2SupXSize: 1331
OS2SupYSize: 1228
OS2SupXOff: 0
OS2SupYOff: 716
OS2StrikeYSize: 82
OS2StrikeYPos: 599
OS2CapHeight: 1413
OS2XHeight: 1039
OS2Vendor: 'AMSP'
OS2CodePages: 20000197.00000000
OS2UnicodeRanges: 2000020f.00000001.00000000.00000000
Lookup: 1 0 0 "'locl' Localized Forms in Latin lookup 23" { "'locl' Localized Forms in Latin lookup 23-1"  } ['locl' ('latn' <'AZE ' 'CRT ' 'KAZ ' 'TAT ' 'TRK ' > ) ]
Lookup: 1 0 0 "'aalt' Access All Alternates lookup 0" { "'aalt' Access All Alternates lookup 0 subtable"  } ['aalt' ('DFLT' <'dflt' > 'cyrl' <'BGR ' 'MKD ' 'RUS ' 'SRB ' 'dflt' > 'latn' <'AZE ' 'CRT ' 'KAZ ' 'MOL ' 'ROM ' 'TAT ' 'TRK ' 'dflt' > ) ]

StartChar: .notdef
Encoding: 65536 -1 0
Width: 738
GlyphClass: 1
Flags: W
LayerCount: 2
Fore
SplineSet
604 0 m 1,0,-1
 67 0 l 1,1,-1
 67 1349 l 1,2,-1
 604 1349 l 1,3,-1
 604 0 l 1,0,-1
537 67 m 1,4,-1
 537 1282 l 1,5,-1
 134 1282 l 1,6,-1
 134 67 l 1,7,-1
 537 67 l 1,4,-1
EndSplineSet
EndChar

StartChar: exclam
Encoding: 33 33 4
Width: 630
GlyphClass: 1
Flags: W
LayerCount: 2
Fore
SplineSet
363 372 m 1,0,-1
 266 372 l 1,1,-1
 238 1435 l 1,2,-1
 392 1435 l 1,3,-1
 363 372 l 1,0,-1
404 0 m 1,4,-1
 225 0 l 1,5,-1
 225 177 l 1,6,-1
 404 177 l 1,7,-1
 404 0 l 1,4,-1
EndSplineSet
EndChar

StartChar: quotedbl
Encoding: 34 34 5
Width: 899
GlyphClass: 1
Flags: W
LayerCount: 2
Fore
SplineSet
361 1010 m 1,0,-1
 244 1010 l 1,1,-1
 244 1413 l 1,2,-1
 361 1413 l 1,3,-1
 361 1010 l 1,0,-1
655 1010 m 1,4,-1
 535 1010 l 1,5,-1
 535 1413 l 1,6,-1
 655 1413 l 1,7,-1
 655 1010 l 1,4,-1
EndSplineSet
EndChar

StartChar: numbersign
Encoding: 35 35 6
Width: 1368
GlyphClass: 1
Flags: W
LayerCount: 2
Fore
SplineSet
809 0 m 1,0,-1
 707 0 l 1,1,-1
 799 437 l 1,2,-1
 460 437 l 1,3,-1
 370 0 l 1,4,-1
 267 0 l 1,5,-1
 357 444 l 1,6,-1
 115 444 l 1,7,-1
 115 542 l 1,8,-1
 378 542 l 1,9,-1
 447 893 l 1,10,-1
 197 893 l 1,11,-1
 197 986 l 1,12,-1
 468 986 l 1,13,-1
 562 1434 l 1,14,-1
 666 1434 l 1,15,-1
 570 996 l 1,16,-1
 909 996 l 1,17,-1
 1001 1434 l 1,18,-1
 1104 1434 l 1,19,-1
 1013 989 l 1,20,-1
 1254 989 l 1,21,-1
 1254 893 l 1,22,-1
 993 893 l 1,23,-1
 922 542 l 1,24,-1
 1172 542 l 1,25,-1
 1172 450 l 1,26,-1
 902 450 l 1,27,-1
 809 0 l 1,0,-1
819 542 m 1,28,-1
 889 893 l 1,29,-1
 552 893 l 1,30,-1
 480 542 l 1,31,-1
 819 542 l 1,28,-1
EndSplineSet
EndChar

StartChar: dollar
Encoding: 36 36 7
Width: 1113
GlyphClass: 1
Flags: W
LayerCount: 2
Fore
SplineSet
598 -247 m 1,0,-1
 513 -247 l 1,1,-1
 513 -12 l 1,2,3
 431 -5 431 -5 360.5 23.5 c 128,-1,4
 290 52 290 52 235 99.5 c 128,-1,5
 180 147 180 147 143.5 213 c 128,-1,6
 107 279 107 279 92 361 c 1,7,-1
 222 400 l 1,8,9
 231 330 231 330 261 276.5 c 128,-1,10
 291 223 291 223 337.5 187 c 128,-1,11
 384 151 384 151 444 132.5 c 128,-1,12
 504 114 504 114 572 114 c 0,13,14
 636 114 636 114 690 129.5 c 128,-1,15
 744 145 744 145 783.5 177.5 c 128,-1,16
 823 210 823 210 845 259.5 c 128,-1,17
 867 309 867 309 867 377 c 0,18,19
 867 416 867 416 857 447.5 c 128,-1,20
 847 479 847 479 828.5 505.5 c 128,-1,21
 810 532 810 532 784.5 554 c 128,-1,22
 759 576 759 576 727 596 c 0,23,24
 665 634 665 634 601 667.5 c 128,-1,25
 537 701 537 701 472 733 c 0,26,27
 415 762 415 762 363.5 792.5 c 128,-1,28
 312 823 312 823 272.5 862.5 c 128,-1,29
 233 902 233 902 209.5 954 c 128,-1,30
 186 1006 186 1006 186 1077 c 0,31,32
 186 1151 186 1151 210.5 1212 c 128,-1,33
 235 1273 235 1273 278.5 1318 c 128,-1,34
 322 1363 322 1363 382 1391.5 c 128,-1,35
 442 1420 442 1420 513 1430 c 1,36,-1
 513 1659 l 1,37,-1
 598 1659 l 1,38,-1
 598 1432 l 1,39,40
 715 1423 715 1423 801 1369.5 c 128,-1,41
 887 1316 887 1316 944 1213 c 1,42,-1
 840 1141 l 1,43,44
 795 1220 795 1220 724 1266 c 128,-1,45
 653 1312 653 1312 560 1312 c 0,46,47
 514 1312 514 1312 471 1296 c 128,-1,48
 428 1280 428 1280 395 1251.5 c 128,-1,49
 362 1223 362 1223 342.5 1182.5 c 128,-1,50
 323 1142 323 1142 323 1094 c 0,51,52
 323 1031 323 1031 352.5 985.5 c 128,-1,53
 382 940 382 940 429.5 904.5 c 128,-1,54
 477 869 477 869 538.5 839.5 c 128,-1,55
 600 810 600 810 663.5 780.5 c 128,-1,56
 727 751 727 751 788.5 716.5 c 128,-1,57
 850 682 850 682 897.5 637 c 128,-1,58
 945 592 945 592 974.5 531.5 c 128,-1,59
 1004 471 1004 471 1004 389 c 0,60,61
 1004 299 1004 299 973.5 226 c 128,-1,62
 943 153 943 153 889 100.5 c 128,-1,63
 835 48 835 48 760.5 18 c 128,-1,64
 686 -12 686 -12 598 -15 c 1,65,-1
 598 -247 l 1,0,-1
EndSplineSet
EndChar

StartChar: percent
Encoding: 37 37 8
Width: 1587
GlyphClass: 1
Flags: W
LayerCount: 2
Fore
SplineSet
383 813 m 0,0,1
 319 813 319 813 273.5 840.5 c 128,-1,2
 228 868 228 868 199 912 c 128,-1,3
 170 956 170 956 156 1011 c 128,-1,4
 142 1066 142 1066 142 1122 c 0,5,6
 142 1176 142 1176 155 1232 c 128,-1,7
 168 1288 168 1288 196 1333.5 c 128,-1,8
 224 1379 224 1379 268.5 1407.5 c 128,-1,9
 313 1436 313 1436 377 1436 c 0,10,11
 440 1436 440 1436 485 1407.5 c 128,-1,12
 530 1379 530 1379 559.5 1333.5 c 128,-1,13
 589 1288 589 1288 603 1232 c 128,-1,14
 617 1176 617 1176 617 1122 c 256,15,16
 617 1068 617 1068 604 1013 c 128,-1,17
 591 958 591 958 562.5 913.5 c 128,-1,18
 534 869 534 869 490 841 c 128,-1,19
 446 813 446 813 383 813 c 0,0,1
471 6 m 1,20,-1
 358 6 l 1,21,-1
 1103 1397 l 1,22,-1
 1216 1397 l 1,23,24
 1029 1047 1029 1047 844 701 c 128,-1,25
 659 355 659 355 471 6 c 1,20,-1
381 895 m 0,26,27
 422 895 422 895 449.5 918.5 c 128,-1,28
 477 942 477 942 493 977 c 128,-1,29
 509 1012 509 1012 515.5 1051.5 c 128,-1,30
 522 1091 522 1091 522 1124 c 256,31,32
 522 1157 522 1157 515 1196.5 c 128,-1,33
 508 1236 508 1236 491 1270.5 c 128,-1,34
 474 1305 474 1305 446 1328 c 128,-1,35
 418 1351 418 1351 377 1351 c 0,36,37
 335 1351 335 1351 306.5 1328 c 128,-1,38
 278 1305 278 1305 261.5 1270.5 c 128,-1,39
 245 1236 245 1236 238 1196 c 128,-1,40
 231 1156 231 1156 231 1122 c 0,41,42
 231 1086 231 1086 238 1046.5 c 128,-1,43
 245 1007 245 1007 262 973 c 128,-1,44
 279 939 279 939 308 917 c 128,-1,45
 337 895 337 895 381 895 c 0,26,27
1212 5 m 0,46,47
 1148 5 1148 5 1102.5 32 c 128,-1,48
 1057 59 1057 59 1028 102.5 c 128,-1,49
 999 146 999 146 985.5 201 c 128,-1,50
 972 256 972 256 972 312 c 0,51,52
 972 366 972 366 985 421.5 c 128,-1,53
 998 477 998 477 1026 522 c 128,-1,54
 1054 567 1054 567 1098.5 595 c 128,-1,55
 1143 623 1143 623 1206 623 c 0,56,57
 1268 623 1268 623 1313.5 594.5 c 128,-1,58
 1359 566 1359 566 1388.5 521 c 128,-1,59
 1418 476 1418 476 1432 420.5 c 128,-1,60
 1446 365 1446 365 1446 311 c 256,61,62
 1446 257 1446 257 1432.5 202.5 c 128,-1,63
 1419 148 1419 148 1390.5 104 c 128,-1,64
 1362 60 1362 60 1318 32.5 c 128,-1,65
 1274 5 1274 5 1212 5 c 0,46,47
1210 88 m 0,66,67
 1251 88 1251 88 1278 111 c 128,-1,68
 1305 134 1305 134 1322 168 c 128,-1,69
 1339 202 1339 202 1346 241.5 c 128,-1,70
 1353 281 1353 281 1353 313 c 0,71,72
 1353 347 1353 347 1346 386.5 c 128,-1,73
 1339 426 1339 426 1321.5 459.5 c 128,-1,74
 1304 493 1304 493 1276 515.5 c 128,-1,75
 1248 538 1248 538 1206 538 c 0,76,77
 1163 538 1163 538 1134.5 515.5 c 128,-1,78
 1106 493 1106 493 1089.5 459.5 c 128,-1,79
 1073 426 1073 426 1066.5 386.5 c 128,-1,80
 1060 347 1060 347 1060 312 c 256,81,82
 1060 277 1060 277 1067.5 237.5 c 128,-1,83
 1075 198 1075 198 1092 165 c 128,-1,84
 1109 132 1109 132 1138 110 c 128,-1,85
 1167 88 1167 88 1210 88 c 0,66,67
EndSplineSet
EndChar

StartChar: ampersand
Encoding: 38 38 9
Width: 1378
GlyphClass: 1
Flags: W
LayerCount: 2
Fore
SplineSet
1178 -50 m 1,0,-1
 977 187 l 1,1,2
 890 79 890 79 778.5 29 c 128,-1,3
 667 -21 667 -21 530 -21 c 0,4,5
 455 -21 455 -21 384 -3.5 c 128,-1,6
 313 14 313 14 258.5 52 c 128,-1,7
 204 90 204 90 171 150 c 128,-1,8
 138 210 138 210 138 295 c 256,9,10
 138 380 138 380 169.5 448.5 c 128,-1,11
 201 517 201 517 251 573 c 128,-1,12
 301 629 301 629 365 675.5 c 128,-1,13
 429 722 429 722 493 764 c 1,14,15
 461 802 461 802 426.5 844.5 c 128,-1,16
 392 887 392 887 363.5 933.5 c 128,-1,17
 335 980 335 980 317 1030 c 128,-1,18
 299 1080 299 1080 299 1133 c 0,19,20
 299 1203 299 1203 326 1258 c 128,-1,21
 353 1313 353 1313 398.5 1351.5 c 128,-1,22
 444 1390 444 1390 504 1410 c 128,-1,23
 564 1430 564 1430 630 1430 c 0,24,25
 694 1430 694 1430 749.5 1407 c 128,-1,26
 805 1384 805 1384 846.5 1343.5 c 128,-1,27
 888 1303 888 1303 911.5 1248 c 128,-1,28
 935 1193 935 1193 935 1128 c 0,29,30
 935 1059 935 1059 909.5 1003 c 128,-1,31
 884 947 884 947 842.5 901 c 128,-1,32
 801 855 801 855 749.5 816.5 c 128,-1,33
 698 778 698 778 646 743 c 1,34,-1
 964 368 l 1,35,36
 999 443 999 443 1018 524 c 128,-1,37
 1037 605 1037 605 1046 688 c 1,38,-1
 1154 676 l 1,39,40
 1145 572 1145 572 1118 471.5 c 128,-1,41
 1091 371 1091 371 1039 280 c 1,42,-1
 1259 21 l 1,43,-1
 1178 -50 l 1,0,-1
578 819 m 1,44,45
 619 844 619 844 665 875 c 128,-1,46
 711 906 711 906 749 944 c 128,-1,47
 787 982 787 982 812 1028 c 128,-1,48
 837 1074 837 1074 837 1128 c 0,49,50
 837 1169 837 1169 820 1204.5 c 128,-1,51
 803 1240 803 1240 774.5 1266 c 128,-1,52
 746 1292 746 1292 709 1307 c 128,-1,53
 672 1322 672 1322 632 1322 c 0,54,55
 589 1322 589 1322 548 1309 c 128,-1,56
 507 1296 507 1296 475 1271 c 128,-1,57
 443 1246 443 1246 424 1209.5 c 128,-1,58
 405 1173 405 1173 405 1126 c 0,59,60
 405 1087 405 1087 423 1045 c 128,-1,61
 441 1003 441 1003 467 962 c 128,-1,62
 493 921 493 921 523.5 884.5 c 128,-1,63
 554 848 554 848 578 819 c 1,44,45
533 94 m 0,64,65
 647 94 647 94 742 136 c 128,-1,66
 837 178 837 178 906 271 c 1,67,-1
 557 684 l 1,68,69
 505 651 505 651 450 612.5 c 128,-1,70
 395 574 395 574 349.5 527.5 c 128,-1,71
 304 481 304 481 274.5 424.5 c 128,-1,72
 245 368 245 368 245 299 c 0,73,74
 245 240 245 240 271.5 200.5 c 128,-1,75
 298 161 298 161 340 137.5 c 128,-1,76
 382 114 382 114 433 104 c 128,-1,77
 484 94 484 94 533 94 c 0,64,65
EndSplineSet
EndChar

StartChar: quotesingle
Encoding: 39 39 10
Width: 605
GlyphClass: 1
Flags: W
LayerCount: 2
Fore
SplineSet
361 1039 m 1,0,-1
 244 1039 l 1,1,-1
 244 1442 l 1,2,-1
 361 1442 l 1,3,-1
 361 1039 l 1,0,-1
EndSplineSet
EndChar

StartChar: parenleft
Encoding: 40 40 11
Width: 559
GlyphClass: 1
Flags: W
LayerCount: 2
Fore
SplineSet
476 -13 m 1,0,-1
 373 -13 l 1,1,2
 316 53 316 53 272 141 c 128,-1,3
 228 229 228 229 197.5 326 c 128,-1,4
 167 423 167 423 151 521.5 c 128,-1,5
 135 620 135 620 135 705 c 0,6,7
 135 798 135 798 150 894.5 c 128,-1,8
 165 991 165 991 194.5 1084 c 128,-1,9
 224 1177 224 1177 268.5 1263.5 c 128,-1,10
 313 1350 313 1350 372 1423 c 1,11,-1
 478 1423 l 1,12,13
 363 1267 363 1267 301.5 1082 c 128,-1,14
 240 897 240 897 240 702 c 0,15,16
 240 610 240 610 255.5 514 c 128,-1,17
 271 418 271 418 301 325.5 c 128,-1,18
 331 233 331 233 375 146.5 c 128,-1,19
 419 60 419 60 476 -13 c 1,0,-1
EndSplineSet
EndChar

StartChar: parenright
Encoding: 41 41 12
Width: 558
GlyphClass: 1
Flags: W
LayerCount: 2
Fore
SplineSet
185 -13 m 1,0,-1
 82 -13 l 1,1,2
 136 59 136 59 179 146.5 c 128,-1,3
 222 234 222 234 253 328 c 128,-1,4
 284 422 284 422 300.5 518 c 128,-1,5
 317 614 317 614 317 704 c 256,6,7
 317 794 317 794 299.5 890.5 c 128,-1,8
 282 987 282 987 251 1080.5 c 128,-1,9
 220 1174 220 1174 176.5 1262 c 128,-1,10
 133 1350 133 1350 80 1423 c 1,11,-1
 185 1423 l 1,12,13
 244 1352 244 1352 288.5 1265.5 c 128,-1,14
 333 1179 333 1179 363 1085.5 c 128,-1,15
 393 992 393 992 408 895.5 c 128,-1,16
 423 799 423 799 423 707 c 0,17,18
 423 623 423 623 407 524 c 128,-1,19
 391 425 391 425 360.5 327 c 128,-1,20
 330 229 330 229 285.5 140 c 128,-1,21
 241 51 241 51 185 -13 c 1,0,-1
EndSplineSet
EndChar

StartChar: asterisk
Encoding: 42 42 13
Width: 863
GlyphClass: 1
Flags: W
LayerCount: 2
Fore
SplineSet
557 855 m 1,0,-1
 430 1094 l 1,1,-1
 304 855 l 1,2,-1
 228 914 l 1,3,-1
 405 1121 l 1,4,-1
 151 1164 l 1,5,-1
 179 1262 l 1,6,-1
 416 1157 l 1,7,-1
 384 1413 l 1,8,-1
 477 1413 l 1,9,-1
 446 1157 l 1,10,-1
 682 1262 l 1,11,-1
 713 1164 l 1,12,-1
 457 1121 l 1,13,-1
 635 914 l 1,14,-1
 557 855 l 1,0,-1
EndSplineSet
EndChar

StartChar: plus
Encoding: 43 43 14
Width: 1270
GlyphClass: 1
Flags: W
LayerCount: 2
Fore
SplineSet
683 106 m 1,0,-1
 586 106 l 1,1,-1
 586 578 l 1,2,-1
 129 578 l 1,3,-1
 129 674 l 1,4,-1
 586 674 l 1,5,-1
 586 1142 l 1,6,-1
 683 1142 l 1,7,-1
 683 674 l 1,8,-1
 1141 674 l 1,9,-1
 1141 578 l 1,10,-1
 683 578 l 1,11,-1
 683 106 l 1,0,-1
EndSplineSet
EndChar

StartChar: comma
Encoding: 44 44 15
Width: 600
GlyphClass: 1
Flags: W
LayerCount: 2
Fore
SplineSet
226 -331 m 1,0,-1
 151 -331 l 1,1,-1
 295 261 l 1,2,-1
 468 261 l 1,3,-1
 226 -331 l 1,0,-1
EndSplineSet
EndChar

StartChar: hyphen
Encoding: 45 45 16
Width: 830
GlyphClass: 1
Flags: W
LayerCount: 2
Fore
SplineSet
664 594 m 1,0,-1
 167 594 l 1,1,-1
 167 690 l 1,2,-1
 664 690 l 1,3,-1
 664 594 l 1,0,-1
EndSplineSet
EndChar

StartChar: period
Encoding: 46 46 17
Width: 600
GlyphClass: 1
Flags: W
LayerCount: 2
Fore
SplineSet
426 0 m 1,0,-1
 240 0 l 1,1,-1
 240 177 l 1,2,-1
 426 177 l 1,3,-1
 426 0 l 1,0,-1
EndSplineSet
EndChar

StartChar: slash
Encoding: 47 47 18
Width: 927
GlyphClass: 1
Flags: W
LayerCount: 2
Fore
SplineSet
158 -431 m 1,0,-1
 22 -431 l 1,1,-1
 771 1516 l 1,2,-1
 905 1516 l 1,3,-1
 158 -431 l 1,0,-1
EndSplineSet
EndChar

StartChar: zero
Encoding: 48 48 19
Width: 1200
GlyphClass: 1
Flags: W
LayerCount: 2
Fore
SplineSet
608 -20 m 0,0,1
 513 -20 513 -20 438 12 c 128,-1,2
 363 44 363 44 306 98.5 c 128,-1,3
 249 153 249 153 209.5 225 c 128,-1,4
 170 297 170 297 145.5 378 c 128,-1,5
 121 459 121 459 109.5 543.5 c 128,-1,6
 98 628 98 628 98 707 c 0,7,8
 98 784 98 784 108.5 867.5 c 128,-1,9
 119 951 119 951 143 1032 c 128,-1,10
 167 1113 167 1113 205.5 1186.5 c 128,-1,11
 244 1260 244 1260 299 1315.5 c 128,-1,12
 354 1371 354 1371 427 1403.5 c 128,-1,13
 500 1436 500 1436 594 1436 c 0,14,15
 687 1436 687 1436 760.5 1403 c 128,-1,16
 834 1370 834 1370 890.5 1314 c 128,-1,17
 947 1258 947 1258 987 1184 c 128,-1,18
 1027 1110 1027 1110 1052 1028.5 c 128,-1,19
 1077 947 1077 947 1089 863 c 128,-1,20
 1101 779 1101 779 1101 702 c 0,21,22
 1101 628 1101 628 1089.5 546 c 128,-1,23
 1078 464 1078 464 1053 383.5 c 128,-1,24
 1028 303 1028 303 989 230 c 128,-1,25
 950 157 950 157 895.5 101.5 c 128,-1,26
 841 46 841 46 769.5 13 c 128,-1,27
 698 -20 698 -20 608 -20 c 0,0,1
602 100 m 0,28,29
 674 100 674 100 728 130 c 128,-1,30
 782 160 782 160 821.5 209.5 c 128,-1,31
 861 259 861 259 887.5 322.5 c 128,-1,32
 914 386 914 386 930 454 c 128,-1,33
 946 522 946 522 952.5 589 c 128,-1,34
 959 656 959 656 959 711 c 0,35,36
 959 767 959 767 952 833.5 c 128,-1,37
 945 900 945 900 928 966.5 c 128,-1,38
 911 1033 911 1033 883.5 1095.5 c 128,-1,39
 856 1158 856 1158 815.5 1205.5 c 128,-1,40
 775 1253 775 1253 720 1282 c 128,-1,41
 665 1311 665 1311 593 1311 c 256,42,43
 521 1311 521 1311 466 1281.5 c 128,-1,44
 411 1252 411 1252 370 1203.5 c 128,-1,45
 329 1155 329 1155 302 1092 c 128,-1,46
 275 1029 275 1029 258 961.5 c 128,-1,47
 241 894 241 894 234 827.5 c 128,-1,48
 227 761 227 761 227 705 c 0,49,50
 227 646 227 646 234 578 c 128,-1,51
 241 510 241 510 258 443 c 128,-1,52
 275 376 275 376 302.5 314 c 128,-1,53
 330 252 330 252 372 204.5 c 128,-1,54
 414 157 414 157 470.5 128.5 c 128,-1,55
 527 100 527 100 602 100 c 0,28,29
EndSplineSet
Substitution2: "'subs' Subscript lookup 22 subtable" uni2080
Substitution2: "'sinf' Scientific Inferiors lookup 21 subtable" uni2080
Substitution2: "'sups' Superscript lookup 19 subtable" uni2070
Substitution2: "'aalt' Access All Alternates lookup 0 subtable" uni2070
EndChar

StartChar: one
Encoding: 49 49 20
Width: 1200
GlyphClass: 1
Flags: W
LayerCount: 2
Fore
SplineSet
749 0 m 1,0,-1
 613 0 l 1,1,-1
 613 1100 l 1,2,-1
 233 1100 l 1,3,-1
 233 1208 l 1,4,-1
 445 1208 l 2,5,6
 503 1208 503 1208 548.5 1234 c 128,-1,7
 594 1260 594 1260 615 1316 c 0,8,9
 624 1339 624 1339 625.5 1363.5 c 128,-1,10
 627 1388 627 1388 627 1413 c 1,11,-1
 749 1413 l 1,12,-1
 749 0 l 1,0,-1
EndSplineSet
Substitution2: "'subs' Subscript lookup 22 subtable" uni2081
Substitution2: "'sinf' Scientific Inferiors lookup 21 subtable" uni2081
Substitution2: "'sups' Superscript lookup 19 subtable" onesuperior
Substitution2: "'aalt' Access All Alternates lookup 0 subtable" onesuperior
EndChar

StartChar: two
Encoding: 50 50 21
Width: 1200
GlyphClass: 1
Flags: W
LayerCount: 2
Fore
SplineSet
1068 0 m 1,0,-1
 112 0 l 1,1,-1
 112 128 l 1,2,3
 240 209 240 209 357 301.5 c 128,-1,4
 474 394 474 394 577 505 c 0,5,6
 628 560 628 560 678.5 619 c 128,-1,7
 729 678 729 678 769 743 c 128,-1,8
 809 808 809 808 834 879.5 c 128,-1,9
 859 951 859 951 859 1030 c 0,10,11
 859 1091 859 1091 842 1142.5 c 128,-1,12
 825 1194 825 1194 792 1231.5 c 128,-1,13
 759 1269 759 1269 710 1290.5 c 128,-1,14
 661 1312 661 1312 598 1312 c 0,15,16
 523 1312 523 1312 468.5 1282.5 c 128,-1,17
 414 1253 414 1253 379 1204.5 c 128,-1,18
 344 1156 344 1156 326.5 1093 c 128,-1,19
 309 1030 309 1030 307 963 c 1,20,-1
 178 977 l 1,21,22
 178 1073 178 1073 205 1156 c 128,-1,23
 232 1239 232 1239 284.5 1300.5 c 128,-1,24
 337 1362 337 1362 414 1397 c 128,-1,25
 491 1432 491 1432 592 1432 c 0,26,27
 684 1432 684 1432 759.5 1404.5 c 128,-1,28
 835 1377 835 1377 888 1325 c 128,-1,29
 941 1273 941 1273 970 1199 c 128,-1,30
 999 1125 999 1125 999 1032 c 0,31,32
 999 937 999 937 970 853.5 c 128,-1,33
 941 770 941 770 893.5 695 c 128,-1,34
 846 620 846 620 785 552 c 128,-1,35
 724 484 724 484 661 421 c 0,36,37
 616 376 616 376 571.5 333 c 128,-1,38
 527 290 527 290 478 250 c 0,39,40
 431 212 431 212 381.5 179.5 c 128,-1,41
 332 147 332 147 284 112 c 1,42,-1
 1068 112 l 1,43,-1
 1068 0 l 1,0,-1
EndSplineSet
Substitution2: "'subs' Subscript lookup 22 subtable" uni2082
Substitution2: "'sinf' Scientific Inferiors lookup 21 subtable" uni2082
Substitution2: "'sups' Superscript lookup 19 subtable" twosuperior
Substitution2: "'aalt' Access All Alternates lookup 0 subtable" twosuperior
EndChar

StartChar: three
Encoding: 51 51 22
Width: 1200
GlyphClass: 1
Flags: W
LayerCount: 2
Fore
SplineSet
577 -20 m 0,0,1
 482 -20 482 -20 397 5 c 128,-1,2
 312 30 312 30 248.5 80.5 c 128,-1,3
 185 131 185 131 148 207.5 c 128,-1,4
 111 284 111 284 111 387 c 1,5,6
 142 390 142 390 172.5 392.5 c 128,-1,7
 203 395 203 395 233 400 c 1,8,9
 233 327 233 327 261.5 270 c 128,-1,10
 290 213 290 213 337.5 174 c 128,-1,11
 385 135 385 135 447.5 115 c 128,-1,12
 510 95 510 95 578 95 c 0,13,14
 644 95 644 95 705.5 115.5 c 128,-1,15
 767 136 767 136 814.5 174.5 c 128,-1,16
 862 213 862 213 890.5 269 c 128,-1,17
 919 325 919 325 919 395 c 0,18,19
 919 496 919 496 869 568 c 128,-1,20
 819 640 819 640 722 672 c 0,21,22
 670 689 670 689 617 689.5 c 128,-1,23
 564 690 564 690 510 690 c 1,24,-1
 510 809 l 1,25,-1
 517 809 l 2,26,27
 518 809 518 809 519 809 c 2,28,-1
 522 809 l 2,29,30
 525 809 525 809 528 809 c 2,31,-1
 531 809 l 2,32,33
 532 809 532 809 534 809 c 2,34,-1
 537 809 l 2,35,36
 539 809 539 809 541 809 c 2,37,-1
 548 809 l 2,38,39
 550 809 550 809 551 809 c 2,40,-1
 554 809 l 2,41,42
 556 809 556 809 557 809 c 2,43,-1
 588 809 l 2,44,45
 591 809 591 809 594 809 c 2,46,-1
 601 809 l 2,47,48
 603 809 603 809 606 809 c 0,49,50
 653 809 653 809 699 827 c 0,51,52
 736 841 736 841 762.5 864.5 c 128,-1,53
 789 888 789 888 806.5 918 c 128,-1,54
 824 948 824 948 832.5 983 c 128,-1,55
 841 1018 841 1018 841 1056 c 0,56,57
 841 1113 841 1113 820.5 1160.5 c 128,-1,58
 800 1208 800 1208 764 1242.5 c 128,-1,59
 728 1277 728 1277 679 1296 c 128,-1,60
 630 1315 630 1315 574 1315 c 256,61,62
 518 1315 518 1315 468.5 1297 c 128,-1,63
 419 1279 419 1279 381.5 1245.5 c 128,-1,64
 344 1212 344 1212 322 1164.5 c 128,-1,65
 300 1117 300 1117 299 1059 c 1,66,-1
 178 1075 l 1,67,68
 178 1161 178 1161 209.5 1227.5 c 128,-1,69
 241 1294 241 1294 294.5 1340 c 128,-1,70
 348 1386 348 1386 420 1410 c 128,-1,71
 492 1434 492 1434 573 1434 c 0,72,73
 651 1434 651 1434 722.5 1409.5 c 128,-1,74
 794 1385 794 1385 848 1339 c 128,-1,75
 902 1293 902 1293 934 1227 c 128,-1,76
 966 1161 966 1161 966 1078 c 0,77,78
 966 974 966 974 922.5 893 c 128,-1,79
 879 812 879 812 788 760 c 1,80,81
 914 718 914 718 978 623.5 c 128,-1,82
 1042 529 1042 529 1042 397 c 0,83,84
 1042 294 1042 294 1006 215.5 c 128,-1,85
 970 137 970 137 907 85 c 128,-1,86
 844 33 844 33 759.5 6.5 c 128,-1,87
 675 -20 675 -20 577 -20 c 0,0,1
EndSplineSet
Substitution2: "'subs' Subscript lookup 22 subtable" uni2083
Substitution2: "'sinf' Scientific Inferiors lookup 21 subtable" uni2083
Substitution2: "'sups' Superscript lookup 19 subtable" threesuperior
Substitution2: "'aalt' Access All Alternates lookup 0 subtable" threesuperior
EndChar

StartChar: four
Encoding: 52 52 23
Width: 1200
GlyphClass: 1
Flags: W
LayerCount: 2
Fore
SplineSet
862 0 m 1,0,-1
 730 0 l 1,1,-1
 730 392 l 1,2,-1
 79 392 l 1,3,-1
 79 468 l 1,4,-1
 737 1413 l 1,5,-1
 862 1413 l 1,6,-1
 862 504 l 1,7,-1
 1085 504 l 1,8,-1
 1085 392 l 1,9,-1
 862 392 l 1,10,-1
 862 0 l 1,0,-1
730 504 m 1,11,-1
 730 1209 l 1,12,-1
 231 504 l 1,13,-1
 730 504 l 1,11,-1
EndSplineSet
Substitution2: "'subs' Subscript lookup 22 subtable" uni2084
Substitution2: "'sinf' Scientific Inferiors lookup 21 subtable" uni2084
Substitution2: "'sups' Superscript lookup 19 subtable" uni2074
Substitution2: "'aalt' Access All Alternates lookup 0 subtable" uni2074
EndChar

StartChar: five
Encoding: 53 53 24
Width: 1200
GlyphClass: 1
Flags: W
LayerCount: 2
Fore
SplineSet
597 -20 m 0,0,1
 509 -20 509 -20 434.5 8 c 128,-1,2
 360 36 360 36 302 87 c 128,-1,3
 244 138 244 138 204.5 208 c 128,-1,4
 165 278 165 278 146 362 c 1,5,-1
 266 405 l 1,6,7
 273 368 273 368 286 330.5 c 128,-1,8
 299 293 299 293 318 258.5 c 128,-1,9
 337 224 337 224 362.5 194 c 128,-1,10
 388 164 388 164 419 142 c 0,11,12
 457 116 457 116 503 106 c 128,-1,13
 549 96 549 96 594 96 c 0,14,15
 672 96 672 96 733 124.5 c 128,-1,16
 794 153 794 153 836.5 202.5 c 128,-1,17
 879 252 879 252 901.5 317.5 c 128,-1,18
 924 383 924 383 924 457 c 0,19,20
 924 527 924 527 903.5 589.5 c 128,-1,21
 883 652 883 652 843.5 698.5 c 128,-1,22
 804 745 804 745 746 772.5 c 128,-1,23
 688 800 688 800 614 800 c 0,24,25
 521 800 521 800 441.5 762 c 128,-1,26
 362 724 362 724 311 644 c 1,27,-1
 196 708 l 1,28,-1
 317 1413 l 1,29,-1
 996 1413 l 1,30,-1
 996 1297 l 1,31,-1
 420 1297 l 1,32,-1
 337 794 l 1,33,34
 397 860 397 860 470.5 886 c 128,-1,35
 544 912 544 912 632 912 c 0,36,37
 728 912 728 912 806.5 875.5 c 128,-1,38
 885 839 885 839 941.5 777 c 128,-1,39
 998 715 998 715 1029 632 c 128,-1,40
 1060 549 1060 549 1060 457 c 0,41,42
 1060 360 1060 360 1025 273 c 128,-1,43
 990 186 990 186 928 121 c 128,-1,44
 866 56 866 56 781 18 c 128,-1,45
 696 -20 696 -20 597 -20 c 0,0,1
EndSplineSet
Substitution2: "'subs' Subscript lookup 22 subtable" uni2085
Substitution2: "'sinf' Scientific Inferiors lookup 21 subtable" uni2085
Substitution2: "'sups' Superscript lookup 19 subtable" uni2075
Substitution2: "'aalt' Access All Alternates lookup 0 subtable" uni2075
EndChar

StartChar: six
Encoding: 54 54 25
Width: 1200
GlyphClass: 1
Flags: W
LayerCount: 2
Fore
SplineSet
592 -20 m 0,0,1
 498 -20 498 -20 416 17 c 128,-1,2
 334 54 334 54 273 117 c 128,-1,3
 212 180 212 180 177 263.5 c 128,-1,4
 142 347 142 347 142 440 c 0,5,6
 142 509 142 509 157.5 568.5 c 128,-1,7
 173 628 173 628 207 688 c 2,8,-1
 619 1413 l 1,9,-1
 762 1413 l 1,10,-1
 451 874 l 1,11,12
 528 891 528 891 603 891 c 0,13,14
 666 891 666 891 727.5 877 c 128,-1,15
 789 863 789 863 843 831 c 0,16,17
 892 802 892 802 931.5 761 c 128,-1,18
 971 720 971 720 998.5 671 c 128,-1,19
 1026 622 1026 622 1040.5 567 c 128,-1,20
 1055 512 1055 512 1055 455 c 0,21,22
 1055 356 1055 356 1020.5 269 c 128,-1,23
 986 182 986 182 924.5 118 c 128,-1,24
 863 54 863 54 778 17 c 128,-1,25
 693 -20 693 -20 592 -20 c 0,0,1
603 100 m 0,26,27
 674 100 674 100 733 129.5 c 128,-1,28
 792 159 792 159 835.5 207.5 c 128,-1,29
 879 256 879 256 903 319.5 c 128,-1,30
 927 383 927 383 927 450 c 0,31,32
 927 520 927 520 902 580 c 128,-1,33
 877 640 877 640 832.5 684.5 c 128,-1,34
 788 729 788 729 728 754.5 c 128,-1,35
 668 780 668 780 598 780 c 0,36,37
 525 780 525 780 465 753.5 c 128,-1,38
 405 727 405 727 362 681.5 c 128,-1,39
 319 636 319 636 295.5 574 c 128,-1,40
 272 512 272 512 272 440 c 0,41,42
 272 371 272 371 297.5 309.5 c 128,-1,43
 323 248 323 248 368 201.5 c 128,-1,44
 413 155 413 155 473.5 127.5 c 128,-1,45
 534 100 534 100 603 100 c 0,26,27
EndSplineSet
Substitution2: "'subs' Subscript lookup 22 subtable" uni2086
Substitution2: "'sinf' Scientific Inferiors lookup 21 subtable" uni2086
Substitution2: "'sups' Superscript lookup 19 subtable" uni2076
Substitution2: "'aalt' Access All Alternates lookup 0 subtable" uni2076
EndChar

StartChar: seven
Encoding: 55 55 26
Width: 1200
GlyphClass: 1
Flags: W
LayerCount: 2
Fore
SplineSet
449 0 m 1,0,-1
 299 0 l 1,1,-1
 902 1296 l 1,2,-1
 134 1296 l 1,3,-1
 134 1413 l 1,4,-1
 1056 1413 l 1,5,-1
 1056 1347 l 1,6,-1
 449 0 l 1,0,-1
EndSplineSet
Substitution2: "'subs' Subscript lookup 22 subtable" uni2087
Substitution2: "'sinf' Scientific Inferiors lookup 21 subtable" uni2087
Substitution2: "'sups' Superscript lookup 19 subtable" uni2077
Substitution2: "'aalt' Access All Alternates lookup 0 subtable" uni2077
EndChar

StartChar: eight
Encoding: 56 56 27
Width: 1200
GlyphClass: 1
Flags: W
LayerCount: 2
Fore
SplineSet
600 -20 m 0,0,1
 506 -20 506 -20 421.5 5 c 128,-1,2
 337 30 337 30 273.5 80.5 c 128,-1,3
 210 131 210 131 172.5 207 c 128,-1,4
 135 283 135 283 135 385 c 0,5,6
 135 524 135 524 202.5 616 c 128,-1,7
 270 708 270 708 395 762 c 1,8,9
 301 813 301 813 253.5 893.5 c 128,-1,10
 206 974 206 974 206 1080 c 0,11,12
 206 1164 206 1164 238 1230 c 128,-1,13
 270 1296 270 1296 324.5 1341.5 c 128,-1,14
 379 1387 379 1387 451 1410.5 c 128,-1,15
 523 1434 523 1434 602 1434 c 0,16,17
 682 1434 682 1434 753 1409.5 c 128,-1,18
 824 1385 824 1385 877 1338.5 c 128,-1,19
 930 1292 930 1292 961 1225.5 c 128,-1,20
 992 1159 992 1159 992 1075 c 0,21,22
 992 972 992 972 945 891.5 c 128,-1,23
 898 811 898 811 807 762 c 1,24,25
 934 709 934 709 998.5 613.5 c 128,-1,26
 1063 518 1063 518 1063 380 c 0,27,28
 1063 279 1063 279 1025.5 204 c 128,-1,29
 988 129 988 129 924.5 79 c 128,-1,30
 861 29 861 29 777 4.5 c 128,-1,31
 693 -20 693 -20 600 -20 c 0,0,1
606 800 m 0,32,33
 662 800 662 800 710 819 c 128,-1,34
 758 838 758 838 793 872 c 128,-1,35
 828 906 828 906 847.5 953 c 128,-1,36
 867 1000 867 1000 867 1057 c 256,37,38
 867 1114 867 1114 847.5 1162.5 c 128,-1,39
 828 1211 828 1211 793 1246 c 128,-1,40
 758 1281 758 1281 709.5 1300.5 c 128,-1,41
 661 1320 661 1320 604 1320 c 0,42,43
 550 1320 550 1320 502 1302 c 128,-1,44
 454 1284 454 1284 418 1251 c 128,-1,45
 382 1218 382 1218 361 1172.5 c 128,-1,46
 340 1127 340 1127 340 1071 c 0,47,48
 340 1010 340 1010 358.5 960 c 128,-1,49
 377 910 377 910 411.5 874.5 c 128,-1,50
 446 839 446 839 495.5 819.5 c 128,-1,51
 545 800 545 800 606 800 c 0,32,33
600 89 m 0,52,53
 669 89 669 89 728.5 110.5 c 128,-1,54
 788 132 788 132 832.5 172 c 128,-1,55
 877 212 877 212 902.5 269 c 128,-1,56
 928 326 928 326 928 397 c 0,57,58
 928 467 928 467 902 524 c 128,-1,59
 876 581 876 581 831.5 621 c 128,-1,60
 787 661 787 661 727.5 682.5 c 128,-1,61
 668 704 668 704 600 704 c 0,62,63
 531 704 531 704 470.5 683 c 128,-1,64
 410 662 410 662 364 622.5 c 128,-1,65
 318 583 318 583 291.5 526 c 128,-1,66
 265 469 265 469 265 397 c 0,67,68
 265 324 265 324 291 266.5 c 128,-1,69
 317 209 317 209 362.5 169.5 c 128,-1,70
 408 130 408 130 469 109.5 c 128,-1,71
 530 89 530 89 600 89 c 0,52,53
EndSplineSet
Substitution2: "'subs' Subscript lookup 22 subtable" uni2088
Substitution2: "'sinf' Scientific Inferiors lookup 21 subtable" uni2088
Substitution2: "'sups' Superscript lookup 19 subtable" uni2078
Substitution2: "'aalt' Access All Alternates lookup 0 subtable" uni2078
EndChar

StartChar: nine
Encoding: 57 57 28
Width: 1200
GlyphClass: 1
Flags: W
LayerCount: 2
Fore
SplineSet
573 0 m 1,0,-1
 432 0 l 1,1,-1
 741 540 l 1,2,3
 669 522 669 522 594 522 c 0,4,5
 461 522 461 522 355.5 577.5 c 128,-1,6
 250 633 250 633 187 753 c 0,7,8
 137 848 137 848 137 958 c 0,9,10
 137 1056 137 1056 171 1143 c 128,-1,11
 205 1230 205 1230 266 1294.5 c 128,-1,12
 327 1359 327 1359 411.5 1396.5 c 128,-1,13
 496 1434 496 1434 596 1434 c 0,14,15
 691 1434 691 1434 773.5 1397 c 128,-1,16
 856 1360 856 1360 917.5 1297 c 128,-1,17
 979 1234 979 1234 1014.5 1150.5 c 128,-1,18
 1050 1067 1050 1067 1050 973 c 0,19,20
 1050 904 1050 904 1035 844.5 c 128,-1,21
 1020 785 1020 785 986 725 c 2,22,-1
 573 0 l 1,0,-1
594 633 m 0,23,24
 667 633 667 633 727 659.5 c 128,-1,25
 787 686 787 686 830 732 c 128,-1,26
 873 778 873 778 896.5 840 c 128,-1,27
 920 902 920 902 920 973 c 0,28,29
 920 1041 920 1041 894.5 1103 c 128,-1,30
 869 1165 869 1165 824 1211.5 c 128,-1,31
 779 1258 779 1258 718.5 1285.5 c 128,-1,32
 658 1313 658 1313 589 1313 c 0,33,34
 518 1313 518 1313 458.5 1283.5 c 128,-1,35
 399 1254 399 1254 356 1205.5 c 128,-1,36
 313 1157 313 1157 289 1093.5 c 128,-1,37
 265 1030 265 1030 265 962 c 0,38,39
 265 892 265 892 290.5 832 c 128,-1,40
 316 772 316 772 360 728 c 128,-1,41
 404 684 404 684 464 658.5 c 128,-1,42
 524 633 524 633 594 633 c 0,23,24
EndSplineSet
Substitution2: "'subs' Subscript lookup 22 subtable" uni2089
Substitution2: "'sinf' Scientific Inferiors lookup 21 subtable" uni2089
Substitution2: "'sups' Superscript lookup 19 subtable" uni2079
Substitution2: "'aalt' Access All Alternates lookup 0 subtable" uni2079
EndChar

StartChar: colon
Encoding: 58 58 29
Width: 600
GlyphClass: 1
Flags: W
LayerCount: 2
Fore
SplineSet
425 776 m 1,0,-1
 246 776 l 1,1,-1
 246 953 l 1,2,-1
 425 953 l 1,3,-1
 425 776 l 1,0,-1
425 0 m 1,4,-1
 246 0 l 1,5,-1
 246 177 l 1,6,-1
 425 177 l 1,7,-1
 425 0 l 1,4,-1
EndSplineSet
EndChar

StartChar: semicolon
Encoding: 59 59 30
Width: 600
GlyphClass: 1
Flags: W
LayerCount: 2
Fore
SplineSet
439 776 m 1,0,-1
 260 776 l 1,1,-1
 260 953 l 1,2,-1
 439 953 l 1,3,-1
 439 776 l 1,0,-1
208 -331 m 1,4,-1
 133 -331 l 1,5,-1
 277 261 l 1,6,-1
 450 261 l 1,7,-1
 208 -331 l 1,4,-1
EndSplineSet
EndChar

StartChar: less
Encoding: 60 60 31
Width: 1208
GlyphClass: 1
Flags: W
LayerCount: 2
Fore
SplineSet
996 174 m 1,0,-1
 117 674 l 1,1,-1
 996 1173 l 1,2,-1
 1056 1070 l 1,3,-1
 332 674 l 1,4,-1
 1056 276 l 1,5,-1
 996 174 l 1,0,-1
EndSplineSet
EndChar

StartChar: equal
Encoding: 61 61 32
Width: 1264
GlyphClass: 1
Flags: W
LayerCount: 2
Fore
SplineSet
1003 780 m 1,0,-1
 260 780 l 1,1,-1
 260 900 l 1,2,-1
 1003 900 l 1,3,-1
 1003 780 l 1,0,-1
1003 443 m 1,4,-1
 260 443 l 1,5,-1
 260 562 l 1,6,-1
 1003 562 l 1,7,-1
 1003 443 l 1,4,-1
EndSplineSet
EndChar

StartChar: greater
Encoding: 62 62 33
Width: 1208
GlyphClass: 1
Flags: W
LayerCount: 2
Fore
SplineSet
211 174 m 1,0,-1
 152 276 l 1,1,-1
 876 674 l 1,2,-1
 152 1070 l 1,3,-1
 211 1173 l 1,4,-1
 1090 674 l 1,5,-1
 211 174 l 1,0,-1
EndSplineSet
EndChar

StartChar: question
Encoding: 63 63 34
Width: 1027
GlyphClass: 1
Flags: W
LayerCount: 2
Fore
SplineSet
565 368 m 1,0,-1
 446 368 l 1,1,-1
 446 612 l 2,2,3
 446 680 446 680 471 721.5 c 128,-1,4
 496 763 496 763 533 791 c 128,-1,5
 570 819 570 819 613.5 841.5 c 128,-1,6
 657 864 657 864 694 893 c 128,-1,7
 731 922 731 922 756 965.5 c 128,-1,8
 781 1009 781 1009 781 1080 c 0,9,10
 781 1141 781 1141 759 1185.5 c 128,-1,11
 737 1230 737 1230 699.5 1259.5 c 128,-1,12
 662 1289 662 1289 612 1303.5 c 128,-1,13
 562 1318 562 1318 506 1318 c 0,14,15
 454 1318 454 1318 404.5 1301.5 c 128,-1,16
 355 1285 355 1285 316.5 1254 c 128,-1,17
 278 1223 278 1223 254.5 1178.5 c 128,-1,18
 231 1134 231 1134 230 1078 c 1,19,-1
 103 1078 l 1,20,-1
 103 1083 l 2,21,22
 103 1164 103 1164 136.5 1228.5 c 128,-1,23
 170 1293 170 1293 225 1339 c 128,-1,24
 280 1385 280 1385 351 1409.5 c 128,-1,25
 422 1434 422 1434 498 1434 c 0,26,27
 579 1434 579 1434 653 1411 c 128,-1,28
 727 1388 727 1388 783.5 1343 c 128,-1,29
 840 1298 840 1298 873 1231.5 c 128,-1,30
 906 1165 906 1165 906 1077 c 0,31,32
 906 1001 906 1001 886.5 951.5 c 128,-1,33
 867 902 867 902 836.5 869.5 c 128,-1,34
 806 837 806 837 768.5 815.5 c 128,-1,35
 731 794 731 794 694.5 774 c 128,-1,36
 658 754 658 754 627 730 c 128,-1,37
 596 706 596 706 578 668 c 0,38,39
 565 642 565 642 565 610 c 2,40,-1
 565 368 l 1,0,-1
598 0 m 1,41,-1
 419 0 l 1,42,-1
 419 177 l 1,43,-1
 598 177 l 1,44,-1
 598 0 l 1,41,-1
EndSplineSet
EndChar

StartChar: at
Encoding: 64 64 35
Width: 2081
GlyphClass: 1
Flags: W
LayerCount: 2
Fore
SplineSet
1033 -349 m 0,0,1
 906 -349 906 -349 792 -320.5 c 128,-1,2
 678 -292 678 -292 581.5 -239 c 128,-1,3
 485 -186 485 -186 407 -109.5 c 128,-1,4
 329 -33 329 -33 274.5 62.5 c 128,-1,5
 220 158 220 158 191 271.5 c 128,-1,6
 162 385 162 385 162 513 c 0,7,8
 162 708 162 708 227 876 c 128,-1,9
 292 1044 292 1044 410 1167.5 c 128,-1,10
 528 1291 528 1291 692 1361.5 c 128,-1,11
 856 1432 856 1432 1054 1432 c 0,12,13
 1243 1432 1243 1432 1402.5 1367 c 128,-1,14
 1562 1302 1562 1302 1678 1186 c 128,-1,15
 1794 1070 1794 1070 1859 910.5 c 128,-1,16
 1924 751 1924 751 1924 562 c 0,17,18
 1924 494 1924 494 1914 422 c 128,-1,19
 1904 350 1904 350 1882 282 c 128,-1,20
 1860 214 1860 214 1825 154 c 128,-1,21
 1790 94 1790 94 1741 49 c 128,-1,22
 1692 4 1692 4 1627 -22 c 128,-1,23
 1562 -48 1562 -48 1481 -48 c 0,24,25
 1426 -48 1426 -48 1377.5 -35 c 128,-1,26
 1329 -22 1329 -22 1293 6 c 128,-1,27
 1257 34 1257 34 1236 77 c 128,-1,28
 1215 120 1215 120 1215 180 c 0,29,30
 1215 194 1215 194 1216.5 209 c 128,-1,31
 1218 224 1218 224 1220 238 c 1,32,33
 1159 157 1159 157 1075.5 114 c 128,-1,34
 992 71 992 71 889 71 c 0,35,36
 810 71 810 71 753 102 c 128,-1,37
 696 133 696 133 659 184.5 c 128,-1,38
 622 236 622 236 604.5 302.5 c 128,-1,39
 587 369 587 369 587 439 c 0,40,41
 587 502 587 502 601 570 c 128,-1,42
 615 638 615 638 642 704 c 128,-1,43
 669 770 669 770 708 829.5 c 128,-1,44
 747 889 747 889 798 934 c 128,-1,45
 849 979 849 979 910.5 1005.5 c 128,-1,46
 972 1032 972 1032 1044 1032 c 0,47,48
 1094 1032 1094 1032 1139 1018.5 c 128,-1,49
 1184 1005 1184 1005 1220 978.5 c 128,-1,50
 1256 952 1256 952 1280.5 913.5 c 128,-1,51
 1305 875 1305 875 1315 824 c 1,52,-1
 1346 983 l 1,53,-1
 1483 983 l 1,54,55
 1463 883 1463 883 1438 784.5 c 128,-1,56
 1413 686 1413 686 1390 586 c 0,57,58
 1370 501 1370 501 1353.5 416.5 c 128,-1,59
 1337 332 1337 332 1337 244 c 0,60,61
 1337 206 1337 206 1343 177.5 c 128,-1,62
 1349 149 1349 149 1365 129.5 c 128,-1,63
 1381 110 1381 110 1407.5 100.5 c 128,-1,64
 1434 91 1434 91 1474 91 c 0,65,66
 1536 91 1536 91 1583.5 112 c 128,-1,67
 1631 133 1631 133 1666.5 169 c 128,-1,68
 1702 205 1702 205 1726 252 c 128,-1,69
 1750 299 1750 299 1765 352 c 128,-1,70
 1780 405 1780 405 1786.5 459.5 c 128,-1,71
 1793 514 1793 514 1793 564 c 0,72,73
 1793 725 1793 725 1738 861 c 128,-1,74
 1683 997 1683 997 1585 1095.5 c 128,-1,75
 1487 1194 1487 1194 1351.5 1249.5 c 128,-1,76
 1216 1305 1216 1305 1054 1305 c 0,77,78
 882 1305 882 1305 741.5 1245 c 128,-1,79
 601 1185 601 1185 501 1079.5 c 128,-1,80
 401 974 401 974 346.5 830 c 128,-1,81
 292 686 292 686 292 517 c 0,82,83
 292 352 292 352 347 217.5 c 128,-1,84
 402 83 402 83 500.5 -12.5 c 128,-1,85
 599 -108 599 -108 735.5 -160 c 128,-1,86
 872 -212 872 -212 1035 -212 c 0,87,88
 1098 -212 1098 -212 1161 -202.5 c 128,-1,89
 1224 -193 1224 -193 1284 -173 c 1,90,91
 1295 -205 1295 -205 1307.5 -236 c 128,-1,92
 1320 -267 1320 -267 1333 -298 c 1,93,94
 1261 -324 1261 -324 1185.5 -336.5 c 128,-1,95
 1110 -349 1110 -349 1033 -349 c 0,0,1
912 207 m 0,96,97
 970 207 970 207 1018.5 227 c 128,-1,98
 1067 247 1067 247 1107 281 c 128,-1,99
 1147 315 1147 315 1177 360.5 c 128,-1,100
 1207 406 1207 406 1227 457.5 c 128,-1,101
 1247 509 1247 509 1257.5 562.5 c 128,-1,102
 1268 616 1268 616 1268 667 c 0,103,104
 1268 717 1268 717 1257 758.5 c 128,-1,105
 1246 800 1246 800 1222.5 831 c 128,-1,106
 1199 862 1199 862 1161 879 c 128,-1,107
 1123 896 1123 896 1069 896 c 0,108,109
 1011 896 1011 896 962 876 c 128,-1,110
 913 856 913 856 873.5 822 c 128,-1,111
 834 788 834 788 803.5 742.5 c 128,-1,112
 773 697 773 697 752.5 646 c 128,-1,113
 732 595 732 595 721.5 541.5 c 128,-1,114
 711 488 711 488 711 437 c 256,115,116
 711 386 711 386 721.5 343.5 c 128,-1,117
 732 301 732 301 756 271 c 128,-1,118
 780 241 780 241 818.5 224 c 128,-1,119
 857 207 857 207 912 207 c 0,96,97
EndSplineSet
EndChar

StartChar: A
Encoding: 65 65 36
Width: 1300
GlyphClass: 1
Flags: W
LayerCount: 2
Fore
SplineSet
1225 0 m 1,0,-1
 1079 0 l 1,1,-1
 971 307 l 1,2,-1
 332 307 l 1,3,-1
 224 0 l 1,4,-1
 75 0 l 1,5,-1
 599 1413 l 1,6,-1
 705 1413 l 1,7,-1
 1225 0 l 1,0,-1
925 435 m 1,8,-1
 653 1213 l 1,9,-1
 377 435 l 1,10,-1
 925 435 l 1,8,-1
EndSplineSet
Substitution2: "Single Substitution lookup 3 subtable" ordfeminine
Substitution2: "Single Substitution lookup 2 subtable" ordfeminine
Position2: "'cpsp' Capital Spacing lookup 0 subtable" dx=5 dy=0 dh=10 dv=0
EndChar

StartChar: B
Encoding: 66 66 37
Width: 1239
GlyphClass: 1
Flags: W
LayerCount: 2
Fore
SplineSet
666 0 m 2,0,-1
 220 0 l 1,1,-1
 220 1413 l 1,2,-1
 590 1413 l 2,3,4
 672 1413 672 1413 753 1395.5 c 128,-1,5
 834 1378 834 1378 898 1337.5 c 128,-1,6
 962 1297 962 1297 1002 1231.5 c 128,-1,7
 1042 1166 1042 1166 1042 1070 c 0,8,9
 1042 958 1042 958 995.5 879 c 128,-1,10
 949 800 949 800 852 746 c 1,11,12
 916 718 916 718 964.5 682.5 c 128,-1,13
 1013 647 1013 647 1046 601.5 c 128,-1,14
 1079 556 1079 556 1095.5 498.5 c 128,-1,15
 1112 441 1112 441 1112 370 c 0,16,17
 1112 269 1112 269 1076 198.5 c 128,-1,18
 1040 128 1040 128 979 84 c 128,-1,19
 918 40 918 40 837 20 c 128,-1,20
 756 0 756 0 666 0 c 2,0,-1
585 779 m 2,21,22
 650 779 650 779 706.5 794.5 c 128,-1,23
 763 810 763 810 804.5 843 c 128,-1,24
 846 876 846 876 870 927 c 128,-1,25
 894 978 894 978 894 1048 c 0,26,27
 894 1120 894 1120 870.5 1166.5 c 128,-1,28
 847 1213 847 1213 806 1241 c 128,-1,29
 765 1269 765 1269 710 1280 c 128,-1,30
 655 1291 655 1291 592 1291 c 2,31,-1
 352 1291 l 1,32,-1
 352 779 l 1,33,-1
 585 779 l 2,21,22
670 125 m 2,34,35
 734 125 734 125 790 137 c 128,-1,36
 846 149 846 149 887.5 178 c 128,-1,37
 929 207 929 207 953 255 c 128,-1,38
 977 303 977 303 977 375 c 0,39,40
 977 449 977 449 956 501.5 c 128,-1,41
 935 554 935 554 896 588.5 c 128,-1,42
 857 623 857 623 801 639 c 128,-1,43
 745 655 745 655 675 655 c 2,44,-1
 352 655 l 1,45,-1
 352 125 l 1,46,-1
 670 125 l 2,34,35
EndSplineSet
Position2: "'cpsp' Capital Spacing lookup 0 subtable" dx=5 dy=0 dh=10 dv=0
EndChar

StartChar: C
Encoding: 67 67 38
Width: 1420
GlyphClass: 1
Flags: W
LayerCount: 2
Fore
SplineSet
760 -20 m 0,0,1
 598 -20 598 -20 480.5 38 c 128,-1,2
 363 96 363 96 286 195.5 c 128,-1,3
 209 295 209 295 172 427 c 128,-1,4
 135 559 135 559 135 707 c 0,5,6
 135 854 135 854 172 986 c 128,-1,7
 209 1118 209 1118 286 1218 c 128,-1,8
 363 1318 363 1318 480.5 1377 c 128,-1,9
 598 1436 598 1436 758 1436 c 0,10,11
 955 1436 955 1436 1098.5 1341.5 c 128,-1,12
 1242 1247 1242 1247 1322 1067 c 1,13,-1
 1198 1012 l 1,14,15
 1175 1089 1175 1089 1131.5 1144.5 c 128,-1,16
 1088 1200 1088 1200 1030 1236 c 128,-1,17
 972 1272 972 1272 902 1289 c 128,-1,18
 832 1306 832 1306 756 1306 c 0,19,20
 627 1306 627 1306 535.5 1257 c 128,-1,21
 444 1208 444 1208 386 1126.5 c 128,-1,22
 328 1045 328 1045 301.5 938.5 c 128,-1,23
 275 832 275 832 275 717 c 0,24,25
 275 600 275 600 300.5 490 c 128,-1,26
 326 380 326 380 384 295 c 128,-1,27
 442 210 442 210 534.5 159 c 128,-1,28
 627 108 627 108 760 108 c 0,29,30
 838 108 838 108 907 126 c 128,-1,31
 976 144 976 144 1032.5 180.5 c 128,-1,32
 1089 217 1089 217 1131.5 273.5 c 128,-1,33
 1174 330 1174 330 1199 406 c 1,34,-1
 1324 350 l 1,35,36
 1285 262 1285 262 1228.5 193 c 128,-1,37
 1172 124 1172 124 1100 77 c 128,-1,38
 1028 30 1028 30 942.5 5 c 128,-1,39
 857 -20 857 -20 760 -20 c 0,0,1
EndSplineSet
Position2: "'cpsp' Capital Spacing lookup 0 subtable" dx=5 dy=0 dh=10 dv=0
EndChar

StartChar: D
Encoding: 68 68 39
Width: 1408
GlyphClass: 1
Flags: W
LayerCount: 2
Fore
SplineSet
567 0 m 2,0,-1
 220 0 l 1,1,-1
 220 1413 l 1,2,-1
 569 1413 l 2,3,4
 741 1413 741 1413 873 1365 c 128,-1,5
 1005 1317 1005 1317 1095 1225 c 128,-1,6
 1185 1133 1185 1133 1231 1000 c 128,-1,7
 1277 867 1277 867 1277 696 c 0,8,9
 1277 527 1277 527 1229 397 c 128,-1,10
 1181 267 1181 267 1089.5 178.5 c 128,-1,11
 998 90 998 90 866.5 45 c 128,-1,12
 735 0 735 0 567 0 c 2,0,-1
543 124 m 2,13,14
 679 124 679 124 789.5 163.5 c 128,-1,15
 900 203 900 203 978 277.5 c 128,-1,16
 1056 352 1056 352 1098 460.5 c 128,-1,17
 1140 569 1140 569 1140 707 c 0,18,19
 1140 847 1140 847 1103 955.5 c 128,-1,20
 1066 1064 1066 1064 993.5 1139 c 128,-1,21
 921 1214 921 1214 813.5 1253 c 128,-1,22
 706 1292 706 1292 565 1292 c 2,23,-1
 357 1292 l 1,24,-1
 357 124 l 1,25,-1
 543 124 l 2,13,14
EndSplineSet
Position2: "'cpsp' Capital Spacing lookup 0 subtable" dx=5 dy=0 dh=10 dv=0
EndChar

StartChar: E
Encoding: 69 69 40
Width: 1240
GlyphClass: 1
Flags: W
LayerCount: 2
Fore
SplineSet
1129 0 m 1,0,-1
 220 0 l 1,1,-1
 220 1413 l 1,2,-1
 1129 1413 l 1,3,-1
 1129 1298 l 1,4,-1
 357 1298 l 1,5,-1
 357 762 l 1,6,-1
 1019 762 l 1,7,-1
 1019 652 l 1,8,-1
 357 652 l 1,9,-1
 357 123 l 1,10,-1
 1129 123 l 1,11,-1
 1129 0 l 1,0,-1
EndSplineSet
Position2: "'cpsp' Capital Spacing lookup 0 subtable" dx=5 dy=0 dh=10 dv=0
EndChar

StartChar: F
Encoding: 70 70 41
Width: 1190
GlyphClass: 1
Flags: W
LayerCount: 2
Fore
SplineSet
357 0 m 1,0,-1
 220 0 l 1,1,-1
 220 1413 l 1,2,-1
 1106 1413 l 1,3,-1
 1106 1298 l 1,4,-1
 357 1298 l 1,5,-1
 357 762 l 1,6,-1
 1018 762 l 1,7,-1
 1018 652 l 1,8,-1
 357 652 l 1,9,-1
 357 0 l 1,0,-1
EndSplineSet
Position2: "'cpsp' Capital Spacing lookup 0 subtable" dx=5 dy=0 dh=10 dv=0
EndChar

StartChar: G
Encoding: 71 71 42
Width: 1507
GlyphClass: 1
Flags: W
LayerCount: 2
Fore
SplineSet
760 -20 m 0,0,1
 598 -20 598 -20 480 38 c 128,-1,2
 362 96 362 96 285.5 195 c 128,-1,3
 209 294 209 294 172 426.5 c 128,-1,4
 135 559 135 559 135 707 c 0,5,6
 135 804 135 804 151.5 895.5 c 128,-1,7
 168 987 168 987 202 1068 c 128,-1,8
 236 1149 236 1149 287 1217 c 128,-1,9
 338 1285 338 1285 407.5 1333.5 c 128,-1,10
 477 1382 477 1382 564.5 1409 c 128,-1,11
 652 1436 652 1436 758 1436 c 0,12,13
 955 1436 955 1436 1098 1341.5 c 128,-1,14
 1241 1247 1241 1247 1322 1067 c 1,15,-1
 1196 1011 l 1,16,17
 1165 1078 1165 1078 1120.5 1132 c 128,-1,18
 1076 1186 1076 1186 1020 1224.5 c 128,-1,19
 964 1263 964 1263 897.5 1283.5 c 128,-1,20
 831 1304 831 1304 756 1304 c 0,21,22
 627 1304 627 1304 534.5 1256 c 128,-1,23
 442 1208 442 1208 383 1127 c 128,-1,24
 324 1046 324 1046 296.5 939.5 c 128,-1,25
 269 833 269 833 269 717 c 0,26,27
 269 638 269 638 280.5 562 c 128,-1,28
 292 486 292 486 317 418.5 c 128,-1,29
 342 351 342 351 380.5 294.5 c 128,-1,30
 419 238 419 238 474 196.5 c 128,-1,31
 529 155 529 155 600 132 c 128,-1,32
 671 109 671 109 760 109 c 0,33,34
 868 109 868 109 952.5 146.5 c 128,-1,35
 1037 184 1037 184 1096 250 c 128,-1,36
 1155 316 1155 316 1186.5 405.5 c 128,-1,37
 1218 495 1218 495 1219 598 c 1,38,-1
 894 598 l 1,39,-1
 894 703 l 1,40,-1
 1345 703 l 1,41,-1
 1345 0 l 1,42,-1
 1231 0 l 1,43,-1
 1233 278 l 1,44,45
 1206 204 1206 204 1157 148 c 128,-1,46
 1108 92 1108 92 1045 54.5 c 128,-1,47
 982 17 982 17 909 -1.5 c 128,-1,48
 836 -20 836 -20 760 -20 c 0,0,1
EndSplineSet
Position2: "'cpsp' Capital Spacing lookup 0 subtable" dx=5 dy=0 dh=10 dv=0
EndChar

StartChar: H
Encoding: 72 72 43
Width: 1450
GlyphClass: 1
Flags: W
LayerCount: 2
Fore
SplineSet
1231 0 m 1,0,-1
 1094 0 l 1,1,-1
 1094 652 l 1,2,-1
 356 652 l 1,3,-1
 356 0 l 1,4,-1
 220 0 l 1,5,-1
 220 1413 l 1,6,-1
 356 1413 l 1,7,-1
 356 762 l 1,8,-1
 1094 762 l 1,9,-1
 1094 1413 l 1,10,-1
 1231 1413 l 1,11,-1
 1231 0 l 1,0,-1
EndSplineSet
Position2: "'cpsp' Capital Spacing lookup 0 subtable" dx=5 dy=0 dh=10 dv=0
EndChar

StartChar: I
Encoding: 73 73 44
Width: 575
GlyphClass: 1
Flags: W
LayerCount: 2
Fore
SplineSet
356 0 m 1,0,-1
 220 0 l 1,1,-1
 220 1413 l 1,2,-1
 356 1413 l 1,3,-1
 356 0 l 1,0,-1
EndSplineSet
Position2: "'cpsp' Capital Spacing lookup 0 subtable" dx=5 dy=0 dh=10 dv=0
EndChar

StartChar: J
Encoding: 74 74 45
Width: 1117
GlyphClass: 1
Flags: W
LayerCount: 2
Fore
SplineSet
512 -20 m 0,0,1
 418 -20 418 -20 341 8 c 128,-1,2
 264 36 264 36 208.5 88.5 c 128,-1,3
 153 141 153 141 120 216 c 128,-1,4
 87 291 87 291 81 385 c 1,5,6
 114 390 114 390 147.5 394 c 128,-1,7
 181 398 181 398 214 403 c 1,8,9
 217 342 217 342 236.5 286.5 c 128,-1,10
 256 231 256 231 292 189 c 128,-1,11
 328 147 328 147 379 122 c 128,-1,12
 430 97 430 97 496 97 c 0,13,14
 585 97 585 97 641 127.5 c 128,-1,15
 697 158 697 158 728.5 210 c 128,-1,16
 760 262 760 262 771.5 330 c 128,-1,17
 783 398 783 398 783 474 c 2,18,-1
 783 1413 l 1,19,-1
 920 1413 l 1,20,-1
 920 500 l 2,21,22
 920 399 920 399 900 305 c 128,-1,23
 880 211 880 211 832.5 139 c 128,-1,24
 785 67 785 67 706.5 23.5 c 128,-1,25
 628 -20 628 -20 512 -20 c 0,0,1
EndSplineSet
Position2: "'cpsp' Capital Spacing lookup 0 subtable" dx=5 dy=0 dh=10 dv=0
EndChar

StartChar: K
Encoding: 75 75 46
Width: 1447
GlyphClass: 1
Flags: W
LayerCount: 2
Fore
SplineSet
1367 0 m 1,0,-1
 1204 0 l 1,1,-1
 712 761 l 1,2,-1
 357 394 l 1,3,-1
 357 0 l 1,4,-1
 220 0 l 1,5,-1
 220 1413 l 1,6,-1
 357 1413 l 1,7,-1
 357 566 l 1,8,-1
 1156 1413 l 1,9,-1
 1333 1413 l 1,10,-1
 806 861 l 1,11,-1
 1367 0 l 1,0,-1
EndSplineSet
Position2: "'cpsp' Capital Spacing lookup 0 subtable" dx=5 dy=0 dh=10 dv=0
EndChar

StartChar: L
Encoding: 76 76 47
Width: 1033
GlyphClass: 1
Flags: W
LayerCount: 2
Fore
SplineSet
962 0 m 1,0,-1
 220 0 l 1,1,-1
 220 1413 l 1,2,-1
 357 1413 l 1,3,-1
 357 123 l 1,4,-1
 962 123 l 1,5,-1
 962 0 l 1,0,-1
EndSplineSet
Position2: "'cpsp' Capital Spacing lookup 0 subtable" dx=5 dy=0 dh=10 dv=0
EndChar

StartChar: M
Encoding: 77 77 48
Width: 1758
GlyphClass: 1
Flags: W
LayerCount: 2
Fore
SplineSet
1539 0 m 1,0,-1
 1402 0 l 1,1,-1
 1402 1305 l 1,2,-1
 957 123 l 1,3,-1
 801 123 l 1,4,-1
 358 1305 l 1,5,-1
 358 0 l 1,6,-1
 220 0 l 1,7,-1
 220 1413 l 1,8,-1
 449 1413 l 1,9,-1
 875 246 l 1,10,-1
 1309 1413 l 1,11,-1
 1539 1413 l 1,12,-1
 1539 0 l 1,0,-1
EndSplineSet
Position2: "'cpsp' Capital Spacing lookup 0 subtable" dx=5 dy=0 dh=10 dv=0
EndChar

StartChar: N
Encoding: 78 78 49
Width: 1413
GlyphClass: 1
Flags: W
LayerCount: 2
Fore
SplineSet
1194 0 m 1,0,-1
 978 0 l 1,1,-1
 358 1282 l 1,2,-1
 358 0 l 1,3,-1
 220 0 l 1,4,-1
 220 1413 l 1,5,-1
 432 1413 l 1,6,-1
 1057 132 l 1,7,-1
 1057 1413 l 1,8,-1
 1194 1413 l 1,9,-1
 1194 0 l 1,0,-1
EndSplineSet
Position2: "'cpsp' Capital Spacing lookup 0 subtable" dx=5 dy=0 dh=10 dv=0
EndChar

StartChar: O
Encoding: 79 79 50
Width: 1468
GlyphClass: 1
Flags: W
LayerCount: 2
Fore
SplineSet
758 -20 m 256,0,1
 651 -20 651 -20 563 6.5 c 128,-1,2
 475 33 475 33 405.5 81 c 128,-1,3
 336 129 336 129 285 196 c 128,-1,4
 234 263 234 263 200.5 344 c 128,-1,5
 167 425 167 425 150.5 517 c 128,-1,6
 134 609 134 609 134 707 c 0,7,8
 134 853 134 853 172 985 c 128,-1,9
 210 1117 210 1117 287 1217 c 128,-1,10
 364 1317 364 1317 481.5 1376 c 128,-1,11
 599 1435 599 1435 759 1435 c 256,12,13
 919 1435 919 1435 1036.5 1376 c 128,-1,14
 1154 1317 1154 1317 1231 1217 c 128,-1,15
 1308 1117 1308 1117 1345.5 985 c 128,-1,16
 1383 853 1383 853 1383 707 c 0,17,18
 1383 609 1383 609 1366.5 517 c 128,-1,19
 1350 425 1350 425 1316.5 344 c 128,-1,20
 1283 263 1283 263 1231.5 196 c 128,-1,21
 1180 129 1180 129 1110.5 81 c 128,-1,22
 1041 33 1041 33 953 6.5 c 128,-1,23
 865 -20 865 -20 758 -20 c 256,0,1
758 108 m 0,24,25
 890 108 890 108 983 158.5 c 128,-1,26
 1076 209 1076 209 1134 293 c 128,-1,27
 1192 377 1192 377 1218.5 486 c 128,-1,28
 1245 595 1245 595 1245 712 c 256,29,30
 1245 829 1245 829 1217.5 936.5 c 128,-1,31
 1190 1044 1190 1044 1131 1125.5 c 128,-1,32
 1072 1207 1072 1207 979.5 1256 c 128,-1,33
 887 1305 887 1305 756 1305 c 0,34,35
 626 1305 626 1305 534.5 1255.5 c 128,-1,36
 443 1206 443 1206 385 1124 c 128,-1,37
 327 1042 327 1042 300 935 c 128,-1,38
 273 828 273 828 273 712 c 0,39,40
 273 634 273 634 284.5 559 c 128,-1,41
 296 484 296 484 320.5 417 c 128,-1,42
 345 350 345 350 383.5 293.5 c 128,-1,43
 422 237 422 237 476 195.5 c 128,-1,44
 530 154 530 154 600 131 c 128,-1,45
 670 108 670 108 758 108 c 0,24,25
EndSplineSet
Substitution2: "Single Substitution lookup 3 subtable" ordmasculine
Substitution2: "Single Substitution lookup 2 subtable" ordmasculine
Position2: "'cpsp' Capital Spacing lookup 0 subtable" dx=5 dy=0 dh=10 dv=0
EndChar

StartChar: P
Encoding: 80 80 51
Width: 1146
GlyphClass: 1
Flags: W
LayerCount: 2
Fore
SplineSet
356 0 m 1,0,-1
 220 0 l 1,1,-1
 220 1413 l 1,2,-1
 606 1413 l 2,3,4
 696 1413 696 1413 776 1389.5 c 128,-1,5
 856 1366 856 1366 916.5 1318 c 128,-1,6
 977 1270 977 1270 1012.5 1198 c 128,-1,7
 1048 1126 1048 1126 1048 1029 c 0,8,9
 1048 946 1048 946 1023.5 881 c 128,-1,10
 999 816 999 816 953.5 769.5 c 128,-1,11
 908 723 908 723 843.5 694.5 c 128,-1,12
 779 666 779 666 699 656 c 0,13,14
 660 651 660 651 616.5 649.5 c 128,-1,15
 573 648 573 648 529 648 c 0,16,17
 484 648 484 648 440 649 c 128,-1,18
 396 650 396 650 356 650 c 1,19,-1
 356 0 l 1,0,-1
606 768 m 2,20,21
 671 768 671 768 727.5 782 c 128,-1,22
 784 796 784 796 825 827 c 128,-1,23
 866 858 866 858 889.5 907.5 c 128,-1,24
 913 957 913 957 913 1029 c 0,25,26
 913 1098 913 1098 889 1148 c 128,-1,27
 865 1198 865 1198 823 1230.5 c 128,-1,28
 781 1263 781 1263 725 1278.5 c 128,-1,29
 669 1294 669 1294 606 1294 c 2,30,-1
 356 1294 l 1,31,-1
 356 768 l 1,32,-1
 606 768 l 2,20,21
EndSplineSet
Position2: "'cpsp' Capital Spacing lookup 0 subtable" dx=5 dy=0 dh=10 dv=0
EndChar

StartChar: Q
Encoding: 81 81 52
Width: 1543
GlyphClass: 1
Flags: W
LayerCount: 2
Fore
SplineSet
1336 -93 m 1,0,-1
 1145 105 l 1,1,2
 1062 36 1062 36 963 8 c 128,-1,3
 864 -20 864 -20 758 -20 c 0,4,5
 651 -20 651 -20 563 6.5 c 128,-1,6
 475 33 475 33 405.5 81 c 128,-1,7
 336 129 336 129 285 196 c 128,-1,8
 234 263 234 263 200.5 344 c 128,-1,9
 167 425 167 425 150.5 517 c 128,-1,10
 134 609 134 609 134 707 c 0,11,12
 134 854 134 854 171.5 986.5 c 128,-1,13
 209 1119 209 1119 286 1218.5 c 128,-1,14
 363 1318 363 1318 481 1376.5 c 128,-1,15
 599 1435 599 1435 759 1435 c 256,16,17
 919 1435 919 1435 1036.5 1376 c 128,-1,18
 1154 1317 1154 1317 1231 1217 c 128,-1,19
 1308 1117 1308 1117 1345.5 985 c 128,-1,20
 1383 853 1383 853 1383 706 c 0,21,22
 1383 637 1383 637 1375 568.5 c 128,-1,23
 1367 500 1367 500 1348.5 434.5 c 128,-1,24
 1330 369 1330 369 1300.5 307.5 c 128,-1,25
 1271 246 1271 246 1228 191 c 1,26,-1
 1420 -6 l 1,27,-1
 1336 -93 l 1,0,-1
758 107 m 0,28,29
 838 107 838 107 912 128 c 128,-1,30
 986 149 986 149 1049 200 c 1,31,-1
 851 404 l 1,32,-1
 931 493 l 1,33,-1
 1131 288 l 1,34,35
 1195 382 1195 382 1218.5 491 c 128,-1,36
 1242 600 1242 600 1242 712 c 0,37,38
 1242 828 1242 828 1215.5 935 c 128,-1,39
 1189 1042 1189 1042 1131.5 1124.5 c 128,-1,40
 1074 1207 1074 1207 982.5 1256.5 c 128,-1,41
 891 1306 891 1306 760 1306 c 256,42,43
 629 1306 629 1306 537 1257 c 128,-1,44
 445 1208 445 1208 386.5 1125.5 c 128,-1,45
 328 1043 328 1043 301.5 936 c 128,-1,46
 275 829 275 829 275 712 c 0,47,48
 275 634 275 634 286.5 559 c 128,-1,49
 298 484 298 484 322 417 c 128,-1,50
 346 350 346 350 384 293 c 128,-1,51
 422 236 422 236 476 194.5 c 128,-1,52
 530 153 530 153 600 130 c 128,-1,53
 670 107 670 107 758 107 c 0,28,29
EndSplineSet
Position2: "'cpsp' Capital Spacing lookup 0 subtable" dx=5 dy=0 dh=10 dv=0
EndChar

StartChar: R
Encoding: 82 82 53
Width: 1212
GlyphClass: 1
Flags: W
LayerCount: 2
Fore
SplineSet
1121 -2 m 1,0,-1
 959 -2 l 1,1,-1
 604 639 l 1,2,-1
 357 639 l 1,3,-1
 357 -2 l 1,4,-1
 220 -2 l 1,5,-1
 220 1411 l 1,6,-1
 612 1411 l 2,7,8
 700 1411 700 1411 778.5 1385.5 c 128,-1,9
 857 1360 857 1360 916.5 1310.5 c 128,-1,10
 976 1261 976 1261 1011 1188.5 c 128,-1,11
 1046 1116 1046 1116 1046 1023 c 0,12,13
 1046 953 1046 953 1024 891.5 c 128,-1,14
 1002 830 1002 830 962 782.5 c 128,-1,15
 922 735 922 735 865 703 c 128,-1,16
 808 671 808 671 739 659 c 1,17,-1
 1121 -2 l 1,0,-1
639 770 m 2,18,19
 695 770 695 770 745 788 c 128,-1,20
 795 806 795 806 832.5 839 c 128,-1,21
 870 872 870 872 891.5 919.5 c 128,-1,22
 913 967 913 967 913 1025 c 0,23,24
 913 1090 913 1090 889 1140 c 128,-1,25
 865 1190 865 1190 824.5 1223.5 c 128,-1,26
 784 1257 784 1257 729.5 1274 c 128,-1,27
 675 1291 675 1291 614 1291 c 2,28,-1
 359 1291 l 1,29,-1
 359 770 l 1,30,-1
 639 770 l 2,18,19
EndSplineSet
Position2: "'cpsp' Capital Spacing lookup 0 subtable" dx=5 dy=0 dh=10 dv=0
EndChar

StartChar: S
Encoding: 83 83 54
Width: 1107
GlyphClass: 1
Flags: W
LayerCount: 2
Fore
SplineSet
569 -16 m 0,0,1
 482 -16 482 -16 402 7.5 c 128,-1,2
 322 31 322 31 258 77.5 c 128,-1,3
 194 124 194 124 150.5 193 c 128,-1,4
 107 262 107 262 92 352 c 1,5,-1
 217 391 l 1,6,7
 225 322 225 322 256 268.5 c 128,-1,8
 287 215 287 215 334.5 178.5 c 128,-1,9
 382 142 382 142 442.5 123.5 c 128,-1,10
 503 105 503 105 569 105 c 256,11,12
 635 105 635 105 690 121 c 128,-1,13
 745 137 745 137 784 170 c 128,-1,14
 823 203 823 203 845 254 c 128,-1,15
 867 305 867 305 867 375 c 0,16,17
 867 442 867 442 837.5 490.5 c 128,-1,18
 808 539 808 539 760.5 577 c 128,-1,19
 713 615 713 615 651.5 645.5 c 128,-1,20
 590 676 590 676 526.5 706 c 128,-1,21
 463 736 463 736 401.5 769.5 c 128,-1,22
 340 803 340 803 292.5 846.5 c 128,-1,23
 245 890 245 890 215.5 947.5 c 128,-1,24
 186 1005 186 1005 186 1083 c 256,25,26
 186 1161 186 1161 215.5 1226 c 128,-1,27
 245 1291 245 1291 295.5 1337 c 128,-1,28
 346 1383 346 1383 413.5 1408.5 c 128,-1,29
 481 1434 481 1434 557 1434 c 0,30,31
 682 1434 682 1434 778.5 1381 c 128,-1,32
 875 1328 875 1328 940 1221 c 1,33,-1
 842 1153 l 1,34,35
 797 1234 797 1234 722.5 1276 c 128,-1,36
 648 1318 648 1318 556 1318 c 0,37,38
 508 1318 508 1318 464.5 1302.5 c 128,-1,39
 421 1287 421 1287 388.5 1258 c 128,-1,40
 356 1229 356 1229 336.5 1188 c 128,-1,41
 317 1147 317 1147 317 1097 c 0,42,43
 317 1034 317 1034 346.5 988 c 128,-1,44
 376 942 376 942 424 906 c 128,-1,45
 472 870 472 870 533 840.5 c 128,-1,46
 594 811 594 811 658 780.5 c 128,-1,47
 722 750 722 750 783 715.5 c 128,-1,48
 844 681 844 681 892 635.5 c 128,-1,49
 940 590 940 590 969.5 529 c 128,-1,50
 999 468 999 468 999 385 c 0,51,52
 999 292 999 292 965.5 217.5 c 128,-1,53
 932 143 932 143 873.5 91 c 128,-1,54
 815 39 815 39 737 11.5 c 128,-1,55
 659 -16 659 -16 569 -16 c 0,0,1
EndSplineSet
Position2: "'cpsp' Capital Spacing lookup 0 subtable" dx=5 dy=0 dh=10 dv=0
EndChar

StartChar: T
Encoding: 84 84 55
Width: 1247
GlyphClass: 1
Flags: W
LayerCount: 2
Fore
SplineSet
693 0 m 1,0,-1
 554 0 l 1,1,-1
 554 1305 l 1,2,-1
 69 1305 l 1,3,-1
 69 1413 l 1,4,-1
 1178 1413 l 1,5,-1
 1178 1305 l 1,6,-1
 693 1305 l 1,7,-1
 693 0 l 1,0,-1
EndSplineSet
Position2: "'cpsp' Capital Spacing lookup 0 subtable" dx=5 dy=0 dh=10 dv=0
EndChar

StartChar: U
Encoding: 85 85 56
Width: 1350
GlyphClass: 1
Flags: W
LayerCount: 2
Fore
SplineSet
674 -20 m 256,0,1
 553 -20 553 -20 463 20 c 128,-1,2
 373 60 373 60 313 131.5 c 128,-1,3
 253 203 253 203 223 300 c 128,-1,4
 193 397 193 397 193 511 c 2,5,-1
 193 1413 l 1,6,-1
 330 1413 l 1,7,-1
 330 559 l 2,8,9
 330 471 330 471 345 389.5 c 128,-1,10
 360 308 360 308 399 245 c 128,-1,11
 438 182 438 182 504.5 144.5 c 128,-1,12
 571 107 571 107 674 107 c 256,13,14
 777 107 777 107 844.5 144.5 c 128,-1,15
 912 182 912 182 951.5 244.5 c 128,-1,16
 991 307 991 307 1006.5 389 c 128,-1,17
 1022 471 1022 471 1022 559 c 2,18,-1
 1022 1413 l 1,19,-1
 1158 1413 l 1,20,-1
 1158 521 l 2,21,22
 1158 407 1158 407 1128 308.5 c 128,-1,23
 1098 210 1098 210 1037.5 137 c 128,-1,24
 977 64 977 64 886 22 c 128,-1,25
 795 -20 795 -20 674 -20 c 256,0,1
EndSplineSet
Position2: "'cpsp' Capital Spacing lookup 0 subtable" dx=5 dy=0 dh=10 dv=0
EndChar

StartChar: V
Encoding: 86 86 57
Width: 1322
GlyphClass: 1
Flags: W
LayerCount: 2
Fore
SplineSet
725 0 m 1,0,-1
 601 0 l 1,1,-1
 75 1413 l 1,2,-1
 220 1413 l 1,3,-1
 663 168 l 1,4,-1
 1106 1413 l 1,5,-1
 1247 1413 l 1,6,-1
 725 0 l 1,0,-1
EndSplineSet
Position2: "'cpsp' Capital Spacing lookup 0 subtable" dx=5 dy=0 dh=10 dv=0
EndChar

StartChar: W
Encoding: 87 87 58
Width: 1971
GlyphClass: 1
Flags: W
LayerCount: 2
Fore
SplineSet
1493 0 m 1,0,-1
 1331 0 l 1,1,-1
 987 1188 l 1,2,-1
 640 0 l 1,3,-1
 477 0 l 1,4,-1
 86 1413 l 1,5,-1
 224 1413 l 1,6,-1
 569 156 l 1,7,-1
 930 1413 l 1,8,-1
 1041 1413 l 1,9,-1
 1404 156 l 1,10,-1
 1746 1413 l 1,11,-1
 1886 1413 l 1,12,-1
 1493 0 l 1,0,-1
EndSplineSet
Position2: "'cpsp' Capital Spacing lookup 0 subtable" dx=5 dy=0 dh=10 dv=0
EndChar

StartChar: X
Encoding: 88 88 59
Width: 1245
GlyphClass: 1
Flags: W
LayerCount: 2
Fore
SplineSet
1160 0 m 1,0,-1
 1003 0 l 1,1,-1
 621 586 l 1,2,-1
 246 0 l 1,3,-1
 84 0 l 1,4,-1
 552 707 l 1,5,-1
 86 1413 l 1,6,-1
 248 1413 l 1,7,-1
 624 816 l 1,8,-1
 1001 1413 l 1,9,-1
 1158 1413 l 1,10,-1
 697 707 l 1,11,-1
 1160 0 l 1,0,-1
EndSplineSet
Position2: "'cpsp' Capital Spacing lookup 0 subtable" dx=5 dy=0 dh=10 dv=0
EndChar

StartChar: Y
Encoding: 89 89 60
Width: 1317
GlyphClass: 1
Flags: W
LayerCount: 2
Fore
SplineSet
725 0 m 1,0,-1
 594 0 l 1,1,-1
 594 553 l 1,2,-1
 65 1413 l 1,3,-1
 223 1413 l 1,4,-1
 658 694 l 1,5,-1
 1095 1413 l 1,6,-1
 1252 1413 l 1,7,-1
 725 553 l 1,8,-1
 725 0 l 1,0,-1
EndSplineSet
Position2: "'cpsp' Capital Spacing lookup 0 subtable" dx=5 dy=0 dh=10 dv=0
EndChar

StartChar: Z
Encoding: 90 90 61
Width: 1276
GlyphClass: 1
Flags: W
LayerCount: 2
Fore
SplineSet
1171 0 m 1,0,-1
 94 0 l 1,1,-1
 94 111 l 1,2,-1
 1014 1298 l 1,3,-1
 139 1298 l 1,4,-1
 139 1413 l 1,5,-1
 1171 1413 l 1,6,-1
 1171 1295 l 1,7,-1
 255 124 l 1,8,-1
 1171 124 l 1,9,-1
 1171 0 l 1,0,-1
EndSplineSet
Position2: "'cpsp' Capital Spacing lookup 0 subtable" dx=5 dy=0 dh=10 dv=0
EndChar

StartChar: bracketleft
Encoding: 91 91 62
Width: 633
GlyphClass: 1
Flags: W
LayerCount: 2
Fore
SplineSet
557 -79 m 1,0,-1
 211 -79 l 1,1,-1
 211 1490 l 1,2,-1
 557 1490 l 1,3,-1
 557 1416 l 1,4,-1
 320 1416 l 1,5,-1
 320 -3 l 1,6,-1
 557 -3 l 1,7,-1
 557 -79 l 1,0,-1
EndSplineSet
EndChar

StartChar: backslash
Encoding: 92 92 63
Width: 927
GlyphClass: 1
Flags: W
LayerCount: 2
Fore
SplineSet
905 -431 m 1,0,-1
 771 -431 l 1,1,-1
 22 1516 l 1,2,-1
 158 1516 l 1,3,-1
 905 -431 l 1,0,-1
EndSplineSet
EndChar

StartChar: bracketright
Encoding: 93 93 64
Width: 632
GlyphClass: 1
Flags: W
LayerCount: 2
Fore
SplineSet
420 -79 m 1,0,-1
 75 -79 l 1,1,-1
 75 -3 l 1,2,-1
 311 -3 l 1,3,-1
 311 1416 l 1,4,-1
 75 1416 l 1,5,-1
 75 1490 l 1,6,-1
 420 1490 l 1,7,-1
 420 -79 l 1,0,-1
EndSplineSet
EndChar

StartChar: asciicircum
Encoding: 94 94 65
Width: 975
GlyphClass: 1
Flags: W
LayerCount: 2
Fore
SplineSet
838 848 m 1,0,-1
 700 848 l 1,1,-1
 486 1190 l 1,2,-1
 277 848 l 1,3,-1
 139 848 l 1,4,-1
 486 1412 l 1,5,-1
 838 848 l 1,0,-1
EndSplineSet
EndChar

StartChar: underscore
Encoding: 95 95 66
Width: 1236
GlyphClass: 1
Flags: W
LayerCount: 2
Fore
SplineSet
999 -100 m 1,0,-1
 236 -100 l 1,1,-1
 236 -3 l 1,2,-1
 999 -3 l 1,3,-1
 999 -100 l 1,0,-1
EndSplineSet
EndChar

StartChar: grave
Encoding: 96 96 67
Width: 537
GlyphClass: 1
Flags: W
LayerCount: 2
Fore
SplineSet
455 1125 m 1,0,-1
 324 1125 l 1,1,-1
 66 1413 l 1,2,-1
 241 1413 l 1,3,-1
 455 1125 l 1,0,-1
EndSplineSet
EndChar

StartChar: a
Encoding: 97 97 68
Width: 1041
GlyphClass: 1
Flags: W
LayerCount: 2
Fore
SplineSet
412 -20 m 0,0,1
 342 -20 342 -20 282.5 -0.5 c 128,-1,2
 223 19 223 19 179 57.5 c 128,-1,3
 135 96 135 96 110 152 c 128,-1,4
 85 208 85 208 85 281 c 0,5,6
 85 346 85 346 105 394 c 128,-1,7
 125 442 125 442 159 476 c 128,-1,8
 193 510 193 510 239 531 c 128,-1,9
 285 552 285 552 336 564.5 c 128,-1,10
 387 577 387 577 441.5 581.5 c 128,-1,11
 496 586 496 586 548 586 c 2,12,-1
 781 586 l 1,13,14
 781 655 781 655 769.5 720 c 128,-1,15
 758 785 758 785 728 835 c 128,-1,16
 698 885 698 885 646 915.5 c 128,-1,17
 594 946 594 946 512 946 c 0,18,19
 419 946 419 946 342.5 906 c 128,-1,20
 266 866 266 866 214 789 c 1,21,-1
 123 865 l 1,22,23
 192 962 192 962 287.5 1009 c 128,-1,24
 383 1056 383 1056 501 1056 c 0,25,26
 598 1056 598 1056 671.5 1026 c 128,-1,27
 745 996 745 996 794.5 941.5 c 128,-1,28
 844 887 844 887 869.5 810 c 128,-1,29
 895 733 895 733 895 639 c 2,30,-1
 895 0 l 1,31,-1
 786 0 l 1,32,-1
 785 144 l 1,33,-1
 786 216 l 1,34,35
 731 100 731 100 635.5 40 c 128,-1,36
 540 -20 540 -20 412 -20 c 0,0,1
424 86 m 0,37,38
 504 86 504 86 569.5 120.5 c 128,-1,39
 635 155 635 155 682 212 c 128,-1,40
 729 269 729 269 755 341 c 128,-1,41
 781 413 781 413 781 488 c 1,42,-1
 578 488 l 2,43,44
 541 488 541 488 499.5 486.5 c 128,-1,45
 458 485 458 485 418 478 c 128,-1,46
 378 471 378 471 341.5 458 c 128,-1,47
 305 445 305 445 277.5 421.5 c 128,-1,48
 250 398 250 398 233.5 363 c 128,-1,49
 217 328 217 328 217 278 c 0,50,51
 217 230 217 230 232 194 c 128,-1,52
 247 158 247 158 274.5 134 c 128,-1,53
 302 110 302 110 340 98 c 128,-1,54
 378 86 378 86 424 86 c 0,37,38
EndSplineSet
Substitution2: "Single Substitution lookup 3 subtable" ordfeminine
Substitution2: "Single Substitution lookup 2 subtable" ordfeminine
EndChar

StartChar: b
Encoding: 98 98 69
Width: 1144
GlyphClass: 1
Flags: W
LayerCount: 2
Fore
SplineSet
638 -20 m 0,0,1
 533 -20 533 -20 450.5 20.5 c 128,-1,2
 368 61 368 61 309 150 c 1,3,-1
 309 0 l 1,4,-1
 184 0 l 1,5,-1
 184 1413 l 1,6,-1
 309 1413 l 1,7,-1
 309 889 l 1,8,9
 427 1062 427 1062 638 1062 c 0,10,11
 711 1062 711 1062 769.5 1039 c 128,-1,12
 828 1016 828 1016 873.5 976.5 c 128,-1,13
 919 937 919 937 952 884 c 128,-1,14
 985 831 985 831 1006 771 c 128,-1,15
 1027 711 1027 711 1037 646.5 c 128,-1,16
 1047 582 1047 582 1047 519 c 256,17,18
 1047 456 1047 456 1037 392 c 128,-1,19
 1027 328 1027 328 1006 268 c 128,-1,20
 985 208 985 208 952.5 155.5 c 128,-1,21
 920 103 920 103 874.5 64 c 128,-1,22
 829 25 829 25 770 2.5 c 128,-1,23
 711 -20 711 -20 638 -20 c 0,0,1
605 89 m 0,24,25
 663 89 663 89 708.5 107 c 128,-1,26
 754 125 754 125 789.5 156.5 c 128,-1,27
 825 188 825 188 850 230.5 c 128,-1,28
 875 273 875 273 890.5 320.5 c 128,-1,29
 906 368 906 368 913.5 419 c 128,-1,30
 921 470 921 470 921 519 c 0,31,32
 921 594 921 594 904 671 c 128,-1,33
 887 748 887 748 849 810 c 128,-1,34
 811 872 811 872 750 911.5 c 128,-1,35
 689 951 689 951 601 951 c 0,36,37
 544 951 544 951 499 932 c 128,-1,38
 454 913 454 913 420.5 881 c 128,-1,39
 387 849 387 849 363.5 806 c 128,-1,40
 340 763 340 763 325.5 715 c 128,-1,41
 311 667 311 667 304.5 617 c 128,-1,42
 298 567 298 567 298 519 c 0,43,44
 298 447 298 447 313.5 370.5 c 128,-1,45
 329 294 329 294 364.5 231.5 c 128,-1,46
 400 169 400 169 459 129 c 128,-1,47
 518 89 518 89 605 89 c 0,24,25
EndSplineSet
EndChar

StartChar: c
Encoding: 99 99 70
Width: 996
GlyphClass: 1
Flags: W
LayerCount: 2
Fore
SplineSet
543 -20 m 0,0,1
 429 -20 429 -20 346.5 26 c 128,-1,2
 264 72 264 72 210 147 c 128,-1,3
 156 222 156 222 130 318.5 c 128,-1,4
 104 415 104 415 104 517 c 0,5,6
 104 616 104 616 130.5 713 c 128,-1,7
 157 810 157 810 211 886 c 128,-1,8
 265 962 265 962 347 1009 c 128,-1,9
 429 1056 429 1056 541 1056 c 0,10,11
 607 1056 607 1056 667 1038 c 128,-1,12
 727 1020 727 1020 777 986 c 128,-1,13
 827 952 827 952 866.5 903.5 c 128,-1,14
 906 855 906 855 933 795 c 1,15,-1
 808 739 l 1,16,17
 796 783 796 783 769.5 820 c 128,-1,18
 743 857 743 857 707 884 c 128,-1,19
 671 911 671 911 627.5 926 c 128,-1,20
 584 941 584 941 538 941 c 0,21,22
 481 941 481 941 436 923 c 128,-1,23
 391 905 391 905 357.5 874 c 128,-1,24
 324 843 324 843 300.5 801.5 c 128,-1,25
 277 760 277 760 262.5 713 c 128,-1,26
 248 666 248 666 241.5 616 c 128,-1,27
 235 566 235 566 235 518 c 0,28,29
 235 445 235 445 249.5 369.5 c 128,-1,30
 264 294 264 294 299 232.5 c 128,-1,31
 334 171 334 171 392 132 c 128,-1,32
 450 93 450 93 538 93 c 0,33,34
 585 93 585 93 628 108 c 128,-1,35
 671 123 671 123 706.5 150 c 128,-1,36
 742 177 742 177 768 214 c 128,-1,37
 794 251 794 251 808 296 c 1,38,-1
 921 244 l 1,39,40
 873 116 873 116 776.5 48 c 128,-1,41
 680 -20 680 -20 543 -20 c 0,0,1
EndSplineSet
AlternateSubs2: "'salt' Stylistic Alternatives lookup 15 subtable" c.001
Substitution2: "'aalt' Access All Alternates lookup 0 subtable" c.001
EndChar

StartChar: d
Encoding: 100 100 71
Width: 1146
GlyphClass: 1
Flags: W
LayerCount: 2
Fore
SplineSet
510 -20 m 0,0,1
 438 -20 438 -20 380.5 3 c 128,-1,2
 323 26 323 26 278.5 65.5 c 128,-1,3
 234 105 234 105 201.5 157.5 c 128,-1,4
 169 210 169 210 148.5 270 c 128,-1,5
 128 330 128 330 118 394 c 128,-1,6
 108 458 108 458 108 519 c 0,7,8
 108 582 108 582 118 646 c 128,-1,9
 128 710 128 710 149 770 c 128,-1,10
 170 830 170 830 202.5 883 c 128,-1,11
 235 936 235 936 280.5 975.5 c 128,-1,12
 326 1015 326 1015 384.5 1037.5 c 128,-1,13
 443 1060 443 1060 516 1060 c 0,14,15
 620 1060 620 1060 703.5 1018.5 c 128,-1,16
 787 977 787 977 846 889 c 1,17,-1
 846 1413 l 1,18,-1
 973 1413 l 1,19,-1
 973 0 l 1,20,-1
 847 0 l 1,21,-1
 846 151 l 1,22,23
 783 59 783 59 702 19.5 c 128,-1,24
 621 -20 621 -20 510 -20 c 0,0,1
548 95 m 256,25,26
 636 95 636 95 695 134 c 128,-1,27
 754 173 754 173 790 234 c 128,-1,28
 826 295 826 295 841.5 371 c 128,-1,29
 857 447 857 447 857 520 c 0,30,31
 857 594 857 594 841.5 669 c 128,-1,32
 826 744 826 744 790 804.5 c 128,-1,33
 754 865 754 865 694.5 903.5 c 128,-1,34
 635 942 635 942 548 942 c 0,35,36
 462 942 462 942 402.5 903.5 c 128,-1,37
 343 865 343 865 306.5 804 c 128,-1,38
 270 743 270 743 254 668 c 128,-1,39
 238 593 238 593 238 520 c 0,40,41
 238 446 238 446 253.5 370.5 c 128,-1,42
 269 295 269 295 305 233.5 c 128,-1,43
 341 172 341 172 400.5 133.5 c 128,-1,44
 460 95 460 95 548 95 c 256,25,26
EndSplineSet
EndChar

StartChar: e
Encoding: 101 101 72
Width: 1056
GlyphClass: 1
Flags: W
LayerCount: 2
Fore
SplineSet
550 -12 m 0,0,1
 437 -12 437 -12 353.5 31.5 c 128,-1,2
 270 75 270 75 214.5 147.5 c 128,-1,3
 159 220 159 220 131.5 315 c 128,-1,4
 104 410 104 410 104 513 c 0,5,6
 104 611 104 611 130 707.5 c 128,-1,7
 156 804 156 804 209.5 880.5 c 128,-1,8
 263 957 263 957 344.5 1004.5 c 128,-1,9
 426 1052 426 1052 537 1052 c 0,10,11
 723 1052 723 1052 830 951.5 c 128,-1,12
 937 851 937 851 957 668 c 0,13,14
 961 631 961 631 962.5 594 c 128,-1,15
 964 557 964 557 964 519 c 0,16,17
 964 496 964 496 960 477 c 1,18,-1
 239 477 l 1,19,-1
 239 460 l 2,20,21
 239 389 239 389 259 324 c 128,-1,22
 279 259 279 259 318.5 209 c 128,-1,23
 358 159 358 159 416.5 129.5 c 128,-1,24
 475 100 475 100 552 100 c 0,25,26
 638 100 638 100 715.5 123 c 128,-1,27
 793 146 793 146 854 210 c 1,28,-1
 940 138 l 1,29,30
 861 56 861 56 761.5 22 c 128,-1,31
 662 -12 662 -12 550 -12 c 0,0,1
846 587 m 1,32,-1
 846 596 l 2,33,34
 846 669 846 669 826.5 731 c 128,-1,35
 807 793 807 793 768.5 838.5 c 128,-1,36
 730 884 730 884 672 910 c 128,-1,37
 614 936 614 936 537 936 c 0,38,39
 462 936 462 936 407 907 c 128,-1,40
 352 878 352 878 315.5 829 c 128,-1,41
 279 780 279 780 260.5 717.5 c 128,-1,42
 242 655 242 655 239 587 c 1,43,-1
 846 587 l 1,32,-1
EndSplineSet
EndChar

StartChar: f
Encoding: 102 102 73
Width: 696
GlyphClass: 1
Flags: W
LayerCount: 2
Fore
SplineSet
355 0 m 1,0,-1
 227 0 l 1,1,-1
 227 936 l 1,2,-1
 37 936 l 1,3,-1
 37 1037 l 1,4,-1
 227 1037 l 1,5,-1
 227 1199 l 2,6,7
 227 1258 227 1258 248 1302 c 128,-1,8
 269 1346 269 1346 305.5 1375.5 c 128,-1,9
 342 1405 342 1405 390.5 1419.5 c 128,-1,10
 439 1434 439 1434 494 1434 c 0,11,12
 537 1434 537 1434 578 1424 c 128,-1,13
 619 1414 619 1414 658 1397 c 1,14,-1
 630 1296 l 1,15,16
 599 1308 599 1308 566.5 1316 c 128,-1,17
 534 1324 534 1324 501 1324 c 0,18,19
 433 1324 433 1324 394 1292.5 c 128,-1,20
 355 1261 355 1261 355 1189 c 2,21,-1
 355 1039 l 1,22,-1
 663 1039 l 1,23,-1
 663 936 l 1,24,-1
 357 936 l 1,25,-1
 355 0 l 1,0,-1
EndSplineSet
EndChar

StartChar: g
Encoding: 103 103 74
Width: 1042
GlyphClass: 1
Flags: W
LayerCount: 2
Fore
SplineSet
553 -457 m 0,0,1
 477 -457 477 -457 400 -435.5 c 128,-1,2
 323 -414 323 -414 260.5 -370.5 c 128,-1,3
 198 -327 198 -327 159 -262.5 c 128,-1,4
 120 -198 120 -198 120 -112 c 0,5,6
 120 -93 120 -93 123 -75 c 1,7,-1
 277 88 l 1,8,9
 214 121 214 121 178 174 c 128,-1,10
 142 227 142 227 142 299 c 0,11,12
 142 347 142 347 159 388 c 128,-1,13
 176 429 176 429 212 461 c 1,14,15
 167 509 167 509 147 570 c 128,-1,16
 127 631 127 631 127 696 c 0,17,18
 127 777 127 777 156.5 843 c 128,-1,19
 186 909 186 909 237 955.5 c 128,-1,20
 288 1002 288 1002 356.5 1027 c 128,-1,21
 425 1052 425 1052 504 1052 c 0,22,23
 579 1052 579 1052 648.5 1028.5 c 128,-1,24
 718 1005 718 1005 774 952 c 1,25,-1
 932 1076 l 1,26,-1
 1001 995 l 1,27,-1
 835 864 l 1,28,29
 854 825 854 825 862.5 783 c 128,-1,30
 871 741 871 741 871 698 c 0,31,32
 871 617 871 617 842.5 552.5 c 128,-1,33
 814 488 814 488 763.5 443 c 128,-1,34
 713 398 713 398 645 374 c 128,-1,35
 577 350 577 350 499 350 c 0,36,37
 448 350 448 350 399 360.5 c 128,-1,38
 350 371 350 371 305 393 c 1,39,40
 284 378 284 378 270 355 c 128,-1,41
 256 332 256 332 256 306 c 0,42,43
 256 253 256 253 286 222 c 128,-1,44
 316 191 316 191 365 173.5 c 128,-1,45
 414 156 414 156 476.5 146.5 c 128,-1,46
 539 137 539 137 604.5 127 c 128,-1,47
 670 117 670 117 732.5 101 c 128,-1,48
 795 85 795 85 844 54.5 c 128,-1,49
 893 24 893 24 923 -26 c 128,-1,50
 953 -76 953 -76 953 -155 c 0,51,52
 953 -235 953 -235 916 -292 c 128,-1,53
 879 -349 879 -349 821.5 -386 c 128,-1,54
 764 -423 764 -423 693 -440 c 128,-1,55
 622 -457 622 -457 553 -457 c 0,0,1
498 455 m 0,56,57
 553 455 553 455 598 473 c 128,-1,58
 643 491 643 491 675.5 523 c 128,-1,59
 708 555 708 555 725.5 600.5 c 128,-1,60
 743 646 743 646 743 701 c 0,61,62
 743 754 743 754 724.5 799.5 c 128,-1,63
 706 845 706 845 673.5 878.5 c 128,-1,64
 641 912 641 912 596 931.5 c 128,-1,65
 551 951 551 951 498 951 c 0,66,67
 446 951 446 951 401.5 931.5 c 128,-1,68
 357 912 357 912 324.5 878 c 128,-1,69
 292 844 292 844 274 798.5 c 128,-1,70
 256 753 256 753 256 701 c 0,71,72
 256 646 256 646 273 600.5 c 128,-1,73
 290 555 290 555 321.5 522.5 c 128,-1,74
 353 490 353 490 397.5 472.5 c 128,-1,75
 442 455 442 455 498 455 c 0,56,57
567 -339 m 0,76,77
 608 -339 608 -339 656 -330 c 128,-1,78
 704 -321 704 -321 745 -300 c 128,-1,79
 786 -279 786 -279 814 -245 c 128,-1,80
 842 -211 842 -211 842 -161 c 0,81,82
 842 -112 842 -112 819 -82.5 c 128,-1,83
 796 -53 796 -53 761 -36.5 c 128,-1,84
 726 -20 726 -20 684.5 -12 c 128,-1,85
 643 -4 643 -4 605 2 c 0,86,87
 548 11 548 11 491.5 20.5 c 128,-1,88
 435 30 435 30 380 47 c 1,89,-1
 242 -114 l 1,90,91
 242 -174 242 -174 274 -216.5 c 128,-1,92
 306 -259 306 -259 354.5 -286.5 c 128,-1,93
 403 -314 403 -314 460 -326.5 c 128,-1,94
 517 -339 517 -339 567 -339 c 0,76,77
EndSplineSet
Substitution2: "'ss01' Style Set 1 lookup 16 subtable" g.ss01
AlternateSubs2: "'salt' Stylistic Alternatives lookup 15 subtable" g.ss01
Substitution2: "'aalt' Access All Alternates lookup 0 subtable" g.ss01
EndChar

StartChar: h
Encoding: 104 104 75
Width: 1138
GlyphClass: 1
Flags: W
LayerCount: 2
Fore
SplineSet
993 0 m 1,0,-1
 865 0 l 1,1,-1
 865 624 l 2,2,3
 865 680 865 680 854.5 735.5 c 128,-1,4
 844 791 844 791 817.5 835.5 c 128,-1,5
 791 880 791 880 747 908 c 128,-1,6
 703 936 703 936 637 936 c 0,7,8
 565 936 565 936 504.5 905.5 c 128,-1,9
 444 875 444 875 400.5 824.5 c 128,-1,10
 357 774 357 774 332.5 709.5 c 128,-1,11
 308 645 308 645 308 576 c 2,12,-1
 308 0 l 1,13,-1
 184 0 l 1,14,-1
 184 1413 l 1,15,-1
 308 1413 l 1,16,-1
 308 857 l 1,17,18
 335 902 335 902 372.5 939 c 128,-1,19
 410 976 410 976 455 1002 c 128,-1,20
 500 1028 500 1028 550.5 1042 c 128,-1,21
 601 1056 601 1056 654 1056 c 0,22,23
 744 1056 744 1056 808 1022 c 128,-1,24
 872 988 872 988 913.5 931 c 128,-1,25
 955 874 955 874 974 800 c 128,-1,26
 993 726 993 726 993 645 c 2,27,-1
 993 0 l 1,0,-1
EndSplineSet
EndChar

StartChar: i
Encoding: 105 105 76
Width: 480
GlyphClass: 1
Flags: W
LayerCount: 2
Fore
SplineSet
325 1230 m 1,0,-1
 172 1230 l 1,1,-1
 172 1413 l 1,2,-1
 325 1413 l 1,3,-1
 325 1230 l 1,0,-1
312 0 m 1,4,-1
 182 0 l 1,5,-1
 182 998 l 1,6,-1
 312 998 l 1,7,-1
 312 0 l 1,4,-1
EndSplineSet
Substitution2: "'locl' Localized Forms in Latin lookup 23-1" i.loclTRK
Substitution2: "Single Substitution lookup 2 subtable" dotlessi
Substitution2: "'aalt' Access All Alternates lookup 0 subtable" i.loclTRK
EndChar

StartChar: j
Encoding: 106 106 77
Width: 495
GlyphClass: 1
Flags: W
LayerCount: 2
Fore
SplineSet
325 1239 m 1,0,-1
 170 1239 l 1,1,-1
 170 1419 l 1,2,-1
 325 1419 l 1,3,-1
 325 1239 l 1,0,-1
59 -439 m 0,4,5
 21 -439 21 -439 -16 -430.5 c 128,-1,6
 -53 -422 -53 -422 -88 -409 c 1,7,-1
 -62 -309 l 1,8,9
 -32 -319 -32 -319 -1 -322 c 128,-1,10
 30 -325 30 -325 62 -325 c 0,11,12
 124 -325 124 -325 154 -286.5 c 128,-1,13
 184 -248 184 -248 184 -189 c 2,14,-1
 184 998 l 1,15,-1
 315 998 l 1,16,-1
 315 -168 l 2,17,18
 315 -230 315 -230 299 -280.5 c 128,-1,19
 283 -331 283 -331 251.5 -366 c 128,-1,20
 220 -401 220 -401 172 -420 c 128,-1,21
 124 -439 124 -439 59 -439 c 0,4,5
EndSplineSet
Substitution2: "Single Substitution lookup 2 subtable" uni0237
EndChar

StartChar: k
Encoding: 107 107 78
Width: 1063
GlyphClass: 1
Flags: W
LayerCount: 2
Fore
SplineSet
1024 0 m 1,0,-1
 866 0 l 1,1,-1
 543 556 l 1,2,-1
 311 303 l 1,3,-1
 311 0 l 1,4,-1
 183 0 l 1,5,-1
 182 1413 l 1,6,-1
 311 1413 l 1,7,-1
 311 477 l 1,8,-1
 793 1039 l 1,9,-1
 956 1039 l 1,10,-1
 627 657 l 1,11,-1
 1024 0 l 1,0,-1
EndSplineSet
EndChar

StartChar: l
Encoding: 108 108 79
Width: 513
GlyphClass: 1
Flags: W
LayerCount: 2
Fore
SplineSet
334 -20 m 0,0,1
 325 -20 325 -20 307.5 -15.5 c 128,-1,2
 290 -11 290 -11 272 -4.5 c 128,-1,3
 254 2 254 2 238 9.5 c 128,-1,4
 222 17 222 17 215 23 c 0,5,6
 200 36 200 36 192.5 58 c 128,-1,7
 185 80 185 80 182.5 105 c 128,-1,8
 180 130 180 130 180 155 c 0,9,10
 180 156 180 156 180 157 c 2,11,-1
 180 160 l 2,12,13
 180 162 180 162 180 163 c 2,14,-1
 180 168 l 1,15,16
 180 168 180 168 180 169 c 2,17,-1
 180 173 l 2,18,19
 180 174 180 174 180 174 c 1,20,-1
 180 176 l 1,21,22
 180 176 180 176 180 177 c 2,23,-1
 180 197 l 1,24,-1
 179 1413 l 1,25,-1
 308 1413 l 1,26,-1
 307 217 l 2,27,28
 307 204 307 204 308 183 c 128,-1,29
 309 162 309 162 314 141.5 c 128,-1,30
 319 121 319 121 329.5 106 c 128,-1,31
 340 91 340 91 358 91 c 0,32,33
 384 91 384 91 409.5 92.5 c 128,-1,34
 435 94 435 94 460 102 c 1,35,-1
 460 -1 l 1,36,37
 429 -10 429 -10 397.5 -15 c 128,-1,38
 366 -20 366 -20 334 -20 c 0,0,1
EndSplineSet
EndChar

StartChar: m
Encoding: 109 109 80
Width: 1734
GlyphClass: 1
Flags: W
LayerCount: 2
Fore
SplineSet
1588 0 m 1,0,-1
 1459 0 l 1,1,-1
 1459 624 l 2,2,3
 1459 682 1459 682 1448.5 740.5 c 128,-1,4
 1438 799 1438 799 1411 846.5 c 128,-1,5
 1384 894 1384 894 1338.5 923.5 c 128,-1,6
 1293 953 1293 953 1224 953 c 0,7,8
 1154 953 1154 953 1102 921 c 128,-1,9
 1050 889 1050 889 1016 838 c 128,-1,10
 982 787 982 787 965.5 724.5 c 128,-1,11
 949 662 949 662 949 600 c 2,12,-1
 949 0 l 1,13,-1
 820 0 l 1,14,-1
 820 628 l 2,15,16
 820 685 820 685 809.5 743 c 128,-1,17
 799 801 799 801 772.5 847.5 c 128,-1,18
 746 894 746 894 701.5 923.5 c 128,-1,19
 657 953 657 953 588 953 c 0,20,21
 517 953 517 953 464.5 921.5 c 128,-1,22
 412 890 412 890 378 839.5 c 128,-1,23
 344 789 344 789 327.5 726 c 128,-1,24
 311 663 311 663 311 600 c 2,25,-1
 311 0 l 1,26,-1
 182 0 l 1,27,-1
 182 1039 l 1,28,-1
 311 1039 l 1,29,-1
 311 838 l 1,30,31
 343 938 343 938 416.5 998 c 128,-1,32
 490 1058 490 1058 598 1058 c 0,33,34
 716 1058 716 1058 798.5 1004 c 128,-1,35
 881 950 881 950 919 836 c 1,36,37
 965 939 965 939 1042 997.5 c 128,-1,38
 1119 1056 1119 1056 1235 1056 c 0,39,40
 1330 1056 1330 1056 1397 1022 c 128,-1,41
 1464 988 1464 988 1506.5 930 c 128,-1,42
 1549 872 1549 872 1568.5 795.5 c 128,-1,43
 1588 719 1588 719 1588 633 c 2,44,-1
 1588 0 l 1,0,-1
EndSplineSet
EndChar

StartChar: n
Encoding: 110 110 81
Width: 1134
GlyphClass: 1
Flags: W
LayerCount: 2
Fore
SplineSet
989 0 m 1,0,-1
 862 0 l 1,1,-1
 862 624 l 2,2,3
 862 683 862 683 851.5 738.5 c 128,-1,4
 841 794 841 794 815 837.5 c 128,-1,5
 789 881 789 881 743.5 907.5 c 128,-1,6
 698 934 698 934 629 934 c 0,7,8
 563 934 563 934 505 906.5 c 128,-1,9
 447 879 447 879 403 833.5 c 128,-1,10
 359 788 359 788 333.5 728.5 c 128,-1,11
 308 669 308 669 308 604 c 2,12,-1
 308 0 l 1,13,-1
 182 0 l 1,14,-1
 182 1039 l 1,15,-1
 308 1039 l 1,16,-1
 308 865 l 1,17,18
 334 909 334 909 369.5 944.5 c 128,-1,19
 405 980 405 980 448.5 1005 c 128,-1,20
 492 1030 492 1030 540.5 1043 c 128,-1,21
 589 1056 589 1056 640 1056 c 0,22,23
 736 1056 736 1056 802.5 1022 c 128,-1,24
 869 988 869 988 910.5 930 c 128,-1,25
 952 872 952 872 970.5 795.5 c 128,-1,26
 989 719 989 719 989 633 c 2,27,-1
 989 0 l 1,0,-1
EndSplineSet
EndChar

StartChar: o
Encoding: 111 111 82
Width: 1144
GlyphClass: 1
Flags: W
LayerCount: 2
Fore
SplineSet
570 -20 m 0,0,1
 460 -20 460 -20 372 25 c 128,-1,2
 284 70 284 70 223 144.5 c 128,-1,3
 162 219 162 219 129.5 315.5 c 128,-1,4
 97 412 97 412 97 515 c 0,5,6
 97 619 97 619 130 716 c 128,-1,7
 163 813 163 813 225 887.5 c 128,-1,8
 287 962 287 962 375.5 1007 c 128,-1,9
 464 1052 464 1052 575 1052 c 256,10,11
 686 1052 686 1052 774.5 1007 c 128,-1,12
 863 962 863 962 925.5 887.5 c 128,-1,13
 988 813 988 813 1021.5 716 c 128,-1,14
 1055 619 1055 619 1055 515 c 0,15,16
 1055 409 1055 409 1021.5 312 c 128,-1,17
 988 215 988 215 925 141.5 c 128,-1,18
 862 68 862 68 772 24 c 128,-1,19
 682 -20 682 -20 570 -20 c 0,0,1
570 97 m 0,20,21
 661 97 661 97 726 132 c 128,-1,22
 791 167 791 167 833 225.5 c 128,-1,23
 875 284 875 284 894.5 359.5 c 128,-1,24
 914 435 914 435 914 516 c 0,25,26
 914 596 914 596 895 671 c 128,-1,27
 876 746 876 746 834.5 804.5 c 128,-1,28
 793 863 793 863 729 898.5 c 128,-1,29
 665 934 665 934 575 934 c 0,30,31
 487 934 487 934 423 898 c 128,-1,32
 359 862 359 862 318 803.5 c 128,-1,33
 277 745 277 745 257 669.5 c 128,-1,34
 237 594 237 594 237 516 c 0,35,36
 237 440 237 440 256.5 364.5 c 128,-1,37
 276 289 276 289 316.5 230 c 128,-1,38
 357 171 357 171 420 134 c 128,-1,39
 483 97 483 97 570 97 c 0,20,21
EndSplineSet
Substitution2: "Single Substitution lookup 3 subtable" ordmasculine
Substitution2: "Single Substitution lookup 2 subtable" ordmasculine
EndChar

StartChar: p
Encoding: 112 112 83
Width: 1146
GlyphClass: 1
Flags: W
LayerCount: 2
Fore
SplineSet
311 -439 m 1,0,-1
 184 -439 l 1,1,-1
 184 1039 l 1,2,-1
 311 1039 l 1,3,-1
 311 888 l 1,4,5
 370 978 370 978 452 1019 c 128,-1,6
 534 1060 534 1060 640 1060 c 0,7,8
 713 1060 713 1060 771.5 1037.5 c 128,-1,9
 830 1015 830 1015 875.5 975.5 c 128,-1,10
 921 936 921 936 953.5 883 c 128,-1,11
 986 830 986 830 1007.5 770 c 128,-1,12
 1029 710 1029 710 1039 646 c 128,-1,13
 1049 582 1049 582 1049 519 c 256,14,15
 1049 456 1049 456 1039 392 c 128,-1,16
 1029 328 1029 328 1008 268 c 128,-1,17
 987 208 987 208 954 155.5 c 128,-1,18
 921 103 921 103 875.5 64 c 128,-1,19
 830 25 830 25 771.5 2.5 c 128,-1,20
 713 -20 713 -20 640 -20 c 0,21,22
 535 -20 535 -20 452.5 21 c 128,-1,23
 370 62 370 62 311 150 c 1,24,-1
 311 -439 l 1,0,-1
605 89 m 0,25,26
 694 89 694 89 755 128 c 128,-1,27
 816 167 816 167 853 229 c 128,-1,28
 890 291 890 291 906 368 c 128,-1,29
 922 445 922 445 922 520 c 256,30,31
 922 595 922 595 905.5 671.5 c 128,-1,32
 889 748 889 748 852 809.5 c 128,-1,33
 815 871 815 871 754.5 909.5 c 128,-1,34
 694 948 694 948 605 948 c 0,35,36
 520 948 520 948 461.5 908 c 128,-1,37
 403 868 403 868 366.5 805.5 c 128,-1,38
 330 743 330 743 314 667 c 128,-1,39
 298 591 298 591 298 520 c 0,40,41
 298 448 298 448 313.5 371.5 c 128,-1,42
 329 295 329 295 365 232.5 c 128,-1,43
 401 170 401 170 459.5 129.5 c 128,-1,44
 518 89 518 89 605 89 c 0,25,26
EndSplineSet
EndChar

StartChar: q
Encoding: 113 113 84
Width: 1148
GlyphClass: 1
Flags: W
LayerCount: 2
Fore
SplineSet
975 -439 m 1,0,-1
 846 -439 l 1,1,-1
 846 150 l 1,2,3
 783 59 783 59 702 19.5 c 128,-1,4
 621 -20 621 -20 511 -20 c 0,5,6
 440 -20 440 -20 382 3 c 128,-1,7
 324 26 324 26 279.5 65.5 c 128,-1,8
 235 105 235 105 202.5 157.5 c 128,-1,9
 170 210 170 210 149 270 c 128,-1,10
 128 330 128 330 118 394 c 128,-1,11
 108 458 108 458 108 519 c 0,12,13
 108 582 108 582 118 647 c 128,-1,14
 128 712 128 712 149 772 c 128,-1,15
 170 832 170 832 202.5 884.5 c 128,-1,16
 235 937 235 937 280.5 976 c 128,-1,17
 326 1015 326 1015 385 1037.5 c 128,-1,18
 444 1060 444 1060 518 1060 c 0,19,20
 729 1060 729 1060 846 889 c 1,21,-1
 846 1039 l 1,22,-1
 975 1039 l 1,23,-1
 975 -439 l 1,0,-1
548 89 m 0,24,25
 637 89 637 89 696 128.5 c 128,-1,26
 755 168 755 168 791 230.5 c 128,-1,27
 827 293 827 293 842 369.5 c 128,-1,28
 857 446 857 446 857 520 c 0,29,30
 857 593 857 593 841.5 669 c 128,-1,31
 826 745 826 745 789.5 807 c 128,-1,32
 753 869 753 869 694 908.5 c 128,-1,33
 635 948 635 948 548 948 c 256,34,35
 461 948 461 948 401.5 908.5 c 128,-1,36
 342 869 342 869 305.5 807 c 128,-1,37
 269 745 269 745 253.5 669 c 128,-1,38
 238 593 238 593 238 520 c 256,39,40
 238 447 238 447 253.5 370.5 c 128,-1,41
 269 294 269 294 305.5 231.5 c 128,-1,42
 342 169 342 169 401.5 129 c 128,-1,43
 461 89 461 89 548 89 c 0,24,25
EndSplineSet
EndChar

StartChar: r
Encoding: 114 114 85
Width: 811
GlyphClass: 1
Flags: W
LayerCount: 2
Fore
SplineSet
312 0 m 1,0,-1
 182 0 l 1,1,-1
 182 1039 l 1,2,-1
 314 1039 l 1,3,-1
 314 822 l 1,4,5
 326 875 326 875 355.5 918 c 128,-1,6
 385 961 385 961 426.5 991 c 128,-1,7
 468 1021 468 1021 518 1037.5 c 128,-1,8
 568 1054 568 1054 621 1054 c 0,9,10
 664 1054 664 1054 706 1043.5 c 128,-1,11
 748 1033 748 1033 786 1013 c 1,12,-1
 746 896 l 1,13,14
 716 920 716 920 679.5 932.5 c 128,-1,15
 643 945 643 945 605 945 c 0,16,17
 546 945 546 945 501 920 c 128,-1,18
 456 895 456 895 423.5 853.5 c 128,-1,19
 391 812 391 812 369.5 758.5 c 128,-1,20
 348 705 348 705 335 648.5 c 128,-1,21
 322 592 322 592 317 536.5 c 128,-1,22
 312 481 312 481 312 436 c 2,23,-1
 312 0 l 1,0,-1
EndSplineSet
EndChar

StartChar: s
Encoding: 115 115 86
Width: 880
GlyphClass: 1
Flags: W
LayerCount: 2
Fore
SplineSet
452 -20 m 0,0,1
 393 -20 393 -20 335.5 -3.5 c 128,-1,2
 278 13 278 13 228.5 44 c 128,-1,3
 179 75 179 75 141.5 120 c 128,-1,4
 104 165 104 165 84 223 c 1,5,-1
 192 290 l 1,6,7
 205 249 205 249 232 213 c 128,-1,8
 259 177 259 177 294.5 150.5 c 128,-1,9
 330 124 330 124 372.5 109 c 128,-1,10
 415 94 415 94 458 94 c 0,11,12
 500 94 500 94 538 99.5 c 128,-1,13
 576 105 576 105 605 121.5 c 128,-1,14
 634 138 634 138 651.5 168.5 c 128,-1,15
 669 199 669 199 669 249 c 0,16,17
 669 301 669 301 642 337.5 c 128,-1,18
 615 374 615 374 572.5 401 c 128,-1,19
 530 428 530 428 477 448 c 128,-1,20
 424 468 424 468 371.5 487 c 128,-1,21
 319 506 319 506 272.5 527 c 128,-1,22
 226 548 226 548 196 576 c 0,23,24
 152 618 152 618 135 667 c 128,-1,25
 118 716 118 716 118 776 c 0,26,27
 118 839 118 839 142 890.5 c 128,-1,28
 166 942 166 942 207 978.5 c 128,-1,29
 248 1015 248 1015 302.5 1034.5 c 128,-1,30
 357 1054 357 1054 418 1054 c 0,31,32
 531 1054 531 1054 617.5 1007.5 c 128,-1,33
 704 961 704 961 759 860 c 1,34,-1
 655 798 l 1,35,36
 620 867 620 867 561 900 c 128,-1,37
 502 933 502 933 426 933 c 0,38,39
 390 933 390 933 357.5 926.5 c 128,-1,40
 325 920 325 920 300.5 903.5 c 128,-1,41
 276 887 276 887 261.5 859.5 c 128,-1,42
 247 832 247 832 247 790 c 0,43,44
 247 738 247 738 270.5 703.5 c 128,-1,45
 294 669 294 669 332.5 645 c 128,-1,46
 371 621 371 621 420.5 603 c 128,-1,47
 470 585 470 585 521.5 566 c 128,-1,48
 573 547 573 547 622.5 523.5 c 128,-1,49
 672 500 672 500 710.5 465 c 128,-1,50
 749 430 749 430 772.5 378.5 c 128,-1,51
 796 327 796 327 796 253 c 256,52,53
 796 179 796 179 766.5 127 c 128,-1,54
 737 75 737 75 689 42.5 c 128,-1,55
 641 10 641 10 579 -5 c 128,-1,56
 517 -20 517 -20 452 -20 c 0,0,1
EndSplineSet
Substitution2: "'hist' Historical Forms lookup 20 subtable" longs
Substitution2: "'aalt' Access All Alternates lookup 0 subtable" longs
EndChar

StartChar: t
Encoding: 116 116 87
Width: 673
GlyphClass: 1
Flags: W
LayerCount: 2
Fore
SplineSet
449 -20 m 0,0,1
 379 -20 379 -20 333.5 3 c 128,-1,2
 288 26 288 26 261.5 66 c 128,-1,3
 235 106 235 106 224.5 159.5 c 128,-1,4
 214 213 214 213 214 274 c 2,5,-1
 214 936 l 1,6,-1
 51 936 l 1,7,-1
 51 1039 l 1,8,-1
 214 1039 l 1,9,-1
 214 1235 l 1,10,-1
 344 1350 l 1,11,-1
 344 1039 l 1,12,-1
 609 1039 l 1,13,-1
 609 936 l 1,14,-1
 344 936 l 1,15,-1
 344 260 l 2,16,17
 344 226 344 226 351 194 c 128,-1,18
 358 162 358 162 374 137 c 128,-1,19
 390 112 390 112 416.5 96.5 c 128,-1,20
 443 81 443 81 482 81 c 0,21,22
 507 81 507 81 530.5 87 c 128,-1,23
 554 93 554 93 577 104 c 1,24,-1
 577 -3 l 1,25,26
 546 -14 546 -14 513.5 -17 c 128,-1,27
 481 -20 481 -20 449 -20 c 0,0,1
EndSplineSet
EndChar

StartChar: u
Encoding: 117 117 88
Width: 1130
GlyphClass: 1
Flags: W
LayerCount: 2
Fore
SplineSet
505 -23 m 0,0,1
 407 -23 407 -23 340.5 14.5 c 128,-1,2
 274 52 274 52 233 114.5 c 128,-1,3
 192 177 192 177 174 257 c 128,-1,4
 156 337 156 337 156 422 c 2,5,-1
 156 1039 l 1,6,-1
 282 1039 l 1,7,-1
 282 409 l 2,8,9
 282 351 282 351 292 293 c 128,-1,10
 302 235 302 235 328 188 c 128,-1,11
 354 141 354 141 399 111.5 c 128,-1,12
 444 82 444 82 514 82 c 0,13,14
 582 82 582 82 641 113 c 128,-1,15
 700 144 700 144 743.5 194.5 c 128,-1,16
 787 245 787 245 812 308.5 c 128,-1,17
 837 372 837 372 837 437 c 2,18,-1
 837 1039 l 1,19,-1
 961 1039 l 1,20,-1
 961 0 l 1,21,-1
 837 0 l 1,22,-1
 837 192 l 1,23,24
 817 143 817 143 782 103.5 c 128,-1,25
 747 64 747 64 703 36 c 128,-1,26
 659 8 659 8 608 -7.5 c 128,-1,27
 557 -23 557 -23 505 -23 c 0,0,1
EndSplineSet
EndChar

StartChar: v
Encoding: 118 118 89
Width: 974
GlyphClass: 1
Flags: W
LayerCount: 2
Fore
SplineSet
551 0 m 1,0,-1
 430 0 l 1,1,-1
 49 1039 l 1,2,-1
 194 1039 l 1,3,-1
 490 170 l 1,4,-1
 789 1039 l 1,5,-1
 930 1039 l 1,6,-1
 551 0 l 1,0,-1
EndSplineSet
EndChar

StartChar: w
Encoding: 119 119 90
Width: 1465
GlyphClass: 1
Flags: W
LayerCount: 2
Fore
SplineSet
480 -1 m 1,0,-1
 347 -1 l 1,1,-1
 61 1039 l 1,2,-1
 202 1039 l 1,3,-1
 424 182 l 1,4,-1
 674 1039 l 1,5,-1
 799 1039 l 1,6,-1
 1047 184 l 1,7,-1
 1267 1039 l 1,8,-1
 1409 1039 l 1,9,-1
 1123 0 l 1,10,-1
 989 0 l 1,11,-1
 738 862 l 1,12,-1
 480 -1 l 1,0,-1
EndSplineSet
EndChar

StartChar: x
Encoding: 120 120 91
Width: 932
GlyphClass: 1
Flags: W
LayerCount: 2
Fore
SplineSet
888 0 m 1,0,-1
 730 0 l 1,1,-1
 476 411 l 1,2,-1
 221 0 l 1,3,-1
 58 0 l 1,4,-1
 406 524 l 1,5,-1
 58 1039 l 1,6,-1
 221 1039 l 1,7,-1
 475 633 l 1,8,-1
 731 1039 l 1,9,-1
 892 1039 l 1,10,-1
 547 522 l 1,11,-1
 888 0 l 1,0,-1
EndSplineSet
EndChar

StartChar: y
Encoding: 121 121 92
Width: 1001
GlyphClass: 1
Flags: W
LayerCount: 2
Fore
SplineSet
410 -431 m 1,0,-1
 271 -431 l 1,1,-1
 446 11 l 1,2,-1
 47 1039 l 1,3,-1
 196 1039 l 1,4,-1
 509 171 l 1,5,-1
 812 1039 l 1,6,-1
 960 1039 l 1,7,-1
 410 -431 l 1,0,-1
EndSplineSet
EndChar

StartChar: z
Encoding: 122 122 93
Width: 947
GlyphClass: 1
Flags: W
LayerCount: 2
Fore
SplineSet
869 0 m 1,0,-1
 73 0 l 1,1,-1
 73 105 l 1,2,-1
 721 931 l 1,3,-1
 103 931 l 1,4,-1
 103 1039 l 1,5,-1
 869 1039 l 1,6,-1
 869 923 l 1,7,-1
 230 110 l 1,8,-1
 869 110 l 1,9,-1
 869 0 l 1,0,-1
EndSplineSet
EndChar

StartChar: braceleft
Encoding: 123 123 94
Width: 596
GlyphClass: 1
Flags: W
LayerCount: 2
Fore
SplineSet
517 -113 m 1,0,-1
 403 -113 l 2,1,2
 360 -113 360 -113 326.5 -96.5 c 128,-1,3
 293 -80 293 -80 273 -61 c 128,-1,4
 253 -42 253 -42 242 -19 c 128,-1,5
 231 4 231 4 227 32 c 128,-1,6
 223 60 223 60 223 95 c 2,7,-1
 220 467 l 1,8,-1
 224 463 l 1,9,10
 224 490 224 490 211.5 511 c 128,-1,11
 199 532 199 532 180 548 c 128,-1,12
 161 564 161 564 137.5 575.5 c 128,-1,13
 114 587 114 587 92 595 c 1,14,-1
 92 699 l 1,15,16
 155 713 155 713 189 751.5 c 128,-1,17
 223 790 223 790 223 856 c 2,18,-1
 223 1285 l 2,19,20
 223 1361 223 1361 244.5 1402 c 128,-1,21
 266 1443 266 1443 304.5 1462.5 c 128,-1,22
 343 1482 343 1482 395.5 1485.5 c 128,-1,23
 448 1489 448 1489 509 1489 c 1,24,-1
 517 1488 l 1,25,-1
 517 1416 l 1,26,27
 504 1418 504 1418 492 1419.5 c 128,-1,28
 480 1421 480 1421 467 1421 c 0,29,30
 449 1421 449 1421 427.5 1419 c 128,-1,31
 406 1417 406 1417 387.5 1409.5 c 128,-1,32
 369 1402 369 1402 356 1388.5 c 128,-1,33
 343 1375 343 1375 343 1351 c 2,34,-1
 343 844 l 2,35,36
 343 800 343 800 327 768 c 128,-1,37
 311 736 311 736 284 712 c 128,-1,38
 257 688 257 688 223 671 c 128,-1,39
 189 654 189 654 153 640 c 1,40,41
 183 630 183 630 216 617 c 128,-1,42
 249 604 249 604 277.5 584.5 c 128,-1,43
 306 565 306 565 324.5 538 c 128,-1,44
 343 511 343 511 343 473 c 2,45,-1
 343 108 l 2,46,47
 343 36 343 36 375.5 -5.5 c 128,-1,48
 408 -47 408 -47 484 -47 c 0,49,50
 502 -47 502 -47 517 -41 c 1,51,-1
 517 -113 l 1,0,-1
EndSplineSet
EndChar

StartChar: bar
Encoding: 124 124 95
Width: 622
GlyphClass: 1
Flags: W
LayerCount: 2
Fore
SplineSet
356 -513 m 1,0,-1
 264 -513 l 1,1,-1
 264 1534 l 1,2,-1
 356 1534 l 1,3,-1
 356 -513 l 1,0,-1
EndSplineSet
EndChar

StartChar: braceright
Encoding: 125 125 96
Width: 596
GlyphClass: 1
Flags: W
LayerCount: 2
Fore
SplineSet
136 -114 m 2,0,-1
 78 -113 l 1,1,-1
 78 -41 l 1,2,3
 95 -47 95 -47 111 -47 c 0,4,5
 187 -47 187 -47 220 -5.5 c 128,-1,6
 253 36 253 36 253 108 c 2,7,-1
 253 473 l 2,8,9
 253 510 253 510 271.5 537 c 128,-1,10
 290 564 290 564 318.5 583.5 c 128,-1,11
 347 603 347 603 380.5 616.5 c 128,-1,12
 414 630 414 630 443 640 c 1,13,14
 406 654 406 654 371.5 670.5 c 128,-1,15
 337 687 337 687 310.5 710.5 c 128,-1,16
 284 734 284 734 268.5 766 c 128,-1,17
 253 798 253 798 253 844 c 2,18,-1
 253 1351 l 2,19,20
 253 1374 253 1374 241 1388 c 128,-1,21
 229 1402 229 1402 211 1409 c 128,-1,22
 193 1416 193 1416 172.5 1418 c 128,-1,23
 152 1420 152 1420 134 1420 c 0,24,25
 120 1420 120 1420 106 1419 c 128,-1,26
 92 1418 92 1418 78 1416 c 1,27,-1
 78 1489 l 1,28,29
 138 1489 138 1489 191.5 1486.5 c 128,-1,30
 245 1484 245 1484 285 1465.5 c 128,-1,31
 325 1447 325 1447 348.5 1406 c 128,-1,32
 372 1365 372 1365 372 1289 c 2,33,-1
 372 874 l 2,34,35
 372 802 372 802 401.5 759 c 128,-1,36
 431 716 431 716 503 699 c 1,37,-1
 503 595 l 1,38,39
 482 588 482 588 459 577 c 128,-1,40
 436 566 436 566 416.5 550.5 c 128,-1,41
 397 535 397 535 384.5 515 c 128,-1,42
 372 495 372 495 372 469 c 2,43,-1
 372 100 l 2,44,45
 372 72 372 72 368 42.5 c 128,-1,46
 364 13 364 13 353.5 -14 c 128,-1,47
 343 -41 343 -41 325 -63 c 128,-1,48
 307 -85 307 -85 278 -97 c 0,49,50
 264 -103 264 -103 246 -106.5 c 128,-1,51
 228 -110 228 -110 208.5 -111.5 c 128,-1,52
 189 -113 189 -113 170 -113.5 c 128,-1,53
 151 -114 151 -114 136 -114 c 2,0,-1
EndSplineSet
EndChar

StartChar: asciitilde
Encoding: 126 126 97
Width: 1163
GlyphClass: 1
Flags: W
LayerCount: 2
Fore
SplineSet
740 380 m 0,0,1
 701 380 701 380 669 394 c 128,-1,2
 637 408 637 408 610 428.5 c 128,-1,3
 583 449 583 449 559 473.5 c 128,-1,4
 535 498 535 498 511 518.5 c 128,-1,5
 487 539 487 539 461.5 553 c 128,-1,6
 436 567 436 567 407 567 c 0,7,8
 374 567 374 567 353 552 c 128,-1,9
 332 537 332 537 320.5 514 c 128,-1,10
 309 491 309 491 305 462.5 c 128,-1,11
 301 434 301 434 301 407 c 1,12,-1
 219 407 l 1,13,14
 219 451 219 451 229 494 c 128,-1,15
 239 537 239 537 261 571.5 c 128,-1,16
 283 606 283 606 318 627.5 c 128,-1,17
 353 649 353 649 404 649 c 0,18,19
 450 649 450 649 484.5 635.5 c 128,-1,20
 519 622 519 622 547.5 601.5 c 128,-1,21
 576 581 576 581 599.5 557.5 c 128,-1,22
 623 534 623 534 646 513.5 c 128,-1,23
 669 493 669 493 693 479.5 c 128,-1,24
 717 466 717 466 746 466 c 0,25,26
 782 466 782 466 804 483 c 128,-1,27
 826 500 826 500 837.5 526.5 c 128,-1,28
 849 553 849 553 852.5 584 c 128,-1,29
 856 615 856 615 856 643 c 1,30,-1
 946 643 l 1,31,32
 946 592 946 592 935.5 545 c 128,-1,33
 925 498 925 498 901 461 c 128,-1,34
 877 424 877 424 837.5 402 c 128,-1,35
 798 380 798 380 740 380 c 0,0,1
EndSplineSet
EndChar

StartChar: exclamdown
Encoding: 161 161 99
Width: 628
GlyphClass: 1
Flags: W
LayerCount: 2
Fore
SplineSet
402 822 m 1,0,-1
 223 822 l 1,1,-1
 223 998 l 1,2,-1
 402 998 l 1,3,-1
 402 822 l 1,0,-1
390 -437 m 1,4,-1
 236 -437 l 1,5,-1
 264 627 l 1,6,-1
 361 627 l 1,7,-1
 390 -437 l 1,4,-1
EndSplineSet
EndChar

StartChar: cent
Encoding: 162 162 100
Width: 1140
GlyphClass: 1
Flags: W
LayerCount: 2
Fore
SplineSet
650 -206 m 1,0,-1
 557 -206 l 1,1,-1
 557 -15 l 1,2,3
 458 -6 458 -6 386 41.5 c 128,-1,4
 314 89 314 89 267.5 160 c 128,-1,5
 221 231 221 231 199 319 c 128,-1,6
 177 407 177 407 177 497 c 0,7,8
 177 588 177 588 199.5 675.5 c 128,-1,9
 222 763 222 763 268.5 833.5 c 128,-1,10
 315 904 315 904 386.5 951.5 c 128,-1,11
 458 999 458 999 557 1011 c 1,12,-1
 557 1199 l 1,13,-1
 650 1199 l 1,14,-1
 650 1011 l 1,15,16
 766 995 766 995 852 932 c 128,-1,17
 938 869 938 869 986 761 c 1,18,-1
 855 706 l 1,19,20
 843 747 843 747 818.5 780.5 c 128,-1,21
 794 814 794 814 760.5 838 c 128,-1,22
 727 862 727 862 687.5 875 c 128,-1,23
 648 888 648 888 606 888 c 0,24,25
 526 888 526 888 470.5 852.5 c 128,-1,26
 415 817 415 817 381 761 c 128,-1,27
 347 705 347 705 332 635 c 128,-1,28
 317 565 317 565 317 497 c 0,29,30
 317 428 317 428 331.5 358.5 c 128,-1,31
 346 289 346 289 380 232.5 c 128,-1,32
 414 176 414 176 469.5 141 c 128,-1,33
 525 106 525 106 606 106 c 0,34,35
 649 106 649 106 688 119 c 128,-1,36
 727 132 727 132 760 156 c 128,-1,37
 793 180 793 180 817.5 213.5 c 128,-1,38
 842 247 842 247 855 288 c 1,39,-1
 975 237 l 1,40,41
 931 124 931 124 851 60 c 128,-1,42
 771 -4 771 -4 650 -17 c 1,43,-1
 650 -206 l 1,0,-1
EndSplineSet
EndChar

StartChar: sterling
Encoding: 163 163 101
Width: 1252
GlyphClass: 1
Flags: W
LayerCount: 2
Fore
SplineSet
1181 0 m 1,0,-1
 170 0 l 1,1,-1
 170 95 l 1,2,-1
 169 96 l 1,3,4
 173 96 173 96 179 100.5 c 128,-1,5
 185 105 185 105 191.5 111 c 128,-1,6
 198 117 198 117 204 123 c 2,7,-1
 209 128 l 1,8,9
 209 128 209 128 209 128 c 1,10,-1
 212 131 l 2,11,12
 243 162 243 162 278.5 199.5 c 128,-1,13
 314 237 314 237 344.5 279.5 c 128,-1,14
 375 322 375 322 395 367.5 c 128,-1,15
 415 413 415 413 415 459 c 0,16,17
 415 507 415 507 407 553 c 128,-1,18
 399 599 399 599 388 645 c 1,19,-1
 173 645 l 1,20,-1
 173 760 l 1,21,-1
 359 760 l 1,22,23
 349 778 349 778 340 812 c 128,-1,24
 331 846 331 846 324 883 c 128,-1,25
 317 920 317 920 312.5 955 c 128,-1,26
 308 990 308 990 308 1011 c 0,27,28
 308 1097 308 1097 334 1173 c 128,-1,29
 360 1249 360 1249 409.5 1306 c 128,-1,30
 459 1363 459 1363 530 1396.5 c 128,-1,31
 601 1430 601 1430 691 1430 c 0,32,33
 756 1430 756 1430 813.5 1409 c 128,-1,34
 871 1388 871 1388 918.5 1350.5 c 128,-1,35
 966 1313 966 1313 1001.5 1262.5 c 128,-1,36
 1037 1212 1037 1212 1059 1152 c 1,37,38
 1032 1141 1032 1141 1004.5 1131.5 c 128,-1,39
 977 1122 977 1122 950 1111 c 1,40,41
 934 1153 934 1153 910 1190 c 128,-1,42
 886 1227 886 1227 854.5 1254.5 c 128,-1,43
 823 1282 823 1282 783 1298.5 c 128,-1,44
 743 1315 743 1315 696 1315 c 0,45,46
 629 1315 629 1315 578.5 1291.5 c 128,-1,47
 528 1268 528 1268 493.5 1227 c 128,-1,48
 459 1186 459 1186 441.5 1131 c 128,-1,49
 424 1076 424 1076 424 1013 c 0,50,51
 424 989 424 989 428.5 955 c 128,-1,52
 433 921 433 921 440 885 c 128,-1,53
 447 849 447 849 456 815.5 c 128,-1,54
 465 782 465 782 475 760 c 1,55,-1
 947 760 l 1,56,-1
 947 645 l 1,57,-1
 506 645 l 1,58,59
 514 600 514 600 521.5 555.5 c 128,-1,60
 529 511 529 511 529 466 c 0,61,62
 529 380 529 380 492 304.5 c 128,-1,63
 455 229 455 229 398 167 c 0,64,65
 386 154 386 154 373.5 142 c 128,-1,66
 361 130 361 130 352 116 c 1,67,-1
 1181 116 l 1,68,-1
 1181 0 l 1,0,-1
EndSplineSet
EndChar

StartChar: currency
Encoding: 164 164 102
Width: 1383
GlyphClass: 1
Flags: W
LayerCount: 2
Fore
SplineSet
1062 175 m 1,0,-1
 957 280 l 1,1,2
 897 235 897 235 831 211.5 c 128,-1,3
 765 188 765 188 690 188 c 0,4,5
 540 188 540 188 421 280 c 1,6,-1
 319 175 l 1,7,8
 297 197 297 197 277 219 c 128,-1,9
 257 241 257 241 236 263 c 1,10,-1
 340 366 l 1,11,12
 248 484 248 484 248 633 c 0,13,14
 248 780 248 780 340 895 c 1,15,-1
 238 995 l 1,16,-1
 321 1085 l 1,17,18
 347 1059 347 1059 372 1032 c 128,-1,19
 397 1005 397 1005 423 979 c 1,20,21
 543 1073 543 1073 694 1073 c 0,22,23
 768 1073 768 1073 833.5 1049.5 c 128,-1,24
 899 1026 899 1026 957 981 c 1,25,-1
 1060 1083 l 1,26,-1
 1144 999 l 1,27,-1
 1043 897 l 1,28,29
 1134 779 1134 779 1134 631 c 0,30,31
 1134 480 1134 480 1043 364 c 1,32,-1
 1144 263 l 1,33,-1
 1062 175 l 1,0,-1
689 305 m 256,34,35
 756 305 756 305 815 331 c 128,-1,36
 874 357 874 357 918.5 401 c 128,-1,37
 963 445 963 445 988.5 504 c 128,-1,38
 1014 563 1014 563 1014 630 c 0,39,40
 1014 696 1014 696 988 754.5 c 128,-1,41
 962 813 962 813 918 857 c 128,-1,42
 874 901 874 901 815.5 927 c 128,-1,43
 757 953 757 953 691 953 c 0,44,45
 624 953 624 953 565 927 c 128,-1,46
 506 901 506 901 461.5 856.5 c 128,-1,47
 417 812 417 812 391 753 c 128,-1,48
 365 694 365 694 365 627 c 256,49,50
 365 560 365 560 390.5 501.5 c 128,-1,51
 416 443 416 443 460 399.5 c 128,-1,52
 504 356 504 356 563 330.5 c 128,-1,53
 622 305 622 305 689 305 c 256,34,35
EndSplineSet
EndChar

StartChar: yen
Encoding: 165 165 103
Width: 1306
GlyphClass: 1
Flags: W
LayerCount: 2
Fore
SplineSet
717 0 m 1,0,-1
 589 0 l 1,1,-1
 589 318 l 1,2,-1
 290 318 l 1,3,-1
 290 418 l 1,4,-1
 589 418 l 1,5,-1
 589 540 l 1,6,-1
 290 540 l 1,7,-1
 290 639 l 1,8,-1
 542 639 l 1,9,-1
 65 1413 l 1,10,-1
 214 1413 l 1,11,-1
 654 703 l 1,12,-1
 1094 1413 l 1,13,-1
 1240 1413 l 1,14,-1
 764 641 l 1,15,-1
 1018 641 l 1,16,-1
 1018 540 l 1,17,-1
 717 540 l 1,18,-1
 717 418 l 1,19,-1
 1018 418 l 1,20,-1
 1018 318 l 1,21,-1
 717 318 l 1,22,-1
 717 0 l 1,0,-1
EndSplineSet
EndChar

StartChar: brokenbar
Encoding: 166 166 104
Width: 614
GlyphClass: 1
Flags: W
LayerCount: 2
Fore
SplineSet
350 732 m 1,0,-1
 264 732 l 1,1,-1
 264 1475 l 1,2,-1
 350 1475 l 1,3,-1
 350 732 l 1,0,-1
350 -308 m 1,4,-1
 264 -308 l 1,5,-1
 264 418 l 1,6,-1
 350 418 l 1,7,-1
 350 -308 l 1,4,-1
EndSplineSet
EndChar

StartChar: section
Encoding: 167 167 105
Width: 1130
GlyphClass: 1
Flags: W
LayerCount: 2
Fore
SplineSet
570 -18 m 0,0,1
 499 -18 499 -18 435 -1 c 128,-1,2
 371 16 371 16 319 50.5 c 128,-1,3
 267 85 267 85 228.5 137.5 c 128,-1,4
 190 190 190 190 169 260 c 1,5,-1
 285 302 l 1,6,7
 299 246 299 246 324.5 206.5 c 128,-1,8
 350 167 350 167 386.5 142.5 c 128,-1,9
 423 118 423 118 469.5 107 c 128,-1,10
 516 96 516 96 571 96 c 0,11,12
 616 96 616 96 660.5 103.5 c 128,-1,13
 705 111 705 111 739.5 130.5 c 128,-1,14
 774 150 774 150 795.5 185 c 128,-1,15
 817 220 817 220 817 274 c 0,16,17
 817 322 817 322 791 351.5 c 128,-1,18
 765 381 765 381 723 399 c 128,-1,19
 681 417 681 417 627 428 c 128,-1,20
 573 439 573 439 517 451.5 c 128,-1,21
 461 464 461 464 407 481 c 128,-1,22
 353 498 353 498 311 528.5 c 128,-1,23
 269 559 269 559 243 606.5 c 128,-1,24
 217 654 217 654 217 727 c 0,25,26
 217 793 217 793 245 848.5 c 128,-1,27
 273 904 273 904 324 946 c 1,28,29
 219 1017 219 1017 219 1143 c 0,30,31
 219 1212 219 1212 248 1266.5 c 128,-1,32
 277 1321 277 1321 324.5 1358 c 128,-1,33
 372 1395 372 1395 433 1414.5 c 128,-1,34
 494 1434 494 1434 558 1434 c 0,35,36
 695 1434 695 1434 784.5 1368 c 128,-1,37
 874 1302 874 1302 924 1176 c 1,38,-1
 802 1145 l 1,39,40
 776 1237 776 1237 712.5 1278 c 128,-1,41
 649 1319 649 1319 556 1319 c 0,42,43
 515 1319 515 1319 475.5 1308 c 128,-1,44
 436 1297 436 1297 404.5 1274.5 c 128,-1,45
 373 1252 373 1252 354 1218.5 c 128,-1,46
 335 1185 335 1185 335 1139 c 256,47,48
 335 1093 335 1093 360.5 1065 c 128,-1,49
 386 1037 386 1037 428.5 1019.5 c 128,-1,50
 471 1002 471 1002 524.5 991.5 c 128,-1,51
 578 981 578 981 634.5 968.5 c 128,-1,52
 691 956 691 956 744.5 938.5 c 128,-1,53
 798 921 798 921 840.5 889.5 c 128,-1,54
 883 858 883 858 908.5 810 c 128,-1,55
 934 762 934 762 934 688 c 0,56,57
 934 623 934 623 909 568.5 c 128,-1,58
 884 514 884 514 833 473 c 1,59,60
 934 400 934 400 934 272 c 0,61,62
 934 194 934 194 902.5 139 c 128,-1,63
 871 84 871 84 820 49 c 128,-1,64
 769 14 769 14 703.5 -2 c 128,-1,65
 638 -18 638 -18 570 -18 c 0,0,1
701 522 m 1,66,67
 817 570 817 570 817 695 c 0,68,69
 817 739 817 739 799 769 c 128,-1,70
 781 799 781 799 751 819.5 c 128,-1,71
 721 840 721 840 683 852.5 c 128,-1,72
 645 865 645 865 605 873.5 c 128,-1,73
 565 882 565 882 527 889 c 128,-1,74
 489 896 489 896 459 905 c 1,75,76
 402 882 402 882 368.5 837 c 128,-1,77
 335 792 335 792 335 729 c 0,78,79
 335 690 335 690 354.5 661.5 c 128,-1,80
 374 633 374 633 405.5 612 c 128,-1,81
 437 591 437 591 476.5 577.5 c 128,-1,82
 516 564 516 564 556.5 554 c 128,-1,83
 597 544 597 544 635 536.5 c 128,-1,84
 673 529 673 529 701 522 c 1,66,67
EndSplineSet
EndChar

StartChar: dieresis
Encoding: 168 168 106
Width: 832
GlyphClass: 1
Flags: W
LayerCount: 2
Fore
SplineSet
328 1230 m 1,0,-1
 169 1230 l 1,1,-1
 169 1413 l 1,2,-1
 328 1413 l 1,3,-1
 328 1230 l 1,0,-1
661 1230 m 1,4,-1
 503 1230 l 1,5,-1
 503 1413 l 1,6,-1
 661 1413 l 1,7,-1
 661 1230 l 1,4,-1
EndSplineSet
EndChar

StartChar: copyright
Encoding: 169 169 107
Width: 1756
GlyphClass: 1
Flags: W
LayerCount: 2
Fore
SplineSet
878 -51 m 256,0,1
 774 -51 774 -51 678 -23.5 c 128,-1,2
 582 4 582 4 499 53.5 c 128,-1,3
 416 103 416 103 348.5 172.5 c 128,-1,4
 281 242 281 242 233 326 c 128,-1,5
 185 410 185 410 159 506.5 c 128,-1,6
 133 603 133 603 133 707 c 0,7,8
 133 810 133 810 159.5 906 c 128,-1,9
 186 1002 186 1002 234 1086 c 128,-1,10
 282 1170 282 1170 350 1239.5 c 128,-1,11
 418 1309 418 1309 501 1359 c 128,-1,12
 584 1409 584 1409 679.5 1436.5 c 128,-1,13
 775 1464 775 1464 878 1464 c 0,14,15
 982 1464 982 1464 1077 1436.5 c 128,-1,16
 1172 1409 1172 1409 1255 1359 c 128,-1,17
 1338 1309 1338 1309 1406 1239.5 c 128,-1,18
 1474 1170 1474 1170 1522 1086 c 128,-1,19
 1570 1002 1570 1002 1596.5 906 c 128,-1,20
 1623 810 1623 810 1623 707 c 256,21,22
 1623 604 1623 604 1596.5 508 c 128,-1,23
 1570 412 1570 412 1522 327.5 c 128,-1,24
 1474 243 1474 243 1406.5 173.5 c 128,-1,25
 1339 104 1339 104 1256 54 c 128,-1,26
 1173 4 1173 4 1077.5 -23.5 c 128,-1,27
 982 -51 982 -51 878 -51 c 256,0,1
878 51 m 256,28,29
 966 51 966 51 1048 75.5 c 128,-1,30
 1130 100 1130 100 1201.5 143.5 c 128,-1,31
 1273 187 1273 187 1332 248 c 128,-1,32
 1391 309 1391 309 1433 382 c 128,-1,33
 1475 455 1475 455 1498 537.5 c 128,-1,34
 1521 620 1521 620 1521 707 c 256,35,36
 1521 794 1521 794 1497.5 876 c 128,-1,37
 1474 958 1474 958 1432 1030.5 c 128,-1,38
 1390 1103 1390 1103 1331 1164 c 128,-1,39
 1272 1225 1272 1225 1200.5 1268.5 c 128,-1,40
 1129 1312 1129 1312 1047 1336.5 c 128,-1,41
 965 1361 965 1361 878 1361 c 256,42,43
 791 1361 791 1361 709 1336.5 c 128,-1,44
 627 1312 627 1312 555.5 1268.5 c 128,-1,45
 484 1225 484 1225 424.5 1164 c 128,-1,46
 365 1103 365 1103 322.5 1030.5 c 128,-1,47
 280 958 280 958 256.5 876 c 128,-1,48
 233 794 233 794 233 707 c 256,49,50
 233 620 233 620 256.5 537.5 c 128,-1,51
 280 455 280 455 322 382 c 128,-1,52
 364 309 364 309 423.5 248 c 128,-1,53
 483 187 483 187 554.5 143.5 c 128,-1,54
 626 100 626 100 708 75.5 c 128,-1,55
 790 51 790 51 878 51 c 256,28,29
895 308 m 0,56,57
 807 308 807 308 742.5 339.5 c 128,-1,58
 678 371 678 371 635 425.5 c 128,-1,59
 592 480 592 480 571 552 c 128,-1,60
 550 624 550 624 550 705 c 256,61,62
 550 786 550 786 571 858 c 128,-1,63
 592 930 592 930 635 984 c 128,-1,64
 678 1038 678 1038 743 1069.5 c 128,-1,65
 808 1101 808 1101 895 1101 c 0,66,67
 941 1101 941 1101 985 1089 c 128,-1,68
 1029 1077 1029 1077 1068 1054.5 c 128,-1,69
 1107 1032 1107 1032 1138.5 999 c 128,-1,70
 1170 966 1170 966 1190 924 c 1,71,-1
 1098 885 l 1,72,73
 1066 942 1066 942 1012.5 970.5 c 128,-1,74
 959 999 959 999 895 999 c 256,75,76
 831 999 831 999 784.5 974.5 c 128,-1,77
 738 950 738 950 707.5 909.5 c 128,-1,78
 677 869 677 869 662.5 816 c 128,-1,79
 648 763 648 763 648 705 c 256,80,81
 648 647 648 647 662 593.5 c 128,-1,82
 676 540 676 540 706 499.5 c 128,-1,83
 736 459 736 459 782.5 435 c 128,-1,84
 829 411 829 411 893 411 c 0,85,86
 956 411 956 411 1011 440.5 c 128,-1,87
 1066 470 1066 470 1096 527 c 1,88,89
 1119 516 1119 516 1143 507 c 128,-1,90
 1167 498 1167 498 1190 487 c 1,91,92
 1147 398 1147 398 1070 353 c 128,-1,93
 993 308 993 308 895 308 c 0,56,57
EndSplineSet
EndChar

StartChar: ordfeminine
Encoding: 170 170 108
Width: 830
GlyphClass: 2
Flags: W
LayerCount: 2
Fore
SplineSet
331 710 m 0,0,1
 285 710 285 710 244 724.5 c 128,-1,2
 203 739 203 739 172 766.5 c 128,-1,3
 141 794 141 794 123 832.5 c 128,-1,4
 105 871 105 871 105 919 c 0,5,6
 105 977 105 977 125.5 1016.5 c 128,-1,7
 146 1056 146 1056 181.5 1080 c 128,-1,8
 217 1104 217 1104 263.5 1114 c 128,-1,9
 310 1124 310 1124 361 1124 c 2,10,-1
 579 1124 l 1,11,12
 579 1170 579 1170 570.5 1210.5 c 128,-1,13
 562 1251 562 1251 541.5 1281.5 c 128,-1,14
 521 1312 521 1312 486.5 1329.5 c 128,-1,15
 452 1347 452 1347 400 1347 c 0,16,17
 345 1347 345 1347 296 1320 c 128,-1,18
 247 1293 247 1293 217 1247 c 1,19,-1
 134 1299 l 1,20,21
 185 1371 185 1371 250.5 1402.5 c 128,-1,22
 316 1434 316 1434 404 1434 c 0,23,24
 469 1434 469 1434 520 1414 c 128,-1,25
 571 1394 571 1394 605.5 1357.5 c 128,-1,26
 640 1321 640 1321 658 1269 c 128,-1,27
 676 1217 676 1217 676 1153 c 2,28,-1
 676 724 l 1,29,-1
 590 724 l 1,30,-1
 583 852 l 1,31,32
 538 780 538 780 477 745 c 128,-1,33
 416 710 416 710 331 710 c 0,0,1
357 801 m 0,34,35
 404 801 404 801 444.5 821 c 128,-1,36
 485 841 485 841 515 874 c 128,-1,37
 545 907 545 907 562 950 c 128,-1,38
 579 993 579 993 579 1038 c 1,39,-1
 386 1038 l 2,40,41
 358 1038 358 1038 328 1032.5 c 128,-1,42
 298 1027 298 1027 274 1013 c 128,-1,43
 250 999 250 999 234.5 976.5 c 128,-1,44
 219 954 219 954 219 919 c 0,45,46
 219 892 219 892 231.5 870.5 c 128,-1,47
 244 849 244 849 263.5 833.5 c 128,-1,48
 283 818 283 818 307.5 809.5 c 128,-1,49
 332 801 332 801 357 801 c 0,34,35
EndSplineSet
EndChar

StartChar: guillemotleft
Encoding: 171 171 109
Width: 966
GlyphClass: 1
Flags: W
LayerCount: 2
Fore
SplineSet
429 194 m 1,0,-1
 75 511 l 1,1,-1
 429 827 l 1,2,-1
 429 679 l 1,3,-1
 232 511 l 1,4,-1
 429 341 l 1,5,-1
 429 194 l 1,0,-1
795 194 m 1,6,-1
 438 511 l 1,7,-1
 795 827 l 1,8,-1
 795 679 l 1,9,-1
 595 511 l 1,10,-1
 795 341 l 1,11,-1
 795 194 l 1,6,-1
EndSplineSet
EndChar

StartChar: logicalnot
Encoding: 172 172 110
Width: 1283
GlyphClass: 1
Flags: W
LayerCount: 2
Fore
SplineSet
1021 291 m 1,0,-1
 902 291 l 1,1,-1
 902 681 l 1,2,-1
 159 681 l 1,3,-1
 159 795 l 1,4,-1
 1021 795 l 1,5,-1
 1021 291 l 1,0,-1
EndSplineSet
EndChar

StartChar: uni00AD
Encoding: 173 173 111
Width: 975
GlyphClass: 1
Flags: W
LayerCount: 2
Fore
SplineSet
808 594 m 1,0,-1
 167 594 l 1,1,-1
 167 690 l 1,2,-1
 808 690 l 1,3,-1
 808 594 l 1,0,-1
EndSplineSet
EndChar

StartChar: registered
Encoding: 174 174 112
Width: 1756
GlyphClass: 1
Flags: W
LayerCount: 2
Fore
SplineSet
878 -49 m 256,0,1
 774 -49 774 -49 678 -21.5 c 128,-1,2
 582 6 582 6 499 55.5 c 128,-1,3
 416 105 416 105 348.5 174.5 c 128,-1,4
 281 244 281 244 233 328 c 128,-1,5
 185 412 185 412 159 508.5 c 128,-1,6
 133 605 133 605 133 709 c 0,7,8
 133 812 133 812 159.5 908 c 128,-1,9
 186 1004 186 1004 234 1088 c 128,-1,10
 282 1172 282 1172 350 1241.5 c 128,-1,11
 418 1311 418 1311 501 1361 c 128,-1,12
 584 1411 584 1411 679.5 1438.5 c 128,-1,13
 775 1466 775 1466 878 1466 c 0,14,15
 982 1466 982 1466 1077 1438.5 c 128,-1,16
 1172 1411 1172 1411 1255 1361 c 128,-1,17
 1338 1311 1338 1311 1406 1241.5 c 128,-1,18
 1474 1172 1474 1172 1522 1088 c 128,-1,19
 1570 1004 1570 1004 1596.5 908 c 128,-1,20
 1623 812 1623 812 1623 709 c 256,21,22
 1623 606 1623 606 1596.5 510 c 128,-1,23
 1570 414 1570 414 1522 329.5 c 128,-1,24
 1474 245 1474 245 1406.5 175.5 c 128,-1,25
 1339 106 1339 106 1256 56 c 128,-1,26
 1173 6 1173 6 1077.5 -21.5 c 128,-1,27
 982 -49 982 -49 878 -49 c 256,0,1
878 45 m 256,28,29
 968 45 968 45 1051 69.5 c 128,-1,30
 1134 94 1134 94 1206.5 138 c 128,-1,31
 1279 182 1279 182 1338.5 243.5 c 128,-1,32
 1398 305 1398 305 1440 378.5 c 128,-1,33
 1482 452 1482 452 1505.5 536 c 128,-1,34
 1529 620 1529 620 1529 709 c 256,35,36
 1529 798 1529 798 1505.5 881.5 c 128,-1,37
 1482 965 1482 965 1439.5 1038.5 c 128,-1,38
 1397 1112 1397 1112 1337.5 1173.5 c 128,-1,39
 1278 1235 1278 1235 1206 1279 c 128,-1,40
 1134 1323 1134 1323 1050.5 1347.5 c 128,-1,41
 967 1372 967 1372 878 1372 c 256,42,43
 789 1372 789 1372 705.5 1347.5 c 128,-1,44
 622 1323 622 1323 549.5 1279 c 128,-1,45
 477 1235 477 1235 417 1173.5 c 128,-1,46
 357 1112 357 1112 314.5 1038.5 c 128,-1,47
 272 965 272 965 248.5 881.5 c 128,-1,48
 225 798 225 798 225 709 c 256,49,50
 225 620 225 620 248.5 536 c 128,-1,51
 272 452 272 452 314.5 378.5 c 128,-1,52
 357 305 357 305 417 243.5 c 128,-1,53
 477 182 477 182 549.5 138 c 128,-1,54
 622 94 622 94 705 69.5 c 128,-1,55
 788 45 788 45 878 45 c 256,28,29
1218 307 m 1,56,-1
 1094 307 l 1,57,-1
 915 645 l 1,58,-1
 741 645 l 1,59,-1
 741 307 l 1,60,-1
 635 307 l 1,61,-1
 635 1096 l 1,62,-1
 932 1096 l 2,63,64
 990 1096 990 1096 1037 1083.5 c 128,-1,65
 1084 1071 1084 1071 1117.5 1044 c 128,-1,66
 1151 1017 1151 1017 1169 973.5 c 128,-1,67
 1187 930 1187 930 1187 868 c 0,68,69
 1187 780 1187 780 1145 724 c 128,-1,70
 1103 668 1103 668 1015 653 c 1,71,-1
 1218 307 l 1,56,-1
932 739 m 2,72,73
 965 739 965 739 993.5 745 c 128,-1,74
 1022 751 1022 751 1044 766 c 128,-1,75
 1066 781 1066 781 1078.5 805.5 c 128,-1,76
 1091 830 1091 830 1091 867 c 0,77,78
 1091 906 1091 906 1079 931.5 c 128,-1,79
 1067 957 1067 957 1046 972 c 128,-1,80
 1025 987 1025 987 996 993 c 128,-1,81
 967 999 967 999 932 999 c 2,82,-1
 731 999 l 1,83,-1
 731 739 l 1,84,-1
 932 739 l 2,72,73
EndSplineSet
EndChar

StartChar: macron
Encoding: 175 175 113
Width: 867
GlyphClass: 1
Flags: W
LayerCount: 2
Fore
SplineSet
696 1193 m 1,0,-1
 161 1193 l 1,1,-1
 161 1312 l 1,2,-1
 696 1312 l 1,3,-1
 696 1193 l 1,0,-1
EndSplineSet
EndChar

StartChar: degree
Encoding: 176 176 114
Width: 967
GlyphClass: 1
Flags: W
LayerCount: 2
Fore
SplineSet
484 850 m 0,0,1
 423 850 423 850 370 873 c 128,-1,2
 317 896 317 896 277.5 935.5 c 128,-1,3
 238 975 238 975 215.5 1028 c 128,-1,4
 193 1081 193 1081 193 1142 c 0,5,6
 193 1202 193 1202 216 1255 c 128,-1,7
 239 1308 239 1308 278.5 1348 c 128,-1,8
 318 1388 318 1388 371 1411 c 128,-1,9
 424 1434 424 1434 484 1434 c 0,10,11
 543 1434 543 1434 596 1410.5 c 128,-1,12
 649 1387 649 1387 688.5 1347 c 128,-1,13
 728 1307 728 1307 751 1254 c 128,-1,14
 774 1201 774 1201 774 1142 c 0,15,16
 774 1082 774 1082 751.5 1029 c 128,-1,17
 729 976 729 976 689.5 936 c 128,-1,18
 650 896 650 896 597 873 c 128,-1,19
 544 850 544 850 484 850 c 0,0,1
484 926 m 256,20,21
 528 926 528 926 567 943.5 c 128,-1,22
 606 961 606 961 635 990.5 c 128,-1,23
 664 1020 664 1020 681 1059.5 c 128,-1,24
 698 1099 698 1099 698 1142 c 256,25,26
 698 1185 698 1185 680.5 1224 c 128,-1,27
 663 1263 663 1263 634 1292.5 c 128,-1,28
 605 1322 605 1322 566 1339.5 c 128,-1,29
 527 1357 527 1357 484 1357 c 256,30,31
 441 1357 441 1357 401.5 1340 c 128,-1,32
 362 1323 362 1323 332.5 1293.5 c 128,-1,33
 303 1264 303 1264 285.5 1225 c 128,-1,34
 268 1186 268 1186 268 1142 c 256,35,36
 268 1098 268 1098 285 1058.5 c 128,-1,37
 302 1019 302 1019 331.5 989.5 c 128,-1,38
 361 960 361 960 400.5 943 c 128,-1,39
 440 926 440 926 484 926 c 256,20,21
EndSplineSet
EndChar

StartChar: plusminus
Encoding: 177 177 115
Width: 1320
GlyphClass: 1
Flags: W
LayerCount: 2
Fore
SplineSet
709 106 m 1,0,-1
 612 106 l 1,1,-1
 612 578 l 1,2,-1
 154 578 l 1,3,-1
 154 674 l 1,4,-1
 612 674 l 1,5,-1
 612 1142 l 1,6,-1
 709 1142 l 1,7,-1
 709 674 l 1,8,-1
 1166 674 l 1,9,-1
 1166 578 l 1,10,-1
 709 578 l 1,11,-1
 709 106 l 1,0,-1
1166 -100 m 1,12,-1
 154 -100 l 1,13,-1
 154 -3 l 1,14,-1
 1166 -3 l 1,15,-1
 1166 -100 l 1,12,-1
EndSplineSet
EndChar

StartChar: twosuperior
Encoding: 178 178 116
Width: 858
GlyphClass: 2
Flags: W
LayerCount: 2
Fore
SplineSet
748 488 m 1,0,-1
 94 488 l 1,1,-1
 94 580 l 1,2,3
 139 609 139 609 194 648 c 128,-1,4
 249 687 249 687 305 733 c 128,-1,5
 361 779 361 779 414 832 c 128,-1,6
 467 885 467 885 508 941 c 128,-1,7
 549 997 549 997 574 1056 c 128,-1,8
 599 1115 599 1115 599 1174 c 0,9,10
 599 1257 599 1257 555.5 1308 c 128,-1,11
 512 1359 512 1359 426 1359 c 0,12,13
 376 1359 376 1359 340 1340 c 128,-1,14
 304 1321 304 1321 280.5 1289 c 128,-1,15
 257 1257 257 1257 245.5 1215.5 c 128,-1,16
 234 1174 234 1174 233 1129 c 1,17,-1
 138 1138 l 1,18,19
 138 1203 138 1203 157 1259.5 c 128,-1,20
 176 1316 176 1316 212 1357.5 c 128,-1,21
 248 1399 248 1399 301 1423 c 128,-1,22
 354 1447 354 1447 422 1447 c 0,23,24
 484 1447 484 1447 535 1429 c 128,-1,25
 586 1411 586 1411 623 1377 c 128,-1,26
 660 1343 660 1343 680.5 1293.5 c 128,-1,27
 701 1244 701 1244 701 1181 c 0,28,29
 701 1097 701 1097 664.5 1019.5 c 128,-1,30
 628 942 628 942 572 873 c 128,-1,31
 516 804 516 804 449 745 c 128,-1,32
 382 686 382 686 320 639 c 0,33,34
 295 620 295 620 269.5 604 c 128,-1,35
 244 588 244 588 219 570 c 1,36,-1
 748 570 l 1,37,-1
 748 488 l 1,0,-1
EndSplineSet
EndChar

StartChar: threesuperior
Encoding: 179 179 117
Width: 879
GlyphClass: 2
Flags: W
LayerCount: 2
Fore
SplineSet
420 471 m 256,0,1
 354 471 354 471 295 487.5 c 128,-1,2
 236 504 236 504 191 537.5 c 128,-1,3
 146 571 146 571 119.5 623.5 c 128,-1,4
 93 676 93 676 93 748 c 1,5,6
 116 750 116 750 137.5 752 c 128,-1,7
 159 754 159 754 182 757 c 1,8,9
 182 707 182 707 202.5 669.5 c 128,-1,10
 223 632 223 632 256.5 606.5 c 128,-1,11
 290 581 290 581 333 568.5 c 128,-1,12
 376 556 376 556 421 556 c 0,13,14
 465 556 465 556 507.5 569 c 128,-1,15
 550 582 550 582 583 607 c 128,-1,16
 616 632 616 632 636 669 c 128,-1,17
 656 706 656 706 656 755 c 0,18,19
 656 821 656 821 620.5 867 c 128,-1,20
 585 913 585 913 522 933 c 0,21,22
 486 944 486 944 448.5 944.5 c 128,-1,23
 411 945 411 945 373 945 c 1,24,-1
 373 1034 l 1,25,-1
 433 1034 l 2,26,27
 510 1034 510 1034 555.5 1075.5 c 128,-1,28
 601 1117 601 1117 601 1195 c 0,29,30
 601 1233 601 1233 586 1264 c 128,-1,31
 571 1295 571 1295 546 1317 c 128,-1,32
 521 1339 521 1339 488 1351 c 128,-1,33
 455 1363 455 1363 418 1363 c 0,34,35
 380 1363 380 1363 346 1352 c 128,-1,36
 312 1341 312 1341 286.5 1319.5 c 128,-1,37
 261 1298 261 1298 245.5 1267 c 128,-1,38
 230 1236 230 1236 229 1196 c 1,39,-1
 140 1206 l 1,40,41
 140 1265 140 1265 162.5 1311 c 128,-1,42
 185 1357 185 1357 223 1388 c 128,-1,43
 261 1419 261 1419 311.5 1435 c 128,-1,44
 362 1451 362 1451 417 1451 c 256,45,46
 472 1451 472 1451 522 1435 c 128,-1,47
 572 1419 572 1419 610 1387.5 c 128,-1,48
 648 1356 648 1356 670.5 1311 c 128,-1,49
 693 1266 693 1266 693 1207 c 0,50,51
 693 1138 693 1138 661 1084 c 128,-1,52
 629 1030 629 1030 569 997 c 1,53,54
 656 970 656 970 701.5 907.5 c 128,-1,55
 747 845 747 845 747 754 c 0,56,57
 747 682 747 682 721 629 c 128,-1,58
 695 576 695 576 650 540.5 c 128,-1,59
 605 505 605 505 545.5 488 c 128,-1,60
 486 471 486 471 420 471 c 256,0,1
EndSplineSet
EndChar

StartChar: acute
Encoding: 180 180 118
Width: 530
GlyphClass: 1
Flags: W
LayerCount: 2
Fore
SplineSet
195 1126 m 1,0,-1
 74 1126 l 1,1,-1
 288 1413 l 1,2,-1
 463 1413 l 1,3,-1
 195 1126 l 1,0,-1
EndSplineSet
EndChar

StartChar: uni00B5
Encoding: 181 181 119
Width: 1321
GlyphClass: 1
Flags: W
LayerCount: 2
Fore
SplineSet
395 -267 m 1,0,-1
 275 -267 l 1,1,-1
 275 1039 l 1,2,-1
 415 1039 l 1,3,-1
 415 413 l 2,4,5
 415 356 415 356 424 300 c 128,-1,6
 433 244 433 244 457 199.5 c 128,-1,7
 481 155 481 155 524.5 127.5 c 128,-1,8
 568 100 568 100 637 100 c 0,9,10
 703 100 703 100 761 128 c 128,-1,11
 819 156 819 156 863 202.5 c 128,-1,12
 907 249 907 249 932.5 309.5 c 128,-1,13
 958 370 958 370 958 434 c 2,14,-1
 958 1039 l 1,15,-1
 1097 1039 l 1,16,-1
 1097 0 l 1,17,-1
 958 0 l 1,18,-1
 958 194 l 1,19,20
 936 145 936 145 900.5 105 c 128,-1,21
 865 65 865 65 821 36.5 c 128,-1,22
 777 8 777 8 726.5 -7.5 c 128,-1,23
 676 -23 676 -23 622 -23 c 0,24,25
 511 -23 511 -23 417 33 c 1,26,-1
 395 -267 l 1,0,-1
EndSplineSet
EndChar

StartChar: paragraph
Encoding: 182 182 120
Width: 1349
GlyphClass: 1
Flags: W
LayerCount: 2
Fore
SplineSet
712 -247 m 1,0,-1
 586 -247 l 1,1,-1
 586 624 l 1,2,3
 497 624 497 624 415 650.5 c 128,-1,4
 333 677 333 677 270 728 c 128,-1,5
 207 779 207 779 169.5 853 c 128,-1,6
 132 927 132 927 132 1023 c 0,7,8
 132 1115 132 1115 171 1187.5 c 128,-1,9
 210 1260 210 1260 273.5 1310 c 128,-1,10
 337 1360 337 1360 418 1386.5 c 128,-1,11
 499 1413 499 1413 584 1413 c 2,12,-1
 712 1413 l 1,13,-1
 712 -247 l 1,0,-1
1084 -247 m 1,14,-1
 958 -247 l 1,15,-1
 958 1413 l 1,16,-1
 1084 1413 l 1,17,-1
 1084 -247 l 1,14,-1
EndSplineSet
EndChar

StartChar: periodcentered
Encoding: 183 183 121
Width: 649
GlyphClass: 1
Flags: W
LayerCount: 2
Fore
SplineSet
323 710 m 0,0,1
 298 710 298 710 276 719 c 128,-1,2
 254 728 254 728 238.5 743.5 c 128,-1,3
 223 759 223 759 214 781 c 128,-1,4
 205 803 205 803 205 828 c 0,5,6
 205 881 205 881 237.5 914 c 128,-1,7
 270 947 270 947 323 947 c 0,8,9
 349 947 349 947 370.5 938 c 128,-1,10
 392 929 392 929 408 913 c 128,-1,11
 424 897 424 897 433 875.5 c 128,-1,12
 442 854 442 854 442 828 c 0,13,14
 442 804 442 804 432.5 782.5 c 128,-1,15
 423 761 423 761 406.5 745 c 128,-1,16
 390 729 390 729 368.5 719.5 c 128,-1,17
 347 710 347 710 323 710 c 0,0,1
EndSplineSet
EndChar

StartChar: cedilla
Encoding: 184 184 122
Width: 580
GlyphClass: 4
Flags: W
AnchorPoint: "Anchor-3" 277 -500 basemark 0
LayerCount: 2
Fore
SplineSet
266 -502 m 0,0,1
 238 -502 238 -502 210.5 -493 c 128,-1,2
 183 -484 183 -484 159 -468 c 128,-1,3
 135 -452 135 -452 117 -430 c 128,-1,4
 99 -408 99 -408 89 -381 c 1,5,-1
 177 -333 l 1,6,7
 179 -348 179 -348 188.5 -362 c 128,-1,8
 198 -376 198 -376 211.5 -386.5 c 128,-1,9
 225 -397 225 -397 241 -403 c 128,-1,10
 257 -409 257 -409 272 -409 c 0,11,12
 293 -409 293 -409 312 -401 c 128,-1,13
 331 -393 331 -393 345 -379.5 c 128,-1,14
 359 -366 359 -366 367 -347 c 128,-1,15
 375 -328 375 -328 375 -307 c 0,16,17
 375 -264 375 -264 352 -238.5 c 128,-1,18
 329 -213 329 -213 295 -199.5 c 128,-1,19
 261 -186 261 -186 222 -182 c 128,-1,20
 183 -178 183 -178 150 -178 c 1,21,-1
 242 -3 l 1,22,-1
 353 -3 l 1,23,24
 337 -34 337 -34 320 -63.5 c 128,-1,25
 303 -93 303 -93 287 -124 c 1,26,27
 327 -126 327 -126 361 -137.5 c 128,-1,28
 395 -149 395 -149 420 -171 c 128,-1,29
 445 -193 445 -193 459 -225 c 128,-1,30
 473 -257 473 -257 473 -299 c 256,31,32
 473 -341 473 -341 456.5 -378 c 128,-1,33
 440 -415 440 -415 411.5 -442.5 c 128,-1,34
 383 -470 383 -470 345.5 -486 c 128,-1,35
 308 -502 308 -502 266 -502 c 0,0,1
EndSplineSet
EndChar

StartChar: onesuperior
Encoding: 185 185 123
Width: 923
GlyphClass: 2
Flags: W
LayerCount: 2
Fore
SplineSet
548 488 m 1,0,-1
 448 488 l 1,1,-1
 448 1218 l 1,2,-1
 194 1218 l 1,3,-1
 194 1297 l 1,4,-1
 337 1297 l 2,5,6
 402 1297 402 1297 430 1335 c 128,-1,7
 458 1373 458 1373 458 1434 c 1,8,-1
 548 1434 l 1,9,-1
 548 488 l 1,0,-1
EndSplineSet
EndChar

StartChar: ordmasculine
Encoding: 186 186 124
Width: 880
GlyphClass: 2
Flags: W
LayerCount: 2
Fore
SplineSet
441 712 m 0,0,1
 365 712 365 712 303 741 c 128,-1,2
 241 770 241 770 197 819.5 c 128,-1,3
 153 869 153 869 129 935 c 128,-1,4
 105 1001 105 1001 105 1074 c 256,5,6
 105 1147 105 1147 129 1212.5 c 128,-1,7
 153 1278 153 1278 197 1327 c 128,-1,8
 241 1376 241 1376 303 1405 c 128,-1,9
 365 1434 365 1434 441 1434 c 0,10,11
 516 1434 516 1434 578 1405 c 128,-1,12
 640 1376 640 1376 683.5 1326.5 c 128,-1,13
 727 1277 727 1277 751 1211.5 c 128,-1,14
 775 1146 775 1146 775 1074 c 256,15,16
 775 1002 775 1002 751 936 c 128,-1,17
 727 870 727 870 683.5 820.5 c 128,-1,18
 640 771 640 771 578 741.5 c 128,-1,19
 516 712 516 712 441 712 c 0,0,1
441 811 m 256,20,21
 500 811 500 811 540.5 832.5 c 128,-1,22
 581 854 581 854 606 890.5 c 128,-1,23
 631 927 631 927 642 974.5 c 128,-1,24
 653 1022 653 1022 653 1074 c 0,25,26
 653 1125 653 1125 641.5 1172 c 128,-1,27
 630 1219 630 1219 604.5 1255.5 c 128,-1,28
 579 1292 579 1292 538.5 1314 c 128,-1,29
 498 1336 498 1336 441 1336 c 0,30,31
 383 1336 383 1336 342 1314.5 c 128,-1,32
 301 1293 301 1293 275.5 1257 c 128,-1,33
 250 1221 250 1221 238 1173.5 c 128,-1,34
 226 1126 226 1126 226 1074 c 256,35,36
 226 1022 226 1022 237.5 974 c 128,-1,37
 249 926 249 926 274.5 890 c 128,-1,38
 300 854 300 854 341 832.5 c 128,-1,39
 382 811 382 811 441 811 c 256,20,21
EndSplineSet
EndChar

StartChar: guillemotright
Encoding: 187 187 125
Width: 966
GlyphClass: 1
Flags: W
LayerCount: 2
Fore
SplineSet
169 194 m 1,0,-1
 169 341 l 1,1,-1
 367 511 l 1,2,-1
 169 679 l 1,3,-1
 169 827 l 1,4,-1
 523 511 l 1,5,-1
 169 194 l 1,0,-1
532 194 m 1,6,-1
 532 341 l 1,7,-1
 729 511 l 1,8,-1
 532 679 l 1,9,-1
 532 827 l 1,10,-1
 889 511 l 1,11,-1
 532 194 l 1,6,-1
EndSplineSet
EndChar

StartChar: questiondown
Encoding: 191 191 126
Width: 1026
GlyphClass: 1
Flags: W
LayerCount: 2
Fore
SplineSet
607 822 m 1,0,-1
 428 822 l 1,1,-1
 428 998 l 1,2,-1
 607 998 l 1,3,-1
 607 822 l 1,0,-1
527 -435 m 256,4,5
 445 -435 445 -435 371 -413 c 128,-1,6
 297 -391 297 -391 241.5 -346.5 c 128,-1,7
 186 -302 186 -302 153 -235.5 c 128,-1,8
 120 -169 120 -169 120 -80 c 0,9,10
 120 -2 120 -2 141.5 49 c 128,-1,11
 163 100 163 100 196.5 134 c 128,-1,12
 230 168 230 168 270 190 c 128,-1,13
 310 212 310 212 347 233 c 128,-1,14
 384 254 384 254 413.5 279.5 c 128,-1,15
 443 305 443 305 454 346 c 0,16,17
 459 364 459 364 461 402.5 c 128,-1,18
 463 441 463 441 463 484 c 256,19,20
 463 527 463 527 462 567.5 c 128,-1,21
 461 608 461 608 461 631 c 1,22,-1
 581 631 l 1,23,-1
 581 410 l 2,24,25
 581 349 581 349 566.5 307.5 c 128,-1,26
 552 266 552 266 528.5 237.5 c 128,-1,27
 505 209 505 209 475 189.5 c 128,-1,28
 445 170 445 170 413.5 152.5 c 128,-1,29
 382 135 382 135 351.5 117 c 128,-1,30
 321 99 321 99 297.5 73 c 128,-1,31
 274 47 274 47 259.5 9.5 c 128,-1,32
 245 -28 245 -28 245 -84 c 0,33,34
 245 -145 245 -145 267.5 -189.5 c 128,-1,35
 290 -234 290 -234 327.5 -263 c 128,-1,36
 365 -292 365 -292 415.5 -306 c 128,-1,37
 466 -320 466 -320 521 -320 c 0,38,39
 578 -320 578 -320 627 -303 c 128,-1,40
 676 -286 676 -286 713 -253.5 c 128,-1,41
 750 -221 750 -221 772 -175 c 128,-1,42
 794 -129 794 -129 796 -70 c 1,43,-1
 923 -70 l 1,44,45
 921 -155 921 -155 890 -222.5 c 128,-1,46
 859 -290 859 -290 805.5 -337.5 c 128,-1,47
 752 -385 752 -385 680.5 -410 c 128,-1,48
 609 -435 609 -435 527 -435 c 256,4,5
EndSplineSet
EndChar

StartChar: Aring
Encoding: 197 197 132
Width: 1300
GlyphClass: 1
Flags: W
LayerCount: 2
Fore
SplineSet
1225 0 m 1,0,-1
 1079 0 l 1,1,-1
 971 307 l 1,2,-1
 332 307 l 1,3,-1
 224 0 l 1,4,-1
 75 0 l 1,5,-1
 571 1341 l 1,6,7
 516 1366 516 1366 485.5 1414.5 c 128,-1,8
 455 1463 455 1463 455 1523 c 0,9,10
 455 1564 455 1564 470 1600 c 128,-1,11
 485 1636 485 1636 511 1662.5 c 128,-1,12
 537 1689 537 1689 572.5 1704.5 c 128,-1,13
 608 1720 608 1720 649 1720 c 256,14,15
 690 1720 690 1720 726 1704.5 c 128,-1,16
 762 1689 762 1689 789 1662 c 128,-1,17
 816 1635 816 1635 832 1599.5 c 128,-1,18
 848 1564 848 1564 848 1523 c 0,19,20
 848 1464 848 1464 816.5 1416 c 128,-1,21
 785 1368 785 1368 731 1345 c 1,22,-1
 1225 0 l 1,0,-1
649 1421 m 0,23,24
 693 1421 693 1421 722 1450 c 128,-1,25
 751 1479 751 1479 751 1523 c 0,26,27
 751 1568 751 1568 722.5 1595.5 c 128,-1,28
 694 1623 694 1623 649 1623 c 0,29,30
 603 1623 603 1623 576 1596 c 128,-1,31
 549 1569 549 1569 549 1523 c 0,32,33
 549 1478 549 1478 576 1449.5 c 128,-1,34
 603 1421 603 1421 649 1421 c 0,23,24
925 435 m 1,35,-1
 653 1213 l 1,36,-1
 377 435 l 1,37,-1
 925 435 l 1,35,-1
EndSplineSet
Position2: "'cpsp' Capital Spacing lookup 0 subtable" dx=5 dy=0 dh=10 dv=0
EndChar

StartChar: AE
Encoding: 198 198 133
Width: 1809
GlyphClass: 1
Flags: W
LayerCount: 2
Fore
SplineSet
1698 0 m 1,0,-1
 812 0 l 1,1,-1
 812 307 l 1,2,-1
 329 307 l 1,3,-1
 218 0 l 1,4,-1
 75 0 l 1,5,-1
 595 1413 l 1,6,-1
 1698 1413 l 1,7,-1
 1698 1304 l 1,8,-1
 949 1304 l 1,9,-1
 949 764 l 1,10,-1
 1609 764 l 1,11,-1
 1609 648 l 1,12,-1
 949 648 l 1,13,-1
 949 116 l 1,14,-1
 1698 116 l 1,15,-1
 1698 0 l 1,0,-1
812 434 m 1,16,-1
 812 1304 l 1,17,-1
 683 1304 l 1,18,-1
 371 434 l 1,19,-1
 812 434 l 1,16,-1
EndSplineSet
Position2: "'cpsp' Capital Spacing lookup 0 subtable" dx=5 dy=0 dh=10 dv=0
EndChar

StartChar: Eth
Encoding: 208 208 143
Width: 1425
GlyphClass: 1
Flags: W
LayerCount: 2
Fore
SplineSet
591 0 m 2,0,-1
 236 0 l 1,1,-1
 236 663 l 1,2,-1
 124 663 l 1,3,-1
 124 762 l 1,4,-1
 236 762 l 1,5,-1
 236 1413 l 1,6,-1
 593 1413 l 2,7,8
 764 1413 764 1413 895 1364.5 c 128,-1,9
 1026 1316 1026 1316 1114.5 1224 c 128,-1,10
 1203 1132 1203 1132 1248 999 c 128,-1,11
 1293 866 1293 866 1293 696 c 0,12,13
 1293 528 1293 528 1246 398.5 c 128,-1,14
 1199 269 1199 269 1109 180.5 c 128,-1,15
 1019 92 1019 92 888.5 46 c 128,-1,16
 758 0 758 0 591 0 c 2,0,-1
567 130 m 2,17,18
 702 130 702 130 809.5 168 c 128,-1,19
 917 206 917 206 992 279 c 128,-1,20
 1067 352 1067 352 1107.5 458 c 128,-1,21
 1148 564 1148 564 1148 700 c 0,22,23
 1148 839 1148 839 1114 948 c 128,-1,24
 1080 1057 1080 1057 1011 1132 c 128,-1,25
 942 1207 942 1207 837 1246 c 128,-1,26
 732 1285 732 1285 589 1285 c 2,27,-1
 381 1285 l 1,28,-1
 381 762 l 1,29,-1
 763 762 l 1,30,-1
 763 663 l 1,31,-1
 381 663 l 1,32,-1
 381 130 l 1,33,-1
 567 130 l 2,17,18
EndSplineSet
Position2: "'cpsp' Capital Spacing lookup 0 subtable" dx=5 dy=0 dh=10 dv=0
EndChar

StartChar: multiply
Encoding: 215 215 150
Width: 1109
GlyphClass: 1
Flags: W
LayerCount: 2
Fore
SplineSet
887 223 m 1,0,-1
 556 556 l 1,1,-1
 231 232 l 1,2,-1
 162 300 l 1,3,-1
 486 625 l 1,4,-1
 154 955 l 1,5,-1
 222 1025 l 1,6,-1
 556 692 l 1,7,-1
 878 1016 l 1,8,-1
 948 948 l 1,9,-1
 624 625 l 1,10,-1
 955 293 l 1,11,-1
 887 223 l 1,0,-1
EndSplineSet
EndChar

StartChar: Oslash
Encoding: 216 216 151
Width: 1515
GlyphClass: 1
Flags: W
LayerCount: 2
Fore
SplineSet
756 -20 m 0,0,1
 675 -20 675 -20 596.5 -2.5 c 128,-1,2
 518 15 518 15 447 55 c 1,3,-1
 416 0 l 1,4,-1
 303 0 l 1,5,-1
 366 112 l 1,6,7
 302 166 302 166 257.5 235.5 c 128,-1,8
 213 305 213 305 185.5 382.5 c 128,-1,9
 158 460 158 460 145.5 543 c 128,-1,10
 133 626 133 626 133 707 c 0,11,12
 133 804 133 804 150 895.5 c 128,-1,13
 167 987 167 987 200.5 1067.5 c 128,-1,14
 234 1148 234 1148 285.5 1215.5 c 128,-1,15
 337 1283 337 1283 406.5 1331.5 c 128,-1,16
 476 1380 476 1380 563 1407 c 128,-1,17
 650 1434 650 1434 756 1434 c 0,18,19
 836 1434 836 1434 914 1416.5 c 128,-1,20
 992 1399 992 1399 1063 1360 c 1,21,-1
 1094 1413 l 1,22,-1
 1207 1413 l 1,23,-1
 1146 1303 l 1,24,25
 1209 1248 1209 1248 1254 1178.5 c 128,-1,26
 1299 1109 1299 1109 1327.5 1031.5 c 128,-1,27
 1356 954 1356 954 1369 871 c 128,-1,28
 1382 788 1382 788 1382 707 c 0,29,30
 1382 610 1382 610 1365 518 c 128,-1,31
 1348 426 1348 426 1314 345 c 128,-1,32
 1280 264 1280 264 1228.5 197 c 128,-1,33
 1177 130 1177 130 1107.5 82 c 128,-1,34
 1038 34 1038 34 950 7 c 128,-1,35
 862 -20 862 -20 756 -20 c 0,0,1
431 229 m 1,36,-1
 1001 1247 l 1,37,38
 944 1278 944 1278 882 1292 c 128,-1,39
 820 1306 820 1306 756 1306 c 0,40,41
 626 1306 626 1306 532.5 1256 c 128,-1,42
 439 1206 439 1206 379 1123 c 128,-1,43
 319 1040 319 1040 290.5 931.5 c 128,-1,44
 262 823 262 823 262 707 c 0,45,46
 262 642 262 642 270.5 577 c 128,-1,47
 279 512 279 512 299 450.5 c 128,-1,48
 319 389 319 389 351.5 332.5 c 128,-1,49
 384 276 384 276 431 229 c 1,36,-1
756 107 m 0,50,51
 887 107 887 107 981.5 156.5 c 128,-1,52
 1076 206 1076 206 1136.5 289 c 128,-1,53
 1197 372 1197 372 1225.5 480.5 c 128,-1,54
 1254 589 1254 589 1254 707 c 0,55,56
 1254 772 1254 772 1245 837.5 c 128,-1,57
 1236 903 1236 903 1215.5 965 c 128,-1,58
 1195 1027 1195 1027 1162.5 1084 c 128,-1,59
 1130 1141 1130 1141 1082 1187 c 1,60,-1
 511 168 l 1,61,62
 567 135 567 135 629.5 121 c 128,-1,63
 692 107 692 107 756 107 c 0,50,51
EndSplineSet
Position2: "'cpsp' Capital Spacing lookup 0 subtable" dx=5 dy=0 dh=10 dv=0
EndChar

StartChar: Thorn
Encoding: 222 222 157
Width: 1151
GlyphClass: 1
Flags: W
LayerCount: 2
Fore
SplineSet
358 0 m 1,0,-1
 221 0 l 1,1,-1
 221 1413 l 1,2,-1
 358 1413 l 1,3,-1
 358 1211 l 1,4,-1
 612 1211 l 2,5,6
 704 1211 704 1211 784 1186.5 c 128,-1,7
 864 1162 864 1162 923.5 1113.5 c 128,-1,8
 983 1065 983 1065 1017.5 991.5 c 128,-1,9
 1052 918 1052 918 1052 820 c 0,10,11
 1052 721 1052 721 1016 649.5 c 128,-1,12
 980 578 980 578 919 531.5 c 128,-1,13
 858 485 858 485 778 463 c 128,-1,14
 698 441 698 441 609 441 c 2,15,-1
 358 441 l 1,16,-1
 358 0 l 1,0,-1
609 568 m 2,17,18
 671 568 671 568 726.5 581 c 128,-1,19
 782 594 782 594 824 623.5 c 128,-1,20
 866 653 866 653 890.5 700.5 c 128,-1,21
 915 748 915 748 915 818 c 0,22,23
 915 887 915 887 890.5 935.5 c 128,-1,24
 866 984 866 984 824 1014.5 c 128,-1,25
 782 1045 782 1045 726.5 1059 c 128,-1,26
 671 1073 671 1073 609 1073 c 2,27,-1
 358 1073 l 1,28,-1
 358 568 l 1,29,-1
 609 568 l 2,17,18
EndSplineSet
Position2: "'cpsp' Capital Spacing lookup 0 subtable" dx=5 dy=0 dh=10 dv=0
EndChar

StartChar: germandbls
Encoding: 223 223 158
Width: 1194
GlyphClass: 1
Flags: W
LayerCount: 2
Fore
SplineSet
736 -18 m 0,0,1
 661 -18 661 -18 592 1.5 c 128,-1,2
 523 21 523 21 455 53 c 1,3,-1
 513 177 l 1,4,5
 565 148 565 148 621 131 c 128,-1,6
 677 114 677 114 737 114 c 0,7,8
 771 114 771 114 807.5 127 c 128,-1,9
 844 140 844 140 874.5 163 c 128,-1,10
 905 186 905 186 924.5 218 c 128,-1,11
 944 250 944 250 944 287 c 0,12,13
 944 342 944 342 920 384 c 128,-1,14
 896 426 896 426 859.5 461.5 c 128,-1,15
 823 497 823 497 780.5 529 c 128,-1,16
 738 561 738 561 701.5 597 c 128,-1,17
 665 633 665 633 641 675 c 128,-1,18
 617 717 617 717 617 773 c 0,19,20
 617 817 617 817 634.5 847 c 128,-1,21
 652 877 652 877 678 901 c 128,-1,22
 704 925 704 925 734 945 c 128,-1,23
 764 965 764 965 790 988 c 128,-1,24
 816 1011 816 1011 833.5 1041 c 128,-1,25
 851 1071 851 1071 851 1114 c 0,26,27
 851 1144 851 1144 843.5 1166.5 c 128,-1,28
 836 1189 836 1189 818 1213 c 0,29,30
 777 1270 777 1270 720.5 1292 c 128,-1,31
 664 1314 664 1314 596 1314 c 0,32,33
 506 1314 506 1314 450.5 1275.5 c 128,-1,34
 395 1237 395 1237 364 1176.5 c 128,-1,35
 333 1116 333 1116 322 1041 c 128,-1,36
 311 966 311 966 311 894 c 2,37,-1
 311 0 l 1,38,-1
 184 0 l 1,39,-1
 184 875 l 2,40,41
 184 945 184 945 191 1013.5 c 128,-1,42
 198 1082 198 1082 215.5 1144 c 128,-1,43
 233 1206 233 1206 262.5 1259.5 c 128,-1,44
 292 1313 292 1313 337.5 1351.5 c 128,-1,45
 383 1390 383 1390 445.5 1412 c 128,-1,46
 508 1434 508 1434 592 1434 c 0,47,48
 662 1434 662 1434 732.5 1410.5 c 128,-1,49
 803 1387 803 1387 860 1343.5 c 128,-1,50
 917 1300 917 1300 952.5 1238.5 c 128,-1,51
 988 1177 988 1177 988 1101 c 0,52,53
 988 1052 988 1052 970.5 1019 c 128,-1,54
 953 986 953 986 927 962 c 128,-1,55
 901 938 901 938 871 919.5 c 128,-1,56
 841 901 841 901 815 880.5 c 128,-1,57
 789 860 789 860 771.5 834.5 c 128,-1,58
 754 809 754 809 754 771 c 0,59,60
 754 730 754 730 778 697.5 c 128,-1,61
 802 665 802 665 837.5 635.5 c 128,-1,62
 873 606 873 606 914.5 575.5 c 128,-1,63
 956 545 956 545 991.5 507 c 128,-1,64
 1027 469 1027 469 1051 420 c 128,-1,65
 1075 371 1075 371 1075 304 c 0,66,67
 1075 232 1075 232 1048 173 c 128,-1,68
 1021 114 1021 114 975 71.5 c 128,-1,69
 929 29 929 29 867.5 5.5 c 128,-1,70
 806 -18 806 -18 736 -18 c 0,0,1
EndSplineSet
EndChar

StartChar: ae
Encoding: 230 230 165
Width: 1711
GlyphClass: 1
Flags: W
LayerCount: 2
Fore
SplineSet
408 -20 m 0,0,1
 344 -20 344 -20 286 1.5 c 128,-1,2
 228 23 228 23 183.5 62.5 c 128,-1,3
 139 102 139 102 113 157 c 128,-1,4
 87 212 87 212 87 279 c 0,5,6
 87 365 87 365 115.5 423.5 c 128,-1,7
 144 482 144 482 193.5 518 c 128,-1,8
 243 554 243 554 310.5 570 c 128,-1,9
 378 586 378 586 455 586 c 2,10,-1
 787 586 l 1,11,12
 787 657 787 657 775 722.5 c 128,-1,13
 763 788 763 788 732 839 c 128,-1,14
 701 890 701 890 647.5 920.5 c 128,-1,15
 594 951 594 951 511 951 c 0,16,17
 469 951 469 951 428.5 940 c 128,-1,18
 388 929 388 929 351.5 909 c 128,-1,19
 315 889 315 889 283.5 861 c 128,-1,20
 252 833 252 833 228 798 c 1,21,-1
 127 866 l 1,22,23
 203 966 203 966 298 1011 c 128,-1,24
 393 1056 393 1056 518 1056 c 0,25,26
 576 1056 576 1056 627.5 1045 c 128,-1,27
 679 1034 679 1034 722.5 1010 c 128,-1,28
 766 986 766 986 799.5 947 c 128,-1,29
 833 908 833 908 855 851 c 1,30,31
 910 954 910 954 996.5 1003 c 128,-1,32
 1083 1052 1083 1052 1198 1052 c 0,33,34
 1293 1052 1293 1052 1367.5 1025 c 128,-1,35
 1442 998 1442 998 1495 947.5 c 128,-1,36
 1548 897 1548 897 1579.5 824 c 128,-1,37
 1611 751 1611 751 1619 658 c 0,38,39
 1623 619 1623 619 1624 579.5 c 128,-1,40
 1625 540 1625 540 1625 500 c 0,41,42
 1625 495 1625 495 1624 489 c 128,-1,43
 1623 483 1623 483 1622 478 c 1,44,-1
 902 478 l 1,45,46
 902 403 902 403 919.5 334.5 c 128,-1,47
 937 266 937 266 975 214.5 c 128,-1,48
 1013 163 1013 163 1072 132 c 128,-1,49
 1131 101 1131 101 1215 101 c 0,50,51
 1259 101 1259 101 1300 105.5 c 128,-1,52
 1341 110 1341 110 1378.5 122.5 c 128,-1,53
 1416 135 1416 135 1451 156.5 c 128,-1,54
 1486 178 1486 178 1517 211 c 1,55,-1
 1602 139 l 1,56,57
 1560 97 1560 97 1516.5 68.5 c 128,-1,58
 1473 40 1473 40 1426 22 c 128,-1,59
 1379 4 1379 4 1327.5 -4 c 128,-1,60
 1276 -12 1276 -12 1217 -12 c 0,61,62
 1065 -12 1065 -12 963.5 62.5 c 128,-1,63
 862 137 862 137 819 283 c 1,64,65
 773 134 773 134 668 57 c 128,-1,66
 563 -20 563 -20 408 -20 c 0,0,1
1503 588 m 1,67,-1
 1503 596 l 2,68,69
 1503 669 1503 669 1484.5 731.5 c 128,-1,70
 1466 794 1466 794 1428.5 839.5 c 128,-1,71
 1391 885 1391 885 1333.5 910.5 c 128,-1,72
 1276 936 1276 936 1198 936 c 0,73,74
 1124 936 1124 936 1069 907 c 128,-1,75
 1014 878 1014 878 977 829.5 c 128,-1,76
 940 781 940 781 921.5 718 c 128,-1,77
 903 655 903 655 902 588 c 1,78,-1
 1503 588 l 1,67,-1
446 90 m 0,79,80
 502 90 502 90 553 109.5 c 128,-1,81
 604 129 604 129 647 163 c 128,-1,82
 690 197 690 197 721.5 243 c 128,-1,83
 753 289 753 289 769 341 c 0,84,85
 780 374 780 374 782.5 408.5 c 128,-1,86
 785 443 785 443 790 478 c 1,87,-1
 452 478 l 2,88,89
 404 478 404 478 362 465 c 128,-1,90
 320 452 320 452 289 426.5 c 128,-1,91
 258 401 258 401 240 362.5 c 128,-1,92
 222 324 222 324 222 272 c 0,93,94
 222 231 222 231 243 197.5 c 128,-1,95
 264 164 264 164 297 140 c 128,-1,96
 330 116 330 116 369.5 103 c 128,-1,97
 409 90 409 90 446 90 c 0,79,80
EndSplineSet
EndChar

StartChar: eth
Encoding: 240 240 175
Width: 1180
GlyphClass: 1
Flags: W
LayerCount: 2
Fore
SplineSet
582 -16 m 0,0,1
 465 -16 465 -16 375.5 30 c 128,-1,2
 286 76 286 76 224.5 152.5 c 128,-1,3
 163 229 163 229 131.5 328.5 c 128,-1,4
 100 428 100 428 100 536 c 0,5,6
 100 640 100 640 131 735 c 128,-1,7
 162 830 162 830 221 902 c 128,-1,8
 280 974 280 974 366.5 1017 c 128,-1,9
 453 1060 453 1060 564 1060 c 0,10,11
 600 1060 600 1060 640 1054.5 c 128,-1,12
 680 1049 680 1049 718 1037 c 128,-1,13
 756 1025 756 1025 791 1006 c 128,-1,14
 826 987 826 987 852 960 c 1,15,16
 840 1016 840 1016 812.5 1064.5 c 128,-1,17
 785 1113 785 1113 748.5 1155 c 128,-1,18
 712 1197 712 1197 667.5 1232 c 128,-1,19
 623 1267 623 1267 576 1297 c 1,20,-1
 479 1170 l 1,21,-1
 390 1222 l 1,22,23
 414 1254 414 1254 437.5 1285.5 c 128,-1,24
 461 1317 461 1317 485 1348 c 1,25,26
 440 1369 440 1369 395.5 1389 c 128,-1,27
 351 1409 351 1409 305 1426 c 1,28,-1
 375 1517 l 1,29,30
 421 1500 421 1500 466 1482 c 128,-1,31
 511 1464 511 1464 556 1442 c 1,32,33
 571 1464 571 1464 587 1485 c 128,-1,34
 603 1506 603 1506 620 1527 c 1,35,-1
 713 1476 l 1,36,-1
 650 1393 l 1,37,38
 770 1313 770 1313 849.5 1218 c 128,-1,39
 929 1123 929 1123 976.5 1013.5 c 128,-1,40
 1024 904 1024 904 1044 780 c 128,-1,41
 1064 656 1064 656 1064 517 c 0,42,43
 1064 411 1064 411 1030.5 314.5 c 128,-1,44
 997 218 997 218 934.5 144.5 c 128,-1,45
 872 71 872 71 783 27.5 c 128,-1,46
 694 -16 694 -16 582 -16 c 0,0,1
588 107 m 0,47,48
 676 107 676 107 738.5 145.5 c 128,-1,49
 801 184 801 184 841 245.5 c 128,-1,50
 881 307 881 307 899.5 384 c 128,-1,51
 918 461 918 461 918 537 c 0,52,53
 918 617 918 617 898.5 692 c 128,-1,54
 879 767 879 767 838 825.5 c 128,-1,55
 797 884 797 884 732.5 919.5 c 128,-1,56
 668 955 668 955 578 955 c 0,57,58
 490 955 490 955 427 918.5 c 128,-1,59
 364 882 364 882 324 823 c 128,-1,60
 284 764 284 764 265.5 688.5 c 128,-1,61
 247 613 247 613 247 536 c 0,62,63
 247 456 247 456 266 379 c 128,-1,64
 285 302 285 302 326 241.5 c 128,-1,65
 367 181 367 181 432 144 c 128,-1,66
 497 107 497 107 588 107 c 0,47,48
EndSplineSet
EndChar

StartChar: divide
Encoding: 247 247 182
Width: 897
GlyphClass: 1
Flags: W
LayerCount: 2
Fore
SplineSet
533 918 m 1,0,-1
 354 918 l 1,1,-1
 354 1095 l 1,2,-1
 533 1095 l 1,3,-1
 533 918 l 1,0,-1
752 579 m 1,4,-1
 135 579 l 1,5,-1
 135 676 l 1,6,-1
 752 676 l 1,7,-1
 752 579 l 1,4,-1
533 142 m 1,8,-1
 354 142 l 1,9,-1
 354 318 l 1,10,-1
 533 318 l 1,11,-1
 533 142 l 1,8,-1
EndSplineSet
EndChar

StartChar: oslash
Encoding: 248 248 183
Width: 1144
GlyphClass: 1
Flags: W
LayerCount: 2
Fore
SplineSet
573 -20 m 0,0,1
 513 -20 513 -20 456 -6.5 c 128,-1,2
 399 7 399 7 346 36 c 1,3,-1
 325 1 l 1,4,-1
 243 1 l 1,5,-1
 286 75 l 1,6,7
 189 158 189 158 143 272.5 c 128,-1,8
 97 387 97 387 97 513 c 0,9,10
 97 617 97 617 130.5 714.5 c 128,-1,11
 164 812 164 812 226 887 c 128,-1,12
 288 962 288 962 377 1007 c 128,-1,13
 466 1052 466 1052 577 1052 c 0,14,15
 635 1052 635 1052 691.5 1038.5 c 128,-1,16
 748 1025 748 1025 799 997 c 1,17,-1
 799 998 l 1,18,-1
 823 1038 l 1,19,-1
 906 1038 l 1,20,-1
 860 958 l 1,21,22
 910 918 910 918 946.5 868 c 128,-1,23
 983 818 983 818 1007 761 c 128,-1,24
 1031 704 1031 704 1043 642 c 128,-1,25
 1055 580 1055 580 1055 518 c 0,26,27
 1055 414 1055 414 1021 317 c 128,-1,28
 987 220 987 220 924.5 145 c 128,-1,29
 862 70 862 70 773 25 c 128,-1,30
 684 -20 684 -20 573 -20 c 0,0,1
350 190 m 1,31,-1
 740 893 l 1,32,33
 702 914 702 914 660 924 c 128,-1,34
 618 934 618 934 575 934 c 0,35,36
 487 934 487 934 423 898 c 128,-1,37
 359 862 359 862 318 803.5 c 128,-1,38
 277 745 277 745 257 669.5 c 128,-1,39
 237 594 237 594 237 516 c 0,40,41
 237 471 237 471 242.5 427 c 128,-1,42
 248 383 248 383 260.5 341 c 128,-1,43
 273 299 273 299 295 261 c 128,-1,44
 317 223 317 223 350 190 c 1,31,-1
575 97 m 0,45,46
 664 97 664 97 728 133 c 128,-1,47
 792 169 792 169 833.5 228 c 128,-1,48
 875 287 875 287 894.5 362 c 128,-1,49
 914 437 914 437 914 516 c 0,50,51
 914 609 914 609 888.5 693.5 c 128,-1,52
 863 778 863 778 798 848 c 1,53,-1
 407 143 l 1,54,55
 445 119 445 119 487.5 108 c 128,-1,56
 530 97 530 97 575 97 c 0,45,46
EndSplineSet
EndChar

StartChar: thorn
Encoding: 254 254 189
Width: 1163
GlyphClass: 1
Flags: W
LayerCount: 2
Fore
SplineSet
327 -439 m 1,0,-1
 186 -439 l 1,1,-1
 186 1413 l 1,2,-1
 327 1413 l 1,3,-1
 327 881 l 1,4,5
 387 977 387 977 471.5 1018.5 c 128,-1,6
 556 1060 556 1060 667 1060 c 0,7,8
 739 1060 739 1060 797 1037 c 128,-1,9
 855 1014 855 1014 899 974 c 128,-1,10
 943 934 943 934 975 881 c 128,-1,11
 1007 828 1007 828 1027 768 c 128,-1,12
 1047 708 1047 708 1056.5 644 c 128,-1,13
 1066 580 1066 580 1066 519 c 0,14,15
 1066 426 1066 426 1044 330.5 c 128,-1,16
 1022 235 1022 235 973.5 157 c 128,-1,17
 925 79 925 79 848.5 29.5 c 128,-1,18
 772 -20 772 -20 663 -20 c 256,19,20
 554 -20 554 -20 470 22 c 128,-1,21
 386 64 386 64 327 158 c 1,22,-1
 327 -439 l 1,0,-1
623 100 m 0,23,24
 710 100 710 100 768.5 138 c 128,-1,25
 827 176 827 176 863 236.5 c 128,-1,26
 899 297 899 297 914.5 372 c 128,-1,27
 930 447 930 447 930 520 c 0,28,29
 930 594 930 594 914 668.5 c 128,-1,30
 898 743 898 743 861 803 c 128,-1,31
 824 863 824 863 764.5 900.5 c 128,-1,32
 705 938 705 938 618 938 c 0,33,34
 534 938 534 938 475.5 899.5 c 128,-1,35
 417 861 417 861 381 800.5 c 128,-1,36
 345 740 345 740 328.5 665.5 c 128,-1,37
 312 591 312 591 312 520 c 0,38,39
 312 447 312 447 328.5 372 c 128,-1,40
 345 297 345 297 381.5 236.5 c 128,-1,41
 418 176 418 176 477.5 138 c 128,-1,42
 537 100 537 100 623 100 c 0,23,24
EndSplineSet
EndChar

StartChar: Aogonek
Encoding: 260 260 195
Width: 1298
GlyphClass: 1
Flags: W
LayerCount: 2
Fore
SplineSet
1093 -452 m 0,0,1
 1048 -452 1048 -452 1011.5 -436.5 c 128,-1,2
 975 -421 975 -421 948.5 -394 c 128,-1,3
 922 -367 922 -367 907.5 -329.5 c 128,-1,4
 893 -292 893 -292 893 -248 c 0,5,6
 893 -209 893 -209 904 -178 c 128,-1,7
 915 -147 915 -147 935 -121.5 c 128,-1,8
 955 -96 955 -96 982 -75.5 c 128,-1,9
 1009 -55 1009 -55 1040 -36 c 0,10,11
 1046 -33 1046 -33 1055 -27 c 128,-1,12
 1064 -21 1064 -21 1074.5 -16 c 128,-1,13
 1085 -11 1085 -11 1094.5 -7 c 128,-1,14
 1104 -3 1104 -3 1110 -3 c 2,15,-1
 1222 0 l 1,16,-1
 1079 0 l 1,17,-1
 971 307 l 1,18,-1
 332 307 l 1,19,-1
 224 0 l 1,20,-1
 75 0 l 1,21,-1
 599 1413 l 1,22,-1
 705 1413 l 1,23,-1
 1225 0 l 1,24,-1
 1222 0 l 1,25,26
 1188 -13 1188 -13 1147.5 -35.5 c 128,-1,27
 1107 -58 1107 -58 1072.5 -88.5 c 128,-1,28
 1038 -119 1038 -119 1015 -156 c 128,-1,29
 992 -193 992 -193 992 -235 c 0,30,31
 992 -256 992 -256 997.5 -276.5 c 128,-1,32
 1003 -297 1003 -297 1014.5 -312.5 c 128,-1,33
 1026 -328 1026 -328 1043 -338 c 128,-1,34
 1060 -348 1060 -348 1084 -348 c 0,35,36
 1123 -348 1123 -348 1155 -332 c 128,-1,37
 1187 -316 1187 -316 1210 -284 c 1,38,-1
 1295 -343 l 1,39,40
 1258 -397 1258 -397 1208.5 -424.5 c 128,-1,41
 1159 -452 1159 -452 1093 -452 c 0,0,1
925 435 m 1,42,-1
 653 1213 l 1,43,-1
 377 435 l 1,44,-1
 925 435 l 1,42,-1
EndSplineSet
Position2: "'cpsp' Capital Spacing lookup 0 subtable" dx=5 dy=0 dh=10 dv=0
EndChar

StartChar: aogonek
Encoding: 261 261 196
Width: 1040
GlyphClass: 1
Flags: W
LayerCount: 2
Fore
SplineSet
760 -452 m 0,0,1
 714 -452 714 -452 676.5 -437.5 c 128,-1,2
 639 -423 639 -423 612 -396 c 128,-1,3
 585 -369 585 -369 570.5 -331.5 c 128,-1,4
 556 -294 556 -294 556 -248 c 0,5,6
 556 -199 556 -199 575.5 -159.5 c 128,-1,7
 595 -120 595 -120 627 -89.5 c 128,-1,8
 659 -59 659 -59 700 -37.5 c 128,-1,9
 741 -16 741 -16 784 -3 c 1,10,11
 781 41 781 41 781 85 c 2,12,-1
 782 216 l 1,13,14
 727 101 727 101 632.5 40.5 c 128,-1,15
 538 -20 538 -20 410 -20 c 0,16,17
 340 -20 340 -20 280.5 0 c 128,-1,18
 221 20 221 20 177.5 58 c 128,-1,19
 134 96 134 96 109.5 152 c 128,-1,20
 85 208 85 208 85 281 c 0,21,22
 85 346 85 346 104.5 393.5 c 128,-1,23
 124 441 124 441 158 475 c 128,-1,24
 192 509 192 509 237.5 530.5 c 128,-1,25
 283 552 283 552 334 564.5 c 128,-1,26
 385 577 385 577 439 581.5 c 128,-1,27
 493 586 493 586 545 586 c 2,28,-1
 777 586 l 1,29,30
 777 655 777 655 766 719.5 c 128,-1,31
 755 784 755 784 725 834.5 c 128,-1,32
 695 885 695 885 643 915.5 c 128,-1,33
 591 946 591 946 510 946 c 0,34,35
 415 946 415 946 342 906 c 128,-1,36
 269 866 269 866 214 789 c 1,37,-1
 123 865 l 1,38,39
 192 962 192 962 286.5 1009 c 128,-1,40
 381 1056 381 1056 499 1056 c 0,41,42
 595 1056 595 1056 668 1025.5 c 128,-1,43
 741 995 741 995 790.5 940 c 128,-1,44
 840 885 840 885 865.5 808.5 c 128,-1,45
 891 732 891 732 891 639 c 2,46,-1
 891 0 l 1,47,48
 855 -15 855 -15 813.5 -36.5 c 128,-1,49
 772 -58 772 -58 736.5 -87 c 128,-1,50
 701 -116 701 -116 678 -153 c 128,-1,51
 655 -190 655 -190 655 -235 c 0,52,53
 655 -257 655 -257 660.5 -277.5 c 128,-1,54
 666 -298 666 -298 677 -313.5 c 128,-1,55
 688 -329 688 -329 706 -338.5 c 128,-1,56
 724 -348 724 -348 748 -348 c 0,57,58
 831 -348 831 -348 878 -284 c 1,59,-1
 966 -343 l 1,60,61
 927 -399 927 -399 878 -425.5 c 128,-1,62
 829 -452 829 -452 760 -452 c 0,0,1
422 86 m 0,63,64
 502 86 502 86 567 121 c 128,-1,65
 632 156 632 156 679 212.5 c 128,-1,66
 726 269 726 269 751.5 341 c 128,-1,67
 777 413 777 413 777 488 c 1,68,-1
 575 488 l 2,69,70
 537 488 537 488 496 486.5 c 128,-1,71
 455 485 455 485 415 478 c 128,-1,72
 375 471 375 471 339 458 c 128,-1,73
 303 445 303 445 276 421.5 c 128,-1,74
 249 398 249 398 233 363 c 128,-1,75
 217 328 217 328 217 278 c 0,76,77
 217 181 217 181 273 133.5 c 128,-1,78
 329 86 329 86 422 86 c 0,63,64
EndSplineSet
EndChar

StartChar: dcaron
Encoding: 271 271 206
Width: 1218
GlyphClass: 1
Flags: W
LayerCount: 2
Fore
SplineSet
510 -20 m 0,0,1
 438 -20 438 -20 380.5 3 c 128,-1,2
 323 26 323 26 278.5 65.5 c 128,-1,3
 234 105 234 105 201.5 157.5 c 128,-1,4
 169 210 169 210 148.5 270 c 128,-1,5
 128 330 128 330 118 394 c 128,-1,6
 108 458 108 458 108 519 c 0,7,8
 108 582 108 582 118 646 c 128,-1,9
 128 710 128 710 149 770 c 128,-1,10
 170 830 170 830 202.5 883 c 128,-1,11
 235 936 235 936 280.5 975.5 c 128,-1,12
 326 1015 326 1015 384.5 1037.5 c 128,-1,13
 443 1060 443 1060 516 1060 c 0,14,15
 622 1060 622 1060 704 1018.5 c 128,-1,16
 786 977 786 977 846 889 c 1,17,-1
 846 1413 l 1,18,-1
 973 1413 l 1,19,-1
 973 0 l 1,20,-1
 846 0 l 1,21,-1
 846 150 l 1,22,23
 782 59 782 59 701 19.5 c 128,-1,24
 620 -20 620 -20 510 -20 c 0,0,1
1193 1071 m 1,25,-1
 1092 1071 l 1,26,-1
 1196 1413 l 1,27,-1
 1404 1413 l 1,28,-1
 1193 1071 l 1,25,-1
547 95 m 0,29,30
 606 95 606 95 652 112.5 c 128,-1,31
 698 130 698 130 732.5 161 c 128,-1,32
 767 192 767 192 790.5 233.5 c 128,-1,33
 814 275 814 275 829 322 c 128,-1,34
 844 369 844 369 850.5 420 c 128,-1,35
 857 471 857 471 857 520 c 0,36,37
 857 594 857 594 841.5 669.5 c 128,-1,38
 826 745 826 745 790 805.5 c 128,-1,39
 754 866 754 866 694.5 904 c 128,-1,40
 635 942 635 942 547 942 c 0,41,42
 460 942 460 942 401 903.5 c 128,-1,43
 342 865 342 865 305.5 804 c 128,-1,44
 269 743 269 743 253.5 668 c 128,-1,45
 238 593 238 593 238 520 c 256,46,47
 238 447 238 447 253.5 371.5 c 128,-1,48
 269 296 269 296 305.5 234.5 c 128,-1,49
 342 173 342 173 401 134 c 128,-1,50
 460 95 460 95 547 95 c 0,29,30
EndSplineSet
EndChar

StartChar: Dcroat
Encoding: 272 272 207
Width: 1421
GlyphClass: 1
Flags: W
LayerCount: 2
Fore
SplineSet
591 0 m 2,0,-1
 236 0 l 1,1,-1
 236 663 l 1,2,-1
 124 663 l 1,3,-1
 124 762 l 1,4,-1
 236 762 l 1,5,-1
 236 1413 l 1,6,-1
 593 1413 l 2,7,8
 764 1413 764 1413 895 1364.5 c 128,-1,9
 1026 1316 1026 1316 1114.5 1224 c 128,-1,10
 1203 1132 1203 1132 1248 999 c 128,-1,11
 1293 866 1293 866 1293 696 c 0,12,13
 1293 528 1293 528 1246 398.5 c 128,-1,14
 1199 269 1199 269 1109 180.5 c 128,-1,15
 1019 92 1019 92 888.5 46 c 128,-1,16
 758 0 758 0 591 0 c 2,0,-1
567 130 m 2,17,18
 702 130 702 130 809.5 168 c 128,-1,19
 917 206 917 206 992 279 c 128,-1,20
 1067 352 1067 352 1107.5 458 c 128,-1,21
 1148 564 1148 564 1148 700 c 0,22,23
 1148 839 1148 839 1114 947.5 c 128,-1,24
 1080 1056 1080 1056 1011 1131 c 128,-1,25
 942 1206 942 1206 837 1245.5 c 128,-1,26
 732 1285 732 1285 589 1285 c 2,27,-1
 381 1285 l 1,28,-1
 381 762 l 1,29,-1
 763 762 l 1,30,-1
 763 663 l 1,31,-1
 381 663 l 1,32,-1
 381 130 l 1,33,-1
 567 130 l 2,17,18
EndSplineSet
Position2: "'cpsp' Capital Spacing lookup 0 subtable" dx=5 dy=0 dh=10 dv=0
EndChar

StartChar: dcroat
Encoding: 273 273 208
Width: 1154
GlyphClass: 1
Flags: W
LayerCount: 2
Fore
SplineSet
510 -20 m 0,0,1
 438 -20 438 -20 380 3 c 128,-1,2
 322 26 322 26 277.5 65 c 128,-1,3
 233 104 233 104 201 157 c 128,-1,4
 169 210 169 210 148.5 270 c 128,-1,5
 128 330 128 330 118 394 c 128,-1,6
 108 458 108 458 108 519 c 0,7,8
 108 581 108 581 118 645.5 c 128,-1,9
 128 710 128 710 149 770 c 128,-1,10
 170 830 170 830 202.5 883 c 128,-1,11
 235 936 235 936 280 975 c 128,-1,12
 325 1014 325 1014 383.5 1037 c 128,-1,13
 442 1060 442 1060 515 1060 c 0,14,15
 621 1060 621 1060 703.5 1018.5 c 128,-1,16
 786 977 786 977 846 889 c 1,17,-1
 846 1184 l 1,18,-1
 529 1184 l 1,19,-1
 529 1289 l 1,20,-1
 846 1289 l 1,21,-1
 846 1413 l 1,22,-1
 973 1413 l 1,23,-1
 973 1289 l 1,24,-1
 1182 1289 l 1,25,-1
 1182 1184 l 1,26,-1
 973 1184 l 1,27,-1
 973 0 l 1,28,-1
 847 0 l 1,29,-1
 846 151 l 1,30,31
 783 59 783 59 702 19.5 c 128,-1,32
 621 -20 621 -20 510 -20 c 0,0,1
548 95 m 0,33,34
 637 95 637 95 696.5 133.5 c 128,-1,35
 756 172 756 172 791.5 233 c 128,-1,36
 827 294 827 294 842 370 c 128,-1,37
 857 446 857 446 857 520 c 256,38,39
 857 594 857 594 841.5 669.5 c 128,-1,40
 826 745 826 745 790 805.5 c 128,-1,41
 754 866 754 866 695 904 c 128,-1,42
 636 942 636 942 548 942 c 0,43,44
 461 942 461 942 402 903.5 c 128,-1,45
 343 865 343 865 306.5 804 c 128,-1,46
 270 743 270 743 254.5 668 c 128,-1,47
 239 593 239 593 239 520 c 0,48,49
 239 446 239 446 254.5 370.5 c 128,-1,50
 270 295 270 295 306 233.5 c 128,-1,51
 342 172 342 172 401 133.5 c 128,-1,52
 460 95 460 95 548 95 c 0,33,34
EndSplineSet
EndChar

StartChar: Eogonek
Encoding: 280 280 215
Width: 1237
GlyphClass: 1
Flags: W
LayerCount: 2
Fore
SplineSet
996 -452 m 0,0,1
 951 -452 951 -452 914 -436.5 c 128,-1,2
 877 -421 877 -421 850.5 -394 c 128,-1,3
 824 -367 824 -367 809.5 -329.5 c 128,-1,4
 795 -292 795 -292 795 -248 c 0,5,6
 795 -208 795 -208 807.5 -175.5 c 128,-1,7
 820 -143 820 -143 841.5 -116 c 128,-1,8
 863 -89 863 -89 892 -67.5 c 128,-1,9
 921 -46 921 -46 954 -29 c 2,10,-1
 966 -23 l 2,11,12
 974 -18 974 -18 983.5 -14 c 128,-1,13
 993 -10 993 -10 1001 -7 c 0,14,15
 1010 -4 1010 -4 1026.5 -2.5 c 128,-1,16
 1043 -1 1043 -1 1061.5 -0.5 c 128,-1,17
 1080 0 1080 0 1098 0 c 1,18,-1
 220 0 l 1,19,-1
 220 1413 l 1,20,-1
 1129 1413 l 1,21,-1
 1129 1298 l 1,22,-1
 357 1298 l 1,23,-1
 357 762 l 1,24,-1
 1019 762 l 1,25,-1
 1019 652 l 1,26,-1
 357 652 l 1,27,-1
 357 123 l 1,28,-1
 1129 123 l 1,29,-1
 1129 0 l 1,30,-1
 1125 0 l 1,31,32
 1091 -13 1091 -13 1050.5 -35.5 c 128,-1,33
 1010 -58 1010 -58 975.5 -89 c 128,-1,34
 941 -120 941 -120 918 -157 c 128,-1,35
 895 -194 895 -194 895 -235 c 0,36,37
 895 -256 895 -256 900 -276.5 c 128,-1,38
 905 -297 905 -297 916.5 -312.5 c 128,-1,39
 928 -328 928 -328 945 -338 c 128,-1,40
 962 -348 962 -348 986 -348 c 0,41,42
 1068 -348 1068 -348 1113 -284 c 1,43,-1
 1197 -343 l 1,44,45
 1160 -397 1160 -397 1111 -424.5 c 128,-1,46
 1062 -452 1062 -452 996 -452 c 0,0,1
EndSplineSet
Position2: "'cpsp' Capital Spacing lookup 0 subtable" dx=5 dy=0 dh=10 dv=0
EndChar

StartChar: eogonek
Encoding: 281 281 216
Width: 1052
GlyphClass: 1
Flags: W
LayerCount: 2
Fore
SplineSet
667 -407 m 0,0,1
 622 -407 622 -407 584.5 -392 c 128,-1,2
 547 -377 547 -377 520 -350 c 128,-1,3
 493 -323 493 -323 477.5 -285.5 c 128,-1,4
 462 -248 462 -248 462 -203 c 0,5,6
 462 -140 462 -140 491.5 -93.5 c 128,-1,7
 521 -47 521 -47 572 -12 c 1,8,9
 452 -12 452 -12 363.5 28 c 128,-1,10
 275 68 275 68 217.5 138 c 128,-1,11
 160 208 160 208 132 304.5 c 128,-1,12
 104 401 104 401 104 513 c 0,13,14
 104 611 104 611 129.5 707.5 c 128,-1,15
 155 804 155 804 208.5 880.5 c 128,-1,16
 262 957 262 957 343 1004.5 c 128,-1,17
 424 1052 424 1052 535 1052 c 0,18,19
 658 1052 658 1052 740 1006.5 c 128,-1,20
 822 961 822 961 871 884.5 c 128,-1,21
 920 808 920 808 940.5 709 c 128,-1,22
 961 610 961 610 961 503 c 0,23,24
 961 496 961 496 959.5 490 c 128,-1,25
 958 484 958 484 957 477 c 1,26,-1
 237 477 l 1,27,-1
 237 460 l 2,28,29
 237 388 237 388 257 322.5 c 128,-1,30
 277 257 277 257 316 207 c 128,-1,31
 355 157 355 157 413.5 127 c 128,-1,32
 472 97 472 97 550 97 c 0,33,34
 594 97 594 97 635 102 c 128,-1,35
 676 107 676 107 713.5 119.5 c 128,-1,36
 751 132 751 132 785.5 154 c 128,-1,37
 820 176 820 176 850 210 c 1,38,-1
 936 138 l 1,39,40
 901 104 901 104 862 76.5 c 128,-1,41
 823 49 823 49 778 30 c 0,42,43
 763 24 763 24 747.5 20.5 c 128,-1,44
 732 17 732 17 718 10 c 0,45,46
 690 -2 690 -2 662.5 -23 c 128,-1,47
 635 -44 635 -44 612.5 -70 c 128,-1,48
 590 -96 590 -96 576 -126.5 c 128,-1,49
 562 -157 562 -157 562 -189 c 0,50,51
 562 -211 562 -211 568 -231.5 c 128,-1,52
 574 -252 574 -252 585.5 -268 c 128,-1,53
 597 -284 597 -284 615 -293.5 c 128,-1,54
 633 -303 633 -303 657 -303 c 0,55,56
 739 -303 739 -303 789 -239 c 1,57,-1
 875 -298 l 1,58,59
 834 -354 834 -354 785.5 -380.5 c 128,-1,60
 737 -407 737 -407 667 -407 c 0,0,1
840 585 m 1,61,-1
 840 595 l 2,62,63
 840 669 840 669 821.5 731 c 128,-1,64
 803 793 803 793 765.5 839 c 128,-1,65
 728 885 728 885 670.5 910.5 c 128,-1,66
 613 936 613 936 535 936 c 0,67,68
 459 936 459 936 403.5 907 c 128,-1,69
 348 878 348 878 311.5 829 c 128,-1,70
 275 780 275 780 257 717 c 128,-1,71
 239 654 239 654 237 585 c 1,72,-1
 840 585 l 1,61,-1
EndSplineSet
EndChar

StartChar: uni0123
Encoding: 291 291 226
Width: 1042
GlyphClass: 1
Flags: W
LayerCount: 2
Fore
SplineSet
634 1170 m 1,0,-1
 425 1170 l 1,1,-1
 657 1435 l 1,2,-1
 757 1435 l 1,3,-1
 634 1170 l 1,0,-1
553 -457 m 0,4,5
 477 -457 477 -457 400 -435.5 c 128,-1,6
 323 -414 323 -414 260.5 -371 c 128,-1,7
 198 -328 198 -328 159 -263 c 128,-1,8
 120 -198 120 -198 120 -112 c 0,9,10
 120 -93 120 -93 123 -75 c 1,11,-1
 277 88 l 1,12,13
 213 121 213 121 177.5 173 c 128,-1,14
 142 225 142 225 142 299 c 0,15,16
 142 349 142 349 158.5 388.5 c 128,-1,17
 175 428 175 428 212 461 c 1,18,19
 167 511 167 511 147 570.5 c 128,-1,20
 127 630 127 630 127 696 c 0,21,22
 127 777 127 777 156 843 c 128,-1,23
 185 909 185 909 236 955.5 c 128,-1,24
 287 1002 287 1002 356 1027 c 128,-1,25
 425 1052 425 1052 504 1052 c 0,26,27
 581 1052 581 1052 649 1029 c 128,-1,28
 717 1006 717 1006 774 952 c 1,29,-1
 925 1085 l 1,30,-1
 1001 995 l 1,31,-1
 835 864 l 1,32,33
 854 825 854 825 862.5 783 c 128,-1,34
 871 741 871 741 871 698 c 0,35,36
 871 617 871 617 842.5 552.5 c 128,-1,37
 814 488 814 488 763.5 443 c 128,-1,38
 713 398 713 398 645 374 c 128,-1,39
 577 350 577 350 499 350 c 0,40,41
 448 350 448 350 399 360.5 c 128,-1,42
 350 371 350 371 305 393 c 1,43,44
 284 377 284 377 270 355 c 128,-1,45
 256 333 256 333 256 306 c 0,46,47
 256 253 256 253 286 222 c 128,-1,48
 316 191 316 191 365 173.5 c 128,-1,49
 414 156 414 156 476.5 146.5 c 128,-1,50
 539 137 539 137 604.5 127 c 128,-1,51
 670 117 670 117 732.5 101 c 128,-1,52
 795 85 795 85 844 54.5 c 128,-1,53
 893 24 893 24 923 -26 c 128,-1,54
 953 -76 953 -76 953 -155 c 0,55,56
 953 -235 953 -235 916 -292 c 128,-1,57
 879 -349 879 -349 821.5 -386 c 128,-1,58
 764 -423 764 -423 693 -440 c 128,-1,59
 622 -457 622 -457 553 -457 c 0,4,5
498 455 m 256,60,61
 554 455 554 455 599 473 c 128,-1,62
 644 491 644 491 676 523 c 128,-1,63
 708 555 708 555 725.5 600.5 c 128,-1,64
 743 646 743 646 743 701 c 0,65,66
 743 754 743 754 724.5 799.5 c 128,-1,67
 706 845 706 845 673.5 878.5 c 128,-1,68
 641 912 641 912 596 931.5 c 128,-1,69
 551 951 551 951 498 951 c 0,70,71
 446 951 446 951 401.5 931.5 c 128,-1,72
 357 912 357 912 324.5 878 c 128,-1,73
 292 844 292 844 274 798.5 c 128,-1,74
 256 753 256 753 256 701 c 0,75,76
 256 646 256 646 273 600.5 c 128,-1,77
 290 555 290 555 321.5 522.5 c 128,-1,78
 353 490 353 490 397.5 472.5 c 128,-1,79
 442 455 442 455 498 455 c 256,60,61
567 -339 m 0,80,81
 608 -339 608 -339 656 -330 c 128,-1,82
 704 -321 704 -321 745 -300 c 128,-1,83
 786 -279 786 -279 814 -245 c 128,-1,84
 842 -211 842 -211 842 -161 c 256,85,86
 842 -111 842 -111 819.5 -81.5 c 128,-1,87
 797 -52 797 -52 762 -35.5 c 128,-1,88
 727 -19 727 -19 685 -11.5 c 128,-1,89
 643 -4 643 -4 605 2 c 0,90,91
 548 11 548 11 491.5 20.5 c 128,-1,92
 435 30 435 30 380 47 c 1,93,-1
 242 -114 l 1,94,95
 242 -154 242 -154 257 -186 c 128,-1,96
 272 -218 272 -218 297 -243 c 128,-1,97
 322 -268 322 -268 355 -286 c 128,-1,98
 388 -304 388 -304 424 -316 c 128,-1,99
 460 -328 460 -328 497 -333.5 c 128,-1,100
 534 -339 534 -339 567 -339 c 0,80,81
EndSplineSet
Substitution2: "'aalt' Access All Alternates lookup 0 subtable" uni0123.ss01
EndChar

StartChar: Hbar
Encoding: 294 294 229
Width: 1450
GlyphClass: 1
Flags: W
LayerCount: 2
Fore
SplineSet
1231 0 m 1,0,-1
 1094 0 l 1,1,-1
 1094 652 l 1,2,-1
 356 652 l 1,3,-1
 356 0 l 1,4,-1
 220 0 l 1,5,-1
 220 1078 l 1,6,-1
 102 1078 l 1,7,-1
 102 1154 l 1,8,-1
 220 1154 l 1,9,-1
 220 1413 l 1,10,-1
 356 1413 l 1,11,-1
 356 1154 l 1,12,-1
 1094 1154 l 1,13,-1
 1094 1413 l 1,14,-1
 1231 1413 l 1,15,-1
 1231 1154 l 1,16,-1
 1345 1154 l 1,17,-1
 1345 1078 l 1,18,-1
 1231 1078 l 1,19,-1
 1231 0 l 1,0,-1
1094 762 m 1,20,-1
 1094 1078 l 1,21,-1
 356 1078 l 1,22,-1
 356 762 l 1,23,-1
 1094 762 l 1,20,-1
EndSplineSet
Position2: "'cpsp' Capital Spacing lookup 0 subtable" dx=5 dy=0 dh=10 dv=0
EndChar

StartChar: hbar
Encoding: 295 295 230
Width: 1146
GlyphClass: 1
Flags: W
LayerCount: 2
Fore
SplineSet
993 0 m 1,0,-1
 865 0 l 1,1,-1
 865 624 l 2,2,3
 865 681 865 681 854.5 736.5 c 128,-1,4
 844 792 844 792 818 836.5 c 128,-1,5
 792 881 792 881 748 908.5 c 128,-1,6
 704 936 704 936 636 936 c 0,7,8
 563 936 563 936 502.5 905 c 128,-1,9
 442 874 442 874 399 822.5 c 128,-1,10
 356 771 356 771 332 705.5 c 128,-1,11
 308 640 308 640 308 571 c 2,12,-1
 308 0 l 1,13,-1
 183 0 l 1,14,-1
 183 1158 l 1,15,-1
 -12 1158 l 1,16,-1
 -12 1262 l 1,17,-1
 183 1262 l 1,18,-1
 183 1413 l 1,19,-1
 308 1413 l 1,20,-1
 308 1262 l 1,21,-1
 640 1262 l 1,22,-1
 640 1158 l 1,23,-1
 308 1158 l 1,24,-1
 308 857 l 1,25,26
 334 902 334 902 372 939 c 128,-1,27
 410 976 410 976 455 1002 c 128,-1,28
 500 1028 500 1028 551 1042 c 128,-1,29
 602 1056 602 1056 654 1056 c 0,30,31
 744 1056 744 1056 808.5 1022 c 128,-1,32
 873 988 873 988 914 931.5 c 128,-1,33
 955 875 955 875 974 800.5 c 128,-1,34
 993 726 993 726 993 645 c 2,35,-1
 993 0 l 1,0,-1
EndSplineSet
EndChar

StartChar: Iogonek
Encoding: 302 302 237
Width: 574
GlyphClass: 1
Flags: W
LayerCount: 2
Fore
SplineSet
225 -452 m 0,0,1
 180 -452 180 -452 143.5 -436.5 c 128,-1,2
 107 -421 107 -421 80.5 -394 c 128,-1,3
 54 -367 54 -367 39.5 -329.5 c 128,-1,4
 25 -292 25 -292 25 -248 c 0,5,6
 25 -208 25 -208 37 -175 c 128,-1,7
 49 -142 49 -142 70.5 -115.5 c 128,-1,8
 92 -89 92 -89 121 -68 c 128,-1,9
 150 -47 150 -47 183 -29 c 0,10,11
 187 -27 187 -27 195.5 -23 c 128,-1,12
 204 -19 204 -19 213 -14.5 c 128,-1,13
 222 -10 222 -10 230.5 -6.5 c 128,-1,14
 239 -3 239 -3 242 -3 c 2,15,-1
 354 0 l 1,16,-1
 220 0 l 1,17,-1
 220 1413 l 1,18,-1
 356 1413 l 1,19,-1
 356 0 l 1,20,-1
 354 0 l 1,21,22
 320 -12 320 -12 279.5 -35 c 128,-1,23
 239 -58 239 -58 204.5 -88.5 c 128,-1,24
 170 -119 170 -119 147 -156.5 c 128,-1,25
 124 -194 124 -194 124 -235 c 0,26,27
 124 -256 124 -256 129.5 -276.5 c 128,-1,28
 135 -297 135 -297 146.5 -312.5 c 128,-1,29
 158 -328 158 -328 175 -338 c 128,-1,30
 192 -348 192 -348 216 -348 c 0,31,32
 255 -348 255 -348 287 -332 c 128,-1,33
 319 -316 319 -316 342 -284 c 1,34,-1
 427 -343 l 1,35,36
 390 -398 390 -398 341 -425 c 128,-1,37
 292 -452 292 -452 225 -452 c 0,0,1
EndSplineSet
Position2: "'cpsp' Capital Spacing lookup 0 subtable" dx=5 dy=0 dh=10 dv=0
EndChar

StartChar: iogonek
Encoding: 303 303 238
Width: 493
GlyphClass: 1
Flags: W
LayerCount: 2
Fore
SplineSet
322 1230 m 1,0,-1
 169 1230 l 1,1,-1
 169 1413 l 1,2,-1
 322 1413 l 1,3,-1
 322 1230 l 1,0,-1
315 0 m 1,4,-1
 335 0 l 1,5,6
 300 -12 300 -12 259 -35 c 128,-1,7
 218 -58 218 -58 183 -88.5 c 128,-1,8
 148 -119 148 -119 124.5 -156.5 c 128,-1,9
 101 -194 101 -194 101 -235 c 0,10,11
 101 -256 101 -256 106.5 -276.5 c 128,-1,12
 112 -297 112 -297 123.5 -312.5 c 128,-1,13
 135 -328 135 -328 152 -338 c 128,-1,14
 169 -348 169 -348 193 -348 c 0,15,16
 233 -348 233 -348 266 -332.5 c 128,-1,17
 299 -317 299 -317 322 -284 c 1,18,-1
 410 -343 l 1,19,20
 372 -398 372 -398 322 -425 c 128,-1,21
 272 -452 272 -452 205 -452 c 0,22,23
 160 -452 160 -452 122.5 -437 c 128,-1,24
 85 -422 85 -422 58 -395 c 128,-1,25
 31 -368 31 -368 16 -330.5 c 128,-1,26
 1 -293 1 -293 1 -248 c 0,27,28
 1 -208 1 -208 13.5 -175 c 128,-1,29
 26 -142 26 -142 48 -115.5 c 128,-1,30
 70 -89 70 -89 99.5 -67.5 c 128,-1,31
 129 -46 129 -46 162 -29 c 1,32,-1
 164 -29 l 1,33,34
 164 -28 164 -28 167.5 -26.5 c 128,-1,35
 171 -25 171 -25 173 -24 c 2,36,-1
 175 -23 l 2,37,38
 183 -18 183 -18 192.5 -14 c 128,-1,39
 202 -10 202 -10 210 -7 c 0,40,41
 219 -4 219 -4 235.5 -2.5 c 128,-1,42
 252 -1 252 -1 270.5 -0.5 c 128,-1,43
 289 0 289 0 307 0 c 1,44,-1
 178 0 l 1,45,-1
 178 998 l 1,46,-1
 315 998 l 1,47,-1
 315 0 l 1,4,-1
EndSplineSet
EndChar

StartChar: Idotaccent
Encoding: 304 304 239
Width: 574
GlyphClass: 1
Flags: W
LayerCount: 2
Fore
SplineSet
360 1644 m 1,0,-1
 207 1644 l 1,1,-1
 207 1827 l 1,2,-1
 360 1827 l 1,3,-1
 360 1644 l 1,0,-1
356 0 m 1,4,-1
 220 0 l 1,5,-1
 220 1413 l 1,6,-1
 356 1413 l 1,7,-1
 356 0 l 1,4,-1
EndSplineSet
Position2: "'cpsp' Capital Spacing lookup 0 subtable" dx=5 dy=0 dh=10 dv=0
EndChar

StartChar: dotlessi
Encoding: 305 305 240
Width: 487
GlyphClass: 2
Flags: W
LayerCount: 2
Fore
SplineSet
312 0 m 1,0,-1
 175 0 l 1,1,-1
 175 1039 l 1,2,-1
 312 1039 l 1,3,-1
 312 0 l 1,0,-1
EndSplineSet
EndChar

StartChar: kgreenlandic
Encoding: 312 312 247
Width: 1061
GlyphClass: 1
Flags: W
LayerCount: 2
Fore
SplineSet
1024 0 m 1,0,-1
 866 0 l 1,1,-1
 543 556 l 1,2,-1
 311 303 l 1,3,-1
 311 0 l 1,4,-1
 183 0 l 1,5,-1
 183 1039 l 1,6,-1
 311 1039 l 1,7,-1
 311 477 l 1,8,-1
 793 1039 l 1,9,-1
 956 1039 l 1,10,-1
 627 657 l 1,11,-1
 1024 0 l 1,0,-1
EndSplineSet
EndChar

StartChar: Lcaron
Encoding: 317 317 252
Width: 1042
GlyphClass: 1
Flags: W
LayerCount: 2
Fore
SplineSet
962 0 m 1,0,-1
 220 0 l 1,1,-1
 220 1413 l 1,2,-1
 357 1413 l 1,3,-1
 357 123 l 1,4,-1
 962 123 l 1,5,-1
 962 0 l 1,0,-1
687 1031 m 1,6,-1
 590 1031 l 1,7,-1
 690 1413 l 1,8,-1
 890 1413 l 1,9,-1
 687 1031 l 1,6,-1
EndSplineSet
Position2: "'cpsp' Capital Spacing lookup 0 subtable" dx=5 dy=0 dh=10 dv=0
EndChar

StartChar: lcaron
Encoding: 318 318 253
Width: 565
GlyphClass: 1
Flags: W
LayerCount: 2
Fore
SplineSet
333 -20 m 0,0,1
 324 -20 324 -20 306.5 -15.5 c 128,-1,2
 289 -11 289 -11 270.5 -4.5 c 128,-1,3
 252 2 252 2 236 9.5 c 128,-1,4
 220 17 220 17 214 23 c 0,5,6
 200 37 200 37 193 58.5 c 128,-1,7
 186 80 186 80 183 104.5 c 128,-1,8
 180 129 180 129 180 154 c 0,9,10
 180 155 180 155 180 156 c 2,11,-1
 180 159 l 2,12,13
 180 161 180 161 180 162 c 2,14,-1
 180 167 l 1,15,16
 180 167 180 167 180 168 c 2,17,-1
 180 172 l 2,18,19
 180 173 180 173 180 174 c 2,20,-1
 180 175 l 2,21,22
 180 176 180 176 180 176 c 1,23,-1
 180 197 l 1,24,-1
 179 1413 l 1,25,-1
 308 1413 l 1,26,-1
 308 193 l 2,27,28
 308 180 308 180 309 162 c 128,-1,29
 310 144 310 144 315 127.5 c 128,-1,30
 320 111 320 111 330 99.5 c 128,-1,31
 340 88 340 88 358 88 c 0,32,33
 384 88 384 88 409.5 90 c 128,-1,34
 435 92 435 92 460 99 c 1,35,-1
 460 -1 l 1,36,37
 429 -10 429 -10 397 -15 c 128,-1,38
 365 -20 365 -20 333 -20 c 0,0,1
543 1031 m 1,39,-1
 442 1031 l 1,40,41
 467 1128 467 1128 493.5 1222.5 c 128,-1,42
 520 1317 520 1317 547 1413 c 1,43,-1
 755 1413 l 1,44,-1
 543 1031 l 1,39,-1
EndSplineSet
EndChar

StartChar: Ldot
Encoding: 319 319 254
Width: 1031
GlyphClass: 1
Flags: W
LayerCount: 2
Fore
SplineSet
962 0 m 1,0,-1
 220 0 l 1,1,-1
 220 1413 l 1,2,-1
 357 1413 l 1,3,-1
 357 123 l 1,4,-1
 962 123 l 1,5,-1
 962 0 l 1,0,-1
770 588 m 256,6,7
 746 588 746 588 724.5 597.5 c 128,-1,8
 703 607 703 607 687 623.5 c 128,-1,9
 671 640 671 640 661.5 661.5 c 128,-1,10
 652 683 652 683 652 707 c 0,11,12
 652 761 652 761 684 793 c 128,-1,13
 716 825 716 825 770 825 c 0,14,15
 795 825 795 825 816.5 816 c 128,-1,16
 838 807 838 807 854 791 c 128,-1,17
 870 775 870 775 879.5 753.5 c 128,-1,18
 889 732 889 732 889 707 c 0,19,20
 889 683 889 683 879.5 661 c 128,-1,21
 870 639 870 639 854 623 c 128,-1,22
 838 607 838 607 816 597.5 c 128,-1,23
 794 588 794 588 770 588 c 256,6,7
EndSplineSet
EndChar

StartChar: ldot
Encoding: 320 320 255
Width: 618
GlyphClass: 1
Flags: W
LayerCount: 2
Fore
SplineSet
333 -20 m 0,0,1
 326 -20 326 -20 310.5 -16 c 128,-1,2
 295 -12 295 -12 278.5 -7 c 128,-1,3
 262 -2 262 -2 247.5 4 c 128,-1,4
 233 10 233 10 227 14 c 0,5,6
 208 26 208 26 198 48.5 c 128,-1,7
 188 71 188 71 184 97 c 128,-1,8
 180 123 180 123 180 150 c 0,9,10
 180 151 180 151 180 152 c 2,11,-1
 180 156 l 2,12,13
 180 158 180 158 180 160 c 2,14,-1
 180 164 l 2,15,16
 180 165 180 165 180 166 c 2,17,-1
 180 171 l 1,18,19
 180 171 180 171 180 172 c 2,20,-1
 180 174 l 1,21,22
 180 174 180 174 180 175 c 2,23,-1
 180 198 l 1,24,-1
 179 1413 l 1,25,-1
 308 1413 l 1,26,27
 309 1228 309 1228 309 1044 c 0,28,29
 309 953 309 953 308.5 770.5 c 128,-1,30
 308 588 308 588 308 310 c 2,31,-1
 308 245 l 2,32,33
 308 216 308 216 311.5 182 c 128,-1,34
 315 148 315 148 325 119.5 c 128,-1,35
 335 91 335 91 357 91 c 0,36,37
 383 91 383 91 407.5 92.5 c 128,-1,38
 432 94 432 94 457 102 c 1,39,-1
 457 -1 l 1,40,41
 427 -10 427 -10 396 -15 c 128,-1,42
 365 -20 365 -20 333 -20 c 0,0,1
506 578 m 256,43,44
 482 578 482 578 460.5 587.5 c 128,-1,45
 439 597 439 597 423 613.5 c 128,-1,46
 407 630 407 630 397.5 651.5 c 128,-1,47
 388 673 388 673 388 697 c 0,48,49
 388 751 388 751 420 783 c 128,-1,50
 452 815 452 815 506 815 c 0,51,52
 531 815 531 815 552.5 806 c 128,-1,53
 574 797 574 797 590 781 c 128,-1,54
 606 765 606 765 615.5 743.5 c 128,-1,55
 625 722 625 722 625 697 c 0,56,57
 625 673 625 673 615.5 651 c 128,-1,58
 606 629 606 629 590 613 c 128,-1,59
 574 597 574 597 552 587.5 c 128,-1,60
 530 578 530 578 506 578 c 256,43,44
EndSplineSet
EndChar

StartChar: Lslash
Encoding: 321 321 256
Width: 1054
GlyphClass: 1
Flags: W
LayerCount: 2
Fore
SplineSet
978 0 m 1,0,-1
 236 0 l 1,1,-1
 236 320 l 1,2,-1
 132 206 l 1,3,-1
 132 369 l 1,4,-1
 236 487 l 1,5,-1
 236 1413 l 1,6,-1
 373 1413 l 1,7,-1
 373 644 l 1,8,-1
 766 1090 l 1,9,-1
 766 901 l 1,10,-1
 373 470 l 1,11,-1
 373 123 l 1,12,-1
 978 123 l 1,13,-1
 978 0 l 1,0,-1
EndSplineSet
Position2: "'cpsp' Capital Spacing lookup 0 subtable" dx=5 dy=0 dh=10 dv=0
EndChar

StartChar: lslash
Encoding: 322 322 257
Width: 522
GlyphClass: 1
Flags: W
LayerCount: 2
Fore
SplineSet
334 -20 m 0,0,1
 259 -20 259 -20 225.5 12.5 c 128,-1,2
 192 45 192 45 183 118 c 0,3,4
 178 158 178 158 177 198 c 128,-1,5
 176 238 176 238 176 279 c 0,6,7
 176 336 176 336 177.5 393 c 128,-1,8
 179 450 179 450 179 507 c 1,9,-1
 -4 308 l 1,10,-1
 -4 435 l 1,11,-1
 179 633 l 1,12,-1
 179 1413 l 1,13,-1
 308 1413 l 1,14,-1
 309 779 l 1,15,-1
 512 999 l 1,16,-1
 512 873 l 1,17,-1
 309 653 l 1,18,-1
 309 163 l 2,19,20
 309 151 309 151 311.5 138.5 c 128,-1,21
 314 126 314 126 319.5 115.5 c 128,-1,22
 325 105 325 105 334.5 98 c 128,-1,23
 344 91 344 91 358 91 c 0,24,25
 384 91 384 91 409.5 93 c 128,-1,26
 435 95 435 95 460 102 c 1,27,-1
 460 -1 l 1,28,29
 429 -10 429 -10 397.5 -15 c 128,-1,30
 366 -20 366 -20 334 -20 c 0,0,1
EndSplineSet
EndChar

StartChar: Eng
Encoding: 330 330 265
Width: 1416
GlyphClass: 1
Flags: W
LayerCount: 2
Fore
SplineSet
912 -371 m 2,0,-1
 852 -370 l 1,1,-1
 852 -260 l 1,2,3
 873 -260 873 -260 902.5 -255.5 c 128,-1,4
 932 -251 932 -251 959.5 -240.5 c 128,-1,5
 987 -230 987 -230 1006.5 -212 c 128,-1,6
 1026 -194 1026 -194 1026 -166 c 0,7,8
 1026 -155 1026 -155 1031 -145 c 128,-1,9
 1036 -135 1036 -135 1036 -124 c 0,10,11
 1036 -114 1036 -114 1032.5 -99.5 c 128,-1,12
 1029 -85 1029 -85 1024 -76 c 2,13,-1
 357 1283 l 1,14,-1
 357 0 l 1,15,-1
 220 0 l 1,16,-1
 220 1413 l 1,17,-1
 434 1413 l 1,18,-1
 1057 130 l 1,19,-1
 1057 1413 l 1,20,-1
 1194 1413 l 1,21,-1
 1194 -2 l 2,22,23
 1194 -77 1194 -77 1183 -144.5 c 128,-1,24
 1172 -212 1172 -212 1141 -262 c 128,-1,25
 1110 -312 1110 -312 1055 -341.5 c 128,-1,26
 1000 -371 1000 -371 912 -371 c 2,0,-1
EndSplineSet
Position2: "'cpsp' Capital Spacing lookup 0 subtable" dx=5 dy=0 dh=10 dv=0
EndChar

StartChar: eng
Encoding: 331 331 266
Width: 1135
GlyphClass: 1
Flags: W
LayerCount: 2
Fore
SplineSet
693 -370 m 2,0,-1
 650 -370 l 1,1,-1
 650 -258 l 1,2,-1
 653 -258 l 2,3,4
 654 -258 654 -258 655 -258 c 2,5,-1
 660 -258 l 2,6,7
 661 -258 661 -258 662 -258 c 2,8,-1
 663 -258 l 2,9,10
 664 -258 664 -258 665 -258 c 2,11,-1
 667 -258 l 2,12,13
 668 -258 668 -258 669 -258 c 2,14,-1
 675 -258 l 2,15,16
 676 -258 676 -258 677 -258 c 2,17,-1
 715 -258 l 2,18,19
 748 -258 748 -258 777 -244 c 0,20,21
 803 -232 803 -232 819 -213.5 c 128,-1,22
 835 -195 835 -195 844 -172.5 c 128,-1,23
 853 -150 853 -150 856.5 -124.5 c 128,-1,24
 860 -99 860 -99 860 -73 c 2,25,-1
 860 628 l 2,26,27
 860 687 860 687 850 741 c 128,-1,28
 840 795 840 795 814 836.5 c 128,-1,29
 788 878 788 878 744 903 c 128,-1,30
 700 928 700 928 631 928 c 0,31,32
 566 928 566 928 508 901.5 c 128,-1,33
 450 875 450 875 406.5 830 c 128,-1,34
 363 785 363 785 337.5 726 c 128,-1,35
 312 667 312 667 312 602 c 2,36,-1
 312 9 l 1,37,-1
 182 9 l 1,38,-1
 182 1039 l 1,39,-1
 312 1039 l 1,40,-1
 312 868 l 1,41,42
 338 911 338 911 373.5 946 c 128,-1,43
 409 981 409 981 452 1005.5 c 128,-1,44
 495 1030 495 1030 543.5 1043 c 128,-1,45
 592 1056 592 1056 642 1056 c 0,46,47
 736 1056 736 1056 802 1022.5 c 128,-1,48
 868 989 868 989 910 931.5 c 128,-1,49
 952 874 952 874 971 798 c 128,-1,50
 990 722 990 722 990 637 c 2,51,-1
 990 -81 l 2,52,53
 990 -133 990 -133 978.5 -185 c 128,-1,54
 967 -237 967 -237 941 -282 c 0,55,56
 922 -314 922 -314 893.5 -332 c 128,-1,57
 865 -350 865 -350 831.5 -358.5 c 128,-1,58
 798 -367 798 -367 762 -368.5 c 128,-1,59
 726 -370 726 -370 693 -370 c 2,0,-1
EndSplineSet
EndChar

StartChar: OE
Encoding: 338 338 273
Width: 2246
GlyphClass: 1
Flags: W
LayerCount: 2
Fore
SplineSet
756 -20 m 0,0,1
 650 -20 650 -20 562 7 c 128,-1,2
 474 34 474 34 405 82 c 128,-1,3
 336 130 336 130 285 197.5 c 128,-1,4
 234 265 234 265 200 345.5 c 128,-1,5
 166 426 166 426 149.5 518 c 128,-1,6
 133 610 133 610 133 707 c 256,7,8
 133 804 133 804 149.5 896 c 128,-1,9
 166 988 166 988 200 1068.5 c 128,-1,10
 234 1149 234 1149 285 1216.5 c 128,-1,11
 336 1284 336 1284 405.5 1332 c 128,-1,12
 475 1380 475 1380 562.5 1407 c 128,-1,13
 650 1434 650 1434 756 1434 c 0,14,15
 843 1434 843 1434 917.5 1417 c 128,-1,16
 992 1400 992 1400 1053 1363 c 128,-1,17
 1114 1326 1114 1326 1162 1268 c 128,-1,18
 1210 1210 1210 1210 1245 1128 c 1,19,-1
 1245 1413 l 1,20,-1
 2135 1413 l 1,21,-1
 2135 1298 l 1,22,-1
 1382 1298 l 1,23,-1
 1382 762 l 1,24,-1
 2044 762 l 1,25,-1
 2044 652 l 1,26,-1
 1382 652 l 1,27,-1
 1382 123 l 1,28,-1
 2135 123 l 1,29,-1
 2135 0 l 1,30,-1
 1245 0 l 1,31,-1
 1245 286 l 1,32,33
 1212 203 1212 203 1164 144.5 c 128,-1,34
 1116 86 1116 86 1054 49.5 c 128,-1,35
 992 13 992 13 917 -3.5 c 128,-1,36
 842 -20 842 -20 756 -20 c 0,0,1
756 101 m 0,37,38
 888 101 888 101 980.5 152 c 128,-1,39
 1073 203 1073 203 1132 287.5 c 128,-1,40
 1191 372 1191 372 1218 481 c 128,-1,41
 1245 590 1245 590 1245 707 c 0,42,43
 1245 785 1245 785 1233 860 c 128,-1,44
 1221 935 1221 935 1196 1002 c 128,-1,45
 1171 1069 1171 1069 1132 1125.5 c 128,-1,46
 1093 1182 1093 1182 1038.5 1223.5 c 128,-1,47
 984 1265 984 1265 914 1288 c 128,-1,48
 844 1311 844 1311 756 1311 c 0,49,50
 626 1311 626 1311 533.5 1260 c 128,-1,51
 441 1209 441 1209 382.5 1124.5 c 128,-1,52
 324 1040 324 1040 297 931.5 c 128,-1,53
 270 823 270 823 270 707 c 256,54,55
 270 591 270 591 296.5 482 c 128,-1,56
 323 373 323 373 381.5 288 c 128,-1,57
 440 203 440 203 532.5 152 c 128,-1,58
 625 101 625 101 756 101 c 0,37,38
EndSplineSet
Position2: "'cpsp' Capital Spacing lookup 0 subtable" dx=5 dy=0 dh=10 dv=0
EndChar

StartChar: oe
Encoding: 339 339 274
Width: 1829
GlyphClass: 1
Flags: W
LayerCount: 2
Fore
SplineSet
566 -20 m 0,0,1
 456 -20 456 -20 368 25 c 128,-1,2
 280 70 280 70 219 144.5 c 128,-1,3
 158 219 158 219 125.5 315.5 c 128,-1,4
 93 412 93 412 93 515 c 0,5,6
 93 619 93 619 126 716 c 128,-1,7
 159 813 159 813 221 887.5 c 128,-1,8
 283 962 283 962 371.5 1007 c 128,-1,9
 460 1052 460 1052 571 1052 c 0,10,11
 708 1052 708 1052 804.5 989 c 128,-1,12
 901 926 901 926 970 810 c 1,13,14
 1024 928 1024 928 1115.5 990 c 128,-1,15
 1207 1052 1207 1052 1338 1052 c 0,16,17
 1433 1052 1433 1052 1507.5 1025 c 128,-1,18
 1582 998 1582 998 1635 947 c 128,-1,19
 1688 896 1688 896 1719.5 822.5 c 128,-1,20
 1751 749 1751 749 1758 656 c 0,21,22
 1764 578 1764 578 1764 500 c 0,23,24
 1764 489 1764 489 1761 477 c 1,25,-1
 1040 477 l 1,26,27
 1040 403 1040 403 1058.5 334.5 c 128,-1,28
 1077 266 1077 266 1115 213.5 c 128,-1,29
 1153 161 1153 161 1213 129.5 c 128,-1,30
 1273 98 1273 98 1355 98 c 0,31,32
 1399 98 1399 98 1439.5 103 c 128,-1,33
 1480 108 1480 108 1517.5 120.5 c 128,-1,34
 1555 133 1555 133 1589 154.5 c 128,-1,35
 1623 176 1623 176 1654 209 c 1,36,-1
 1739 138 l 1,37,38
 1698 97 1698 97 1654.5 68.5 c 128,-1,39
 1611 40 1611 40 1564 22 c 128,-1,40
 1517 4 1517 4 1465.5 -4 c 128,-1,41
 1414 -12 1414 -12 1356 -12 c 0,42,43
 1223 -12 1223 -12 1125.5 45 c 128,-1,44
 1028 102 1028 102 971 223 c 1,45,46
 935 163 935 163 894 117.5 c 128,-1,47
 853 72 853 72 804 41.5 c 128,-1,48
 755 11 755 11 696 -4.5 c 128,-1,49
 637 -20 637 -20 566 -20 c 0,0,1
1643 587 m 1,50,-1
 1643 596 l 2,51,52
 1643 669 1643 669 1625 731.5 c 128,-1,53
 1607 794 1607 794 1569.5 840 c 128,-1,54
 1532 886 1532 886 1474.5 912 c 128,-1,55
 1417 938 1417 938 1339 938 c 0,56,57
 1262 938 1262 938 1207.5 909 c 128,-1,58
 1153 880 1153 880 1117 831 c 128,-1,59
 1081 782 1081 782 1062.5 718.5 c 128,-1,60
 1044 655 1044 655 1040 587 c 1,61,-1
 1643 587 l 1,50,-1
565 100 m 0,62,63
 657 100 657 100 722 134 c 128,-1,64
 787 168 787 168 828.5 225.5 c 128,-1,65
 870 283 870 283 889.5 358 c 128,-1,66
 909 433 909 433 909 515 c 0,67,68
 909 595 909 595 890 670 c 128,-1,69
 871 745 871 745 829.5 803.5 c 128,-1,70
 788 862 788 862 724 897 c 128,-1,71
 660 932 660 932 570 932 c 0,72,73
 483 932 483 932 419.5 896 c 128,-1,74
 356 860 356 860 314 801 c 128,-1,75
 272 742 272 742 252 667.5 c 128,-1,76
 232 593 232 593 232 515 c 0,77,78
 232 439 232 439 251.5 364.5 c 128,-1,79
 271 290 271 290 312 231 c 128,-1,80
 353 172 353 172 416 136 c 128,-1,81
 479 100 479 100 565 100 c 0,62,63
EndSplineSet
EndChar

StartChar: tcaron
Encoding: 357 357 292
Width: 682
GlyphClass: 1
Flags: W
LayerCount: 2
Fore
SplineSet
571 1109 m 1,0,-1
 478 1109 l 1,1,-1
 591 1445 l 1,2,-1
 791 1445 l 1,3,-1
 571 1109 l 1,0,-1
450 -20 m 0,4,5
 380 -20 380 -20 334.5 2.5 c 128,-1,6
 289 25 289 25 262 65 c 128,-1,7
 235 105 235 105 224.5 158.5 c 128,-1,8
 214 212 214 212 214 274 c 2,9,-1
 214 934 l 1,10,-1
 52 934 l 1,11,-1
 52 1039 l 1,12,-1
 214 1039 l 1,13,-1
 214 1241 l 1,14,-1
 344 1359 l 1,15,-1
 344 1039 l 1,16,-1
 610 1039 l 1,17,-1
 610 934 l 1,18,-1
 344 934 l 1,19,-1
 344 255 l 2,20,21
 344 224 344 224 350 193.5 c 128,-1,22
 356 163 356 163 370.5 139 c 128,-1,23
 385 115 385 115 409.5 100 c 128,-1,24
 434 85 434 85 471 85 c 0,25,26
 498 85 498 85 525 88.5 c 128,-1,27
 552 92 552 92 577 104 c 1,28,-1
 577 -3 l 1,29,30
 547 -14 547 -14 514.5 -17 c 128,-1,31
 482 -20 482 -20 450 -20 c 0,4,5
EndSplineSet
EndChar

StartChar: Tbar
Encoding: 358 358 293
Width: 1247
GlyphClass: 1
Flags: W
LayerCount: 2
Fore
SplineSet
693 0 m 1,0,-1
 554 0 l 1,1,-1
 554 653 l 1,2,-1
 312 653 l 1,3,-1
 312 757 l 1,4,-1
 554 757 l 1,5,-1
 554 1305 l 1,6,-1
 69 1305 l 1,7,-1
 69 1413 l 1,8,-1
 1178 1413 l 1,9,-1
 1178 1305 l 1,10,-1
 693 1305 l 1,11,-1
 693 757 l 1,12,-1
 945 757 l 1,13,-1
 945 653 l 1,14,-1
 693 653 l 1,15,-1
 693 0 l 1,0,-1
EndSplineSet
Position2: "'cpsp' Capital Spacing lookup 0 subtable" dx=5 dy=0 dh=10 dv=0
EndChar

StartChar: tbar
Encoding: 359 359 294
Width: 678
GlyphClass: 1
Flags: W
LayerCount: 2
Fore
SplineSet
464 -20 m 0,0,1
 390 -20 390 -20 342 1 c 128,-1,2
 294 22 294 22 265.5 60.5 c 128,-1,3
 237 99 237 99 225.5 153 c 128,-1,4
 214 207 214 207 214 274 c 2,5,-1
 214 467 l 1,6,-1
 -5 467 l 1,7,-1
 -5 571 l 1,8,-1
 214 571 l 1,9,-1
 214 936 l 1,10,-1
 51 936 l 1,11,-1
 51 1039 l 1,12,-1
 214 1039 l 1,13,-1
 214 1235 l 1,14,-1
 344 1350 l 1,15,-1
 344 1039 l 1,16,-1
 609 1039 l 1,17,-1
 609 936 l 1,18,-1
 344 936 l 1,19,-1
 344 571 l 1,20,-1
 648 571 l 1,21,-1
 648 467 l 1,22,-1
 344 467 l 1,23,-1
 344 261 l 2,24,25
 344 227 344 227 351 195 c 128,-1,26
 358 163 358 163 374 137.5 c 128,-1,27
 390 112 390 112 416.5 96.5 c 128,-1,28
 443 81 443 81 482 81 c 0,29,30
 507 81 507 81 530.5 87 c 128,-1,31
 554 93 554 93 577 104 c 1,32,-1
 577 -3 l 1,33,34
 550 -14 550 -14 521.5 -17 c 128,-1,35
 493 -20 493 -20 464 -20 c 0,0,1
EndSplineSet
EndChar

StartChar: Uogonek
Encoding: 370 370 305
Width: 1350
GlyphClass: 1
Flags: W
LayerCount: 2
Fore
SplineSet
747 -440 m 0,0,1
 702 -440 702 -440 663.5 -425 c 128,-1,2
 625 -410 625 -410 597.5 -383 c 128,-1,3
 570 -356 570 -356 554.5 -318.5 c 128,-1,4
 539 -281 539 -281 539 -235 c 0,5,6
 539 -197 539 -197 550 -165 c 128,-1,7
 561 -133 561 -133 581 -106.5 c 128,-1,8
 601 -80 601 -80 628 -58.5 c 128,-1,9
 655 -37 655 -37 687 -20 c 1,10,11
 564 -20 564 -20 471.5 19 c 128,-1,12
 379 58 379 58 317 128 c 128,-1,13
 255 198 255 198 224 295.5 c 128,-1,14
 193 393 193 393 193 511 c 2,15,-1
 193 1413 l 1,16,-1
 330 1413 l 1,17,-1
 330 559 l 2,18,19
 330 471 330 471 345 389.5 c 128,-1,20
 360 308 360 308 399 245 c 128,-1,21
 438 182 438 182 504.5 144.5 c 128,-1,22
 571 107 571 107 674 107 c 0,23,24
 776 107 776 107 843.5 144.5 c 128,-1,25
 911 182 911 182 950.5 245 c 128,-1,26
 990 308 990 308 1006 389.5 c 128,-1,27
 1022 471 1022 471 1022 559 c 2,28,-1
 1022 1413 l 1,29,-1
 1158 1413 l 1,30,-1
 1158 521 l 2,31,32
 1158 438 1158 438 1141.5 359.5 c 128,-1,33
 1125 281 1125 281 1089 213.5 c 128,-1,34
 1053 146 1053 146 995.5 93 c 128,-1,35
 938 40 938 40 856 8 c 1,36,-1
 859 11 l 1,37,38
 822 -5 822 -5 783 -26 c 128,-1,39
 744 -47 744 -47 712 -75 c 128,-1,40
 680 -103 680 -103 659.5 -139 c 128,-1,41
 639 -175 639 -175 639 -221 c 0,42,43
 639 -241 639 -241 644.5 -261.5 c 128,-1,44
 650 -282 650 -282 661.5 -298.5 c 128,-1,45
 673 -315 673 -315 690 -325 c 128,-1,46
 707 -335 707 -335 730 -335 c 0,47,48
 809 -335 809 -335 856 -270 c 1,49,-1
 941 -329 l 1,50,51
 922 -356 922 -356 902 -376.5 c 128,-1,52
 882 -397 882 -397 858.5 -411 c 128,-1,53
 835 -425 835 -425 808 -432.5 c 128,-1,54
 781 -440 781 -440 747 -440 c 0,0,1
EndSplineSet
Position2: "'cpsp' Capital Spacing lookup 0 subtable" dx=5 dy=0 dh=10 dv=0
EndChar

StartChar: uogonek
Encoding: 371 371 306
Width: 1128
GlyphClass: 1
Flags: W
LayerCount: 2
Fore
SplineSet
827 -452 m 0,0,1
 782 -452 782 -452 744.5 -437 c 128,-1,2
 707 -422 707 -422 680 -395 c 128,-1,3
 653 -368 653 -368 638 -330.5 c 128,-1,4
 623 -293 623 -293 623 -248 c 0,5,6
 623 -197 623 -197 643.5 -157 c 128,-1,7
 664 -117 664 -117 697 -86.5 c 128,-1,8
 730 -56 730 -56 772.5 -34.5 c 128,-1,9
 815 -13 815 -13 859 0 c 1,10,-1
 833 0 l 1,11,-1
 833 192 l 1,12,13
 813 143 813 143 778.5 103.5 c 128,-1,14
 744 64 744 64 700 36 c 128,-1,15
 656 8 656 8 605.5 -7.5 c 128,-1,16
 555 -23 555 -23 503 -23 c 0,17,18
 405 -23 405 -23 338.5 14.5 c 128,-1,19
 272 52 272 52 231.5 114.5 c 128,-1,20
 191 177 191 177 173.5 257 c 128,-1,21
 156 337 156 337 156 422 c 2,22,-1
 156 1039 l 1,23,-1
 283 1039 l 1,24,-1
 283 409 l 2,25,26
 283 351 283 351 292.5 293 c 128,-1,27
 302 235 302 235 327.5 188 c 128,-1,28
 353 141 353 141 398 111.5 c 128,-1,29
 443 82 443 82 513 82 c 0,30,31
 580 82 580 82 638.5 113.5 c 128,-1,32
 697 145 697 145 740 195.5 c 128,-1,33
 783 246 783 246 808 309.5 c 128,-1,34
 833 373 833 373 833 437 c 2,35,-1
 833 1039 l 1,36,-1
 957 1039 l 1,37,-1
 957 0 l 1,38,39
 920 -16 920 -16 879 -37 c 128,-1,40
 838 -58 838 -58 803.5 -86.5 c 128,-1,41
 769 -115 769 -115 747 -152 c 128,-1,42
 725 -189 725 -189 725 -236 c 0,43,44
 725 -257 725 -257 730 -277 c 128,-1,45
 735 -297 735 -297 746 -312.5 c 128,-1,46
 757 -328 757 -328 774 -338 c 128,-1,47
 791 -348 791 -348 815 -348 c 0,48,49
 897 -348 897 -348 945 -284 c 1,50,-1
 1032 -343 l 1,51,52
 994 -397 994 -397 943.5 -424.5 c 128,-1,53
 893 -452 893 -452 827 -452 c 0,0,1
EndSplineSet
EndChar

StartChar: longs
Encoding: 383 383 318
Width: 696
GlyphClass: 2
Flags: W
LayerCount: 2
Fore
SplineSet
352 0 m 1,0,-1
 227 0 l 1,1,-1
 227 936 l 1,2,-1
 37 936 l 1,3,-1
 37 1037 l 1,4,-1
 227 1037 l 1,5,-1
 227 1199 l 2,6,7
 227 1258 227 1258 248 1302.5 c 128,-1,8
 269 1347 269 1347 305.5 1376 c 128,-1,9
 342 1405 342 1405 390.5 1419.5 c 128,-1,10
 439 1434 439 1434 494 1434 c 0,11,12
 537 1434 537 1434 578 1424 c 128,-1,13
 619 1414 619 1414 658 1397 c 1,14,-1
 630 1301 l 1,15,16
 599 1313 599 1313 566.5 1321 c 128,-1,17
 534 1329 534 1329 501 1329 c 0,18,19
 425 1329 425 1329 388.5 1286 c 128,-1,20
 352 1243 352 1243 352 1170 c 2,21,-1
 352 0 l 1,0,-1
EndSplineSet
EndChar

StartChar: florin
Encoding: 402 402 319
Width: 1079
GlyphClass: 1
Flags: W
LayerCount: 2
Fore
SplineSet
131 -458 m 1,0,-1
 131 -340 l 1,1,2
 217 -340 217 -340 283 -321.5 c 128,-1,3
 349 -303 349 -303 393.5 -262.5 c 128,-1,4
 438 -222 438 -222 461 -158.5 c 128,-1,5
 484 -95 484 -95 484 -6 c 2,6,-1
 484 924 l 1,7,-1
 299 924 l 1,8,-1
 299 1039 l 1,9,-1
 484 1039 l 1,10,-1
 484 1194 l 2,11,12
 484 1250 484 1250 505 1297 c 128,-1,13
 526 1344 526 1344 562.5 1378 c 128,-1,14
 599 1412 599 1412 647.5 1431 c 128,-1,15
 696 1450 696 1450 751 1450 c 0,16,17
 803 1450 803 1450 852 1432 c 128,-1,18
 901 1414 901 1414 942 1382 c 1,19,-1
 862 1296 l 1,20,21
 839 1313 839 1313 808.5 1322.5 c 128,-1,22
 778 1332 778 1332 749 1332 c 0,23,24
 685 1332 685 1332 643.5 1293.5 c 128,-1,25
 602 1255 602 1255 602 1188 c 2,26,-1
 602 1039 l 1,27,-1
 920 1039 l 1,28,-1
 920 924 l 1,29,-1
 602 924 l 1,30,-1
 602 0 l 2,31,32
 602 -110 602 -110 569 -195.5 c 128,-1,33
 536 -281 536 -281 475 -339.5 c 128,-1,34
 414 -398 414 -398 326.5 -428 c 128,-1,35
 239 -458 239 -458 131 -458 c 1,0,-1
EndSplineSet
EndChar

StartChar: uni01C3
Encoding: 451 451 324
Width: 658
GlyphClass: 1
Flags: W
LayerCount: 2
Fore
SplineSet
376 370 m 1,0,-1
 282 370 l 1,1,-1
 253 1435 l 1,2,-1
 405 1435 l 1,3,-1
 376 370 l 1,0,-1
417 0 m 1,4,-1
 241 0 l 1,5,-1
 241 175 l 1,6,-1
 417 175 l 1,7,-1
 417 0 l 1,4,-1
EndSplineSet
EndChar

StartChar: uni01DD
Encoding: 477 477 350
Width: 1049
GlyphClass: 1
Flags: W
LayerCount: 2
Fore
SplineSet
521 -12 m 0,0,1
 397 -12 397 -12 315 34 c 128,-1,2
 233 80 233 80 185 156.5 c 128,-1,3
 137 233 137 233 117.5 332 c 128,-1,4
 98 431 98 431 98 538 c 1,5,-1
 100 562 l 1,6,-1
 824 562 l 1,7,8
 823 636 823 636 804 704.5 c 128,-1,9
 785 773 785 773 746.5 826 c 128,-1,10
 708 879 708 879 648.5 911 c 128,-1,11
 589 943 589 943 507 943 c 0,12,13
 418 943 418 943 342.5 919 c 128,-1,14
 267 895 267 895 205 828 c 1,15,-1
 120 897 l 1,16,17
 160 941 160 941 203.5 970.5 c 128,-1,18
 247 1000 247 1000 295.5 1018 c 128,-1,19
 344 1036 344 1036 396.5 1044 c 128,-1,20
 449 1052 449 1052 507 1052 c 0,21,22
 620 1052 620 1052 704.5 1008.5 c 128,-1,23
 789 965 789 965 845 892 c 128,-1,24
 901 819 901 819 929.5 724 c 128,-1,25
 958 629 958 629 958 526 c 0,26,27
 958 425 958 425 932 328.5 c 128,-1,28
 906 232 906 232 852.5 156 c 128,-1,29
 799 80 799 80 716.5 34 c 128,-1,30
 634 -12 634 -12 521 -12 c 0,0,1
521 102 m 0,31,32
 598 102 598 102 654 130.5 c 128,-1,33
 710 159 710 159 747.5 207 c 128,-1,34
 785 255 785 255 803.5 318.5 c 128,-1,35
 822 382 822 382 824 452 c 1,36,-1
 216 452 l 1,37,38
 216 378 216 378 233.5 314 c 128,-1,39
 251 250 251 250 288.5 203 c 128,-1,40
 326 156 326 156 383.5 129 c 128,-1,41
 441 102 441 102 521 102 c 0,31,32
EndSplineSet
EndChar

StartChar: uni01EB
Encoding: 491 491 353
Width: 1138
GlyphClass: 1
Flags: W
LayerCount: 2
Fore
SplineSet
562 -451 m 0,0,1
 516 -451 516 -451 477 -436 c 128,-1,2
 438 -421 438 -421 409.5 -394 c 128,-1,3
 381 -367 381 -367 365.5 -328.5 c 128,-1,4
 350 -290 350 -290 350 -243 c 0,5,6
 350 -200 350 -200 363 -164.5 c 128,-1,7
 376 -129 376 -129 399 -100 c 128,-1,8
 422 -71 422 -71 453.5 -48 c 128,-1,9
 485 -25 485 -25 521 -7 c 1,10,11
 418 5 418 5 337.5 52 c 128,-1,12
 257 99 257 99 202 170 c 128,-1,13
 147 241 147 241 118.5 331.5 c 128,-1,14
 90 422 90 422 90 522 c 0,15,16
 90 630 90 630 124 726.5 c 128,-1,17
 158 823 158 823 221.5 895.5 c 128,-1,18
 285 968 285 968 375.5 1010.5 c 128,-1,19
 466 1053 466 1053 579 1053 c 0,20,21
 688 1053 688 1053 776.5 1008.5 c 128,-1,22
 865 964 865 964 927 890 c 128,-1,23
 989 816 989 816 1023 720 c 128,-1,24
 1057 624 1057 624 1057 521 c 0,25,26
 1057 435 1057 435 1034 353.5 c 128,-1,27
 1011 272 1011 272 966.5 204 c 128,-1,28
 922 136 922 136 857 85.5 c 128,-1,29
 792 35 792 35 707 9 c 0,30,31
 697 6 697 6 686.5 4.5 c 128,-1,32
 676 3 676 3 666 -1 c 0,33,34
 652 -6 652 -6 639.5 -13 c 128,-1,35
 627 -20 627 -20 614 -27 c 0,36,37
 586 -42 586 -42 558 -62 c 128,-1,38
 530 -82 530 -82 508.5 -106.5 c 128,-1,39
 487 -131 487 -131 473.5 -161 c 128,-1,40
 460 -191 460 -191 460 -226 c 0,41,42
 460 -247 460 -247 465.5 -266.5 c 128,-1,43
 471 -286 471 -286 482.5 -302 c 128,-1,44
 494 -318 494 -318 511 -327.5 c 128,-1,45
 528 -337 528 -337 551 -337 c 0,46,47
 633 -337 633 -337 678 -271 c 1,48,-1
 775 -338 l 1,49,50
 736 -396 736 -396 684 -423.5 c 128,-1,51
 632 -451 632 -451 562 -451 c 0,0,1
577 127 m 0,52,53
 663 127 663 127 722.5 161 c 128,-1,54
 782 195 782 195 819 250.5 c 128,-1,55
 856 306 856 306 872.5 377.5 c 128,-1,56
 889 449 889 449 889 524 c 256,57,58
 889 599 889 599 872.5 670.5 c 128,-1,59
 856 742 856 742 819.5 797.5 c 128,-1,60
 783 853 783 853 723.5 886.5 c 128,-1,61
 664 920 664 920 577 920 c 0,62,63
 489 920 489 920 428 887.5 c 128,-1,64
 367 855 367 855 329 800 c 128,-1,65
 291 745 291 745 274 673.5 c 128,-1,66
 257 602 257 602 257 524 c 256,67,68
 257 446 257 446 274 374 c 128,-1,69
 291 302 291 302 328.5 247 c 128,-1,70
 366 192 366 192 427.5 159.5 c 128,-1,71
 489 127 489 127 577 127 c 0,52,53
EndSplineSet
EndChar

StartChar: uni0237
Encoding: 567 567 367
Width: 499
GlyphClass: 2
Flags: W
LayerCount: 2
Fore
SplineSet
63 -439 m 0,0,1
 48 -439 48 -439 28 -436.5 c 128,-1,2
 8 -434 8 -434 -12.5 -430 c 128,-1,3
 -33 -426 -33 -426 -52.5 -420.5 c 128,-1,4
 -72 -415 -72 -415 -86 -409 c 1,5,-1
 -58 -298 l 1,6,7
 -28 -307 -28 -307 2.5 -311 c 128,-1,8
 33 -315 33 -315 65 -315 c 0,9,10
 104 -315 104 -315 127.5 -299.5 c 128,-1,11
 151 -284 151 -284 163.5 -259.5 c 128,-1,12
 176 -235 176 -235 180 -204 c 128,-1,13
 184 -173 184 -173 184 -141 c 2,14,-1
 184 1039 l 1,15,-1
 319 1039 l 1,16,-1
 319 -158 l 2,17,18
 319 -220 319 -220 303.5 -272 c 128,-1,19
 288 -324 288 -324 256.5 -361 c 128,-1,20
 225 -398 225 -398 177 -418.5 c 128,-1,21
 129 -439 129 -439 63 -439 c 0,0,1
EndSplineSet
EndChar

StartChar: uni0250
Encoding: 592 592 368
Width: 1056
GlyphClass: 1
Flags: W
LayerCount: 2
Fore
SplineSet
552 -18 m 0,0,1
 456 -18 456 -18 383.5 12.5 c 128,-1,2
 311 43 311 43 261.5 98 c 128,-1,3
 212 153 212 153 187 229.5 c 128,-1,4
 162 306 162 306 162 398 c 2,5,-1
 162 1038 l 1,6,-1
 269 1038 l 1,7,8
 271 986 271 986 271 934 c 128,-1,9
 271 882 271 882 272 830 c 1,10,11
 335 944 335 944 427 1001 c 128,-1,12
 519 1058 519 1058 650 1058 c 0,13,14
 717 1058 717 1058 776 1037 c 128,-1,15
 835 1016 835 1016 878.5 977 c 128,-1,16
 922 938 922 938 947 882.5 c 128,-1,17
 972 827 972 827 972 757 c 0,18,19
 972 664 972 664 935 604.5 c 128,-1,20
 898 545 898 545 838 511.5 c 128,-1,21
 778 478 778 478 702.5 465 c 128,-1,22
 627 452 627 452 550 452 c 2,23,-1
 275 452 l 1,24,25
 275 380 275 380 286.5 315 c 128,-1,26
 298 250 298 250 328.5 200.5 c 128,-1,27
 359 151 359 151 412.5 122 c 128,-1,28
 466 93 466 93 550 93 c 0,29,30
 642 93 642 93 716 133.5 c 128,-1,31
 790 174 790 174 843 248 c 1,32,-1
 935 173 l 1,33,34
 863 73 863 73 768.5 27.5 c 128,-1,35
 674 -18 674 -18 552 -18 c 0,0,1
476 555 m 2,36,37
 513 555 513 555 554.5 556 c 128,-1,38
 596 557 596 557 636.5 563 c 128,-1,39
 677 569 677 569 713.5 581.5 c 128,-1,40
 750 594 750 594 778.5 616.5 c 128,-1,41
 807 639 807 639 823.5 673.5 c 128,-1,42
 840 708 840 708 840 759 c 0,43,44
 840 808 840 808 824 843.5 c 128,-1,45
 808 879 808 879 779.5 902 c 128,-1,46
 751 925 751 925 712.5 936 c 128,-1,47
 674 947 674 947 628 947 c 0,48,49
 551 947 551 947 486.5 913 c 128,-1,50
 422 879 422 879 375 823.5 c 128,-1,51
 328 768 328 768 301.5 698 c 128,-1,52
 275 628 275 628 275 555 c 1,53,-1
 476 555 l 2,36,37
EndSplineSet
EndChar

StartChar: uni0254
Encoding: 596 596 369
Width: 994
GlyphClass: 1
Flags: W
LayerCount: 2
Fore
SplineSet
480 -20 m 0,0,1
 341 -20 341 -20 243 46.5 c 128,-1,2
 145 113 145 113 94 242 c 1,3,-1
 213 296 l 1,4,5
 225 251 225 251 251.5 213.5 c 128,-1,6
 278 176 278 176 314 149 c 128,-1,7
 350 122 350 122 393.5 107.5 c 128,-1,8
 437 93 437 93 483 93 c 0,9,10
 569 93 569 93 627.5 132.5 c 128,-1,11
 686 172 686 172 721 233.5 c 128,-1,12
 756 295 756 295 771 370.5 c 128,-1,13
 786 446 786 446 786 518 c 256,14,15
 786 590 786 590 771 665 c 128,-1,16
 756 740 756 740 721 801.5 c 128,-1,17
 686 863 686 863 627.5 902 c 128,-1,18
 569 941 569 941 483 941 c 0,19,20
 437 941 437 941 393.5 926 c 128,-1,21
 350 911 350 911 314 884.5 c 128,-1,22
 278 858 278 858 252 821 c 128,-1,23
 226 784 226 784 213 739 c 1,24,-1
 95 793 l 1,25,26
 146 920 146 920 244.5 988 c 128,-1,27
 343 1056 343 1056 480 1056 c 0,28,29
 593 1056 593 1056 675 1009.5 c 128,-1,30
 757 963 757 963 811 887 c 128,-1,31
 865 811 865 811 891 714 c 128,-1,32
 917 617 917 617 917 517 c 0,33,34
 917 416 917 416 891 319.5 c 128,-1,35
 865 223 865 223 811.5 147.5 c 128,-1,36
 758 72 758 72 675.5 26 c 128,-1,37
 593 -20 593 -20 480 -20 c 0,0,1
EndSplineSet
EndChar

StartChar: uni0258
Encoding: 600 600 370
Width: 1052
GlyphClass: 1
Flags: W
LayerCount: 2
Fore
SplineSet
508 -12 m 0,0,1
 448 -12 448 -12 397 -4.5 c 128,-1,2
 346 3 346 3 299.5 20.5 c 128,-1,3
 253 38 253 38 210.5 67 c 128,-1,4
 168 96 168 96 125 139 c 1,5,-1
 211 211 l 1,6,7
 241 178 241 178 275.5 156 c 128,-1,8
 310 134 310 134 348 121.5 c 128,-1,9
 386 109 386 109 427.5 104 c 128,-1,10
 469 99 469 99 512 99 c 0,11,12
 595 99 595 99 653.5 130.5 c 128,-1,13
 712 162 712 162 750 214.5 c 128,-1,14
 788 267 788 267 806.5 335 c 128,-1,15
 825 403 825 403 826 477 c 1,16,-1
 105 477 l 1,17,18
 105 489 105 489 103 500.5 c 128,-1,19
 101 512 101 512 101 524 c 0,20,21
 101 636 101 636 121 732.5 c 128,-1,22
 141 829 141 829 190.5 900 c 128,-1,23
 240 971 240 971 323 1011.5 c 128,-1,24
 406 1052 406 1052 532 1052 c 0,25,26
 643 1052 643 1052 724.5 1004.5 c 128,-1,27
 806 957 806 957 858.5 880.5 c 128,-1,28
 911 804 911 804 936.5 707.5 c 128,-1,29
 962 611 962 611 962 513 c 0,30,31
 962 407 962 407 934 312 c 128,-1,32
 906 217 906 217 849.5 145 c 128,-1,33
 793 73 793 73 708 30.5 c 128,-1,34
 623 -12 623 -12 508 -12 c 0,0,1
826 588 m 1,35,36
 824 656 824 656 805.5 719 c 128,-1,37
 787 782 787 782 750 830 c 128,-1,38
 713 878 713 878 657.5 907 c 128,-1,39
 602 936 602 936 527 936 c 0,40,41
 448 936 448 936 390 909 c 128,-1,42
 332 882 332 882 294 835.5 c 128,-1,43
 256 789 256 789 237.5 725.5 c 128,-1,44
 219 662 219 662 219 588 c 1,45,-1
 826 588 l 1,35,36
EndSplineSet
EndChar

StartChar: uni0259
Encoding: 601 601 371
Width: 1052
GlyphClass: 1
Flags: W
LayerCount: 2
Fore
SplineSet
527 -12 m 0,0,1
 400 -12 400 -12 317.5 30 c 128,-1,2
 235 72 235 72 187 145 c 128,-1,3
 139 218 139 218 120 315 c 128,-1,4
 101 412 101 412 101 523 c 0,5,6
 101 533 101 533 103 542.5 c 128,-1,7
 105 552 105 552 105 562 c 1,8,-1
 826 562 l 1,9,10
 824 637 824 637 806.5 705 c 128,-1,11
 789 773 789 773 751.5 825.5 c 128,-1,12
 714 878 714 878 655 909 c 128,-1,13
 596 940 596 940 512 940 c 0,14,15
 467 940 467 940 426.5 935 c 128,-1,16
 386 930 386 930 349 917.5 c 128,-1,17
 312 905 312 905 278 883.5 c 128,-1,18
 244 862 244 862 211 829 c 1,19,-1
 125 900 l 1,20,21
 167 942 167 942 211 971 c 128,-1,22
 255 1000 255 1000 302 1018 c 128,-1,23
 349 1036 349 1036 401.5 1044 c 128,-1,24
 454 1052 454 1052 513 1052 c 0,25,26
 627 1052 627 1052 711 1009 c 128,-1,27
 795 966 795 966 851 893 c 128,-1,28
 907 820 907 820 934.5 725 c 128,-1,29
 962 630 962 630 962 526 c 0,30,31
 962 426 962 426 936.5 329 c 128,-1,32
 911 232 911 232 857.5 156.5 c 128,-1,33
 804 81 804 81 722 34.5 c 128,-1,34
 640 -12 640 -12 527 -12 c 0,0,1
527 103 m 0,35,36
 602 103 602 103 657.5 132 c 128,-1,37
 713 161 713 161 750 209 c 128,-1,38
 787 257 787 257 805.5 320 c 128,-1,39
 824 383 824 383 826 451 c 1,40,-1
 219 451 l 1,41,42
 219 378 219 378 237.5 314 c 128,-1,43
 256 250 256 250 294 203.5 c 128,-1,44
 332 157 332 157 390 130 c 128,-1,45
 448 103 448 103 527 103 c 0,35,36
EndSplineSet
EndChar

StartChar: uni0261
Encoding: 609 609 372
Width: 1144
GlyphClass: 1
Flags: W
LayerCount: 2
Fore
SplineSet
550 -433 m 0,0,1
 491 -433 491 -433 434.5 -422 c 128,-1,2
 378 -411 378 -411 327 -388 c 128,-1,3
 276 -365 276 -365 232.5 -329 c 128,-1,4
 189 -293 189 -293 156 -242 c 1,5,-1
 256 -167 l 1,6,7
 307 -247 307 -247 380.5 -285.5 c 128,-1,8
 454 -324 454 -324 549 -324 c 0,9,10
 623 -324 623 -324 678.5 -299.5 c 128,-1,11
 734 -275 734 -275 771 -231.5 c 128,-1,12
 808 -188 808 -188 827 -129 c 128,-1,13
 846 -70 846 -70 846 0 c 2,14,-1
 846 151 l 1,15,16
 731 -20 731 -20 524 -20 c 0,17,18
 449 -20 449 -20 389 2 c 128,-1,19
 329 24 329 24 283 62.5 c 128,-1,20
 237 101 237 101 203.5 153 c 128,-1,21
 170 205 170 205 149 265 c 128,-1,22
 128 325 128 325 118 390.5 c 128,-1,23
 108 456 108 456 108 521 c 0,24,25
 108 585 108 585 118.5 650 c 128,-1,26
 129 715 129 715 150.5 775 c 128,-1,27
 172 835 172 835 205 887 c 128,-1,28
 238 939 238 939 284.5 977.5 c 128,-1,29
 331 1016 331 1016 390.5 1038 c 128,-1,30
 450 1060 450 1060 524 1060 c 0,31,32
 731 1060 731 1060 846 888 c 1,33,-1
 846 1039 l 1,34,-1
 975 1039 l 1,35,36
 972 525 972 525 972 10 c 0,37,38
 972 -88 972 -88 945.5 -169.5 c 128,-1,39
 919 -251 919 -251 866.5 -309.5 c 128,-1,40
 814 -368 814 -368 734.5 -400.5 c 128,-1,41
 655 -433 655 -433 550 -433 c 0,0,1
550 90 m 0,42,43
 609 90 609 90 654 108.5 c 128,-1,44
 699 127 699 127 733 158.5 c 128,-1,45
 767 190 767 190 790.5 232.5 c 128,-1,46
 814 275 814 275 828.5 323 c 128,-1,47
 843 371 843 371 849.5 421.5 c 128,-1,48
 856 472 856 472 856 521 c 0,49,50
 856 592 856 592 841 667.5 c 128,-1,51
 826 743 826 743 790.5 805.5 c 128,-1,52
 755 868 755 868 697.5 908 c 128,-1,53
 640 948 640 948 555 948 c 0,54,55
 466 948 466 948 405.5 909.5 c 128,-1,56
 345 871 345 871 307.5 810 c 128,-1,57
 270 749 270 749 254 672.5 c 128,-1,58
 238 596 238 596 238 521 c 256,59,60
 238 446 238 446 253.5 369.5 c 128,-1,61
 269 293 269 293 305 231 c 128,-1,62
 341 169 341 169 401 129.5 c 128,-1,63
 461 90 461 90 550 90 c 0,42,43
EndSplineSet
EndChar

StartChar: circumflex
Encoding: 710 710 374
Width: 769
GlyphClass: 1
Flags: W
LayerCount: 2
Fore
SplineSet
709 1100 m 1,0,-1
 558 1100 l 1,1,-1
 380 1295 l 1,2,-1
 205 1100 l 1,3,-1
 51 1100 l 1,4,-1
 380 1453 l 1,5,-1
 709 1100 l 1,0,-1
EndSplineSet
EndChar

StartChar: caron
Encoding: 711 711 375
Width: 769
GlyphClass: 1
Flags: W
LayerCount: 2
Fore
SplineSet
384 1084 m 1,0,-1
 55 1413 l 1,1,-1
 208 1413 l 1,2,-1
 384 1222 l 1,3,-1
 561 1413 l 1,4,-1
 712 1413 l 1,5,-1
 384 1084 l 1,0,-1
EndSplineSet
EndChar

StartChar: uni02D0
Encoding: 720 720 376
Width: 526
GlyphClass: 1
Flags: W
LayerCount: 2
Fore
SplineSet
286 663 m 1,0,-1
 62 998 l 1,1,-1
 440 1044 l 1,2,-1
 286 663 l 1,0,-1
86 -45 m 1,3,-1
 240 335 l 1,4,-1
 463 -1 l 1,5,-1
 86 -45 l 1,3,-1
EndSplineSet
EndChar

StartChar: uni02D1
Encoding: 721 721 377
Width: 552
GlyphClass: 1
Flags: W
LayerCount: 2
Fore
SplineSet
300 278 m 1,0,-1
 76 613 l 1,1,-1
 454 658 l 1,2,-1
 300 278 l 1,0,-1
EndSplineSet
EndChar

StartChar: breve
Encoding: 728 728 378
Width: 835
GlyphClass: 1
Flags: W
LayerCount: 2
Fore
SplineSet
412 1145 m 0,0,1
 350 1145 350 1145 294.5 1162 c 128,-1,2
 239 1179 239 1179 197.5 1212.5 c 128,-1,3
 156 1246 156 1246 132 1296 c 128,-1,4
 108 1346 108 1346 108 1413 c 1,5,-1
 234 1413 l 1,6,7
 234 1376 234 1376 248.5 1346 c 128,-1,8
 263 1316 263 1316 287.5 1294.5 c 128,-1,9
 312 1273 312 1273 344.5 1261.5 c 128,-1,10
 377 1250 377 1250 412 1250 c 0,11,12
 448 1250 448 1250 480 1261.5 c 128,-1,13
 512 1273 512 1273 536.5 1294 c 128,-1,14
 561 1315 561 1315 575 1345.5 c 128,-1,15
 589 1376 589 1376 589 1413 c 1,16,-1
 716 1413 l 1,17,18
 716 1346 716 1346 692 1295.5 c 128,-1,19
 668 1245 668 1245 626.5 1211.5 c 128,-1,20
 585 1178 585 1178 530 1161.5 c 128,-1,21
 475 1145 475 1145 412 1145 c 0,0,1
EndSplineSet
EndChar

StartChar: dotaccent
Encoding: 729 729 379
Width: 493
GlyphClass: 1
Flags: W
LayerCount: 2
Fore
SplineSet
323 1230 m 1,0,-1
 170 1230 l 1,1,-1
 170 1413 l 1,2,-1
 323 1413 l 1,3,-1
 323 1230 l 1,0,-1
EndSplineSet
EndChar

StartChar: ring
Encoding: 730 730 380
Width: 634
GlyphClass: 1
Flags: W
LayerCount: 2
Fore
SplineSet
312 1083 m 0,0,1
 270 1083 270 1083 234.5 1098 c 128,-1,2
 199 1113 199 1113 172.5 1139.5 c 128,-1,3
 146 1166 146 1166 131 1202 c 128,-1,4
 116 1238 116 1238 116 1280 c 0,5,6
 116 1321 116 1321 131.5 1356.5 c 128,-1,7
 147 1392 147 1392 173.5 1419 c 128,-1,8
 200 1446 200 1446 236 1461.5 c 128,-1,9
 272 1477 272 1477 312 1477 c 256,10,11
 352 1477 352 1477 388 1461.5 c 128,-1,12
 424 1446 424 1446 451 1419 c 128,-1,13
 478 1392 478 1392 494 1356 c 128,-1,14
 510 1320 510 1320 510 1280 c 0,15,16
 510 1239 510 1239 494.5 1203 c 128,-1,17
 479 1167 479 1167 452 1140.5 c 128,-1,18
 425 1114 425 1114 389 1098.5 c 128,-1,19
 353 1083 353 1083 312 1083 c 0,0,1
312 1178 m 0,20,21
 333 1178 333 1178 352 1186 c 128,-1,22
 371 1194 371 1194 385 1207.5 c 128,-1,23
 399 1221 399 1221 407 1240 c 128,-1,24
 415 1259 415 1259 415 1280 c 256,25,26
 415 1301 415 1301 407 1319.5 c 128,-1,27
 399 1338 399 1338 384.5 1351.5 c 128,-1,28
 370 1365 370 1365 351.5 1372.5 c 128,-1,29
 333 1380 333 1380 312 1380 c 0,30,31
 267 1380 267 1380 240 1352.5 c 128,-1,32
 213 1325 213 1325 213 1280 c 256,33,34
 213 1235 213 1235 239.5 1206.5 c 128,-1,35
 266 1178 266 1178 312 1178 c 0,20,21
EndSplineSet
EndChar

StartChar: ogonek
Encoding: 731 731 381
Width: 595
GlyphClass: 1
Flags: W
LayerCount: 2
Fore
SplineSet
312 -452 m 0,0,1
 267 -452 267 -452 230.5 -436.5 c 128,-1,2
 194 -421 194 -421 167.5 -394 c 128,-1,3
 141 -367 141 -367 126.5 -329.5 c 128,-1,4
 112 -292 112 -292 112 -248 c 0,5,6
 112 -208 112 -208 124 -175 c 128,-1,7
 136 -142 136 -142 157.5 -115.5 c 128,-1,8
 179 -89 179 -89 208 -68 c 128,-1,9
 237 -47 237 -47 270 -29 c 0,10,11
 274 -27 274 -27 282.5 -23 c 128,-1,12
 291 -19 291 -19 300 -14.5 c 128,-1,13
 309 -10 309 -10 317.5 -6.5 c 128,-1,14
 326 -3 326 -3 329 -3 c 2,15,-1
 441 0 l 1,16,17
 407 -12 407 -12 366.5 -35 c 128,-1,18
 326 -58 326 -58 291.5 -88.5 c 128,-1,19
 257 -119 257 -119 234 -156.5 c 128,-1,20
 211 -194 211 -194 211 -235 c 0,21,22
 211 -256 211 -256 216.5 -276.5 c 128,-1,23
 222 -297 222 -297 233.5 -312.5 c 128,-1,24
 245 -328 245 -328 262 -338 c 128,-1,25
 279 -348 279 -348 303 -348 c 0,26,27
 342 -348 342 -348 374 -332 c 128,-1,28
 406 -316 406 -316 429 -284 c 1,29,-1
 514 -343 l 1,30,31
 477 -398 477 -398 428 -425 c 128,-1,32
 379 -452 379 -452 312 -452 c 0,0,1
EndSplineSet
EndChar

StartChar: tilde
Encoding: 732 732 382
Width: 856
GlyphClass: 1
Flags: W
LayerCount: 2
Fore
SplineSet
587 1156 m 0,0,1
 554 1156 554 1156 528 1168 c 128,-1,2
 502 1180 502 1180 480.5 1197.5 c 128,-1,3
 459 1215 459 1215 441.5 1236 c 128,-1,4
 424 1257 424 1257 407 1274.5 c 128,-1,5
 390 1292 390 1292 372 1304 c 128,-1,6
 354 1316 354 1316 333 1316 c 0,7,8
 309 1316 309 1316 295 1301 c 128,-1,9
 281 1286 281 1286 273.5 1265 c 128,-1,10
 266 1244 266 1244 263.5 1220.5 c 128,-1,11
 261 1197 261 1197 261 1179 c 1,12,-1
 172 1179 l 1,13,14
 172 1217 172 1217 179.5 1259.5 c 128,-1,15
 187 1302 187 1302 205.5 1337.5 c 128,-1,16
 224 1373 224 1373 255 1396.5 c 128,-1,17
 286 1420 286 1420 333 1420 c 0,18,19
 368 1420 368 1420 395.5 1406 c 128,-1,20
 423 1392 423 1392 447 1371 c 128,-1,21
 471 1350 471 1350 493 1325 c 128,-1,22
 515 1300 515 1300 537 1279 c 0,23,24
 545 1271 545 1271 556 1268 c 128,-1,25
 567 1265 567 1265 578 1265 c 0,26,27
 595 1265 595 1265 605.5 1276.5 c 128,-1,28
 616 1288 616 1288 623 1302 c 1,29,30
 637 1307 637 1307 645.5 1320.5 c 128,-1,31
 654 1334 654 1334 658 1350 c 128,-1,32
 662 1366 662 1366 663 1383 c 128,-1,33
 664 1400 664 1400 664 1413 c 1,34,-1
 760 1413 l 1,35,36
 760 1369 760 1369 753.5 1323.5 c 128,-1,37
 747 1278 747 1278 728.5 1240.5 c 128,-1,38
 710 1203 710 1203 676 1179.5 c 128,-1,39
 642 1156 642 1156 587 1156 c 0,0,1
EndSplineSet
EndChar

